<svg width="96" height="96" viewBox="0 0 96 96" fill="none" xmlns="http://www.w3.org/2000/svg">
<g clip-path="url(#clip0_301:1901)">
<path d="M88.3853 11.1854V19.5409H48.0001C46.4638 19.5363 45.2195 18.292 45.2149 16.7557V13.9705C45.2103 12.4342 43.9661 11.1899 42.4297 11.1854H7.61493C7.61493 8.10893 10.1089 5.61499 13.1853 5.61499H82.8149C85.8914 5.61499 88.3853 8.10893 88.3853 11.1854Z" fill="#FBAF57"/>
<path d="M82.815 5.61499H78.6372C81.7136 5.61499 84.2076 8.10893 84.2076 11.1854V19.5409H88.3854V11.1854C88.3854 8.10893 85.8914 5.61499 82.815 5.61499Z" fill="white"/>
<path d="M88.3852 19.5406V25.111H7.61487V11.1851H42.4297C43.966 11.1896 45.2103 12.4339 45.2149 13.9702V16.7554C45.2195 18.2917 46.4637 19.536 48.0001 19.5406H88.3852Z" fill="#EAECF3"/>
<path d="M84.2076 19.5408H88.3854V25.1111H84.2076V19.5408Z" fill="white"/>
<path d="M88.3852 25.1111V80.8148C88.3852 83.8912 85.8913 86.3852 82.8149 86.3852H13.1852C10.1088 86.3852 7.61487 83.8912 7.61487 80.8148V25.1111H88.3852Z" fill="#EAECF3"/>
<path d="M84.2076 25.1111V80.8148C84.2076 83.8912 81.7136 86.3852 78.6372 86.3852H82.815C85.8914 86.3852 88.3854 83.8912 88.3854 80.8148V25.1111H84.2076Z" fill="white"/>
<path d="M71.674 43.6748V76.6375C71.674 78.9448 69.8035 80.8152 67.4962 80.8152H42.4295C40.1222 80.8152 38.2518 78.9448 38.2518 76.6375V43.6748C38.2552 41.8167 39.1849 40.0826 40.7306 39.0514L51.8713 31.6149C52.4303 31.2401 53.0534 30.9711 53.7095 30.8212H53.7235C55.2149 30.4797 56.7811 30.7668 58.0544 31.6149L69.1952 39.0514C70.7409 40.0826 71.6706 41.8167 71.674 43.6748Z" fill="#EAECF3"/>
<path d="M69.1954 39.0514L58.0547 31.6149C56.7813 30.7668 55.2151 30.4797 53.7237 30.8212H53.7098C53.4274 30.8908 53.1504 30.9811 52.8812 31.0913C53.23 31.2316 53.5637 31.407 53.8769 31.6149L65.0177 39.0514C66.5633 40.0826 67.493 41.8167 67.4965 43.6748V76.6375C67.4965 78.9448 65.626 80.8152 63.3187 80.8152H67.4965C69.8038 80.8152 71.6742 78.9448 71.6742 76.6375V43.6748C71.6708 41.8167 70.7411 40.0826 69.1954 39.0514Z" fill="white"/>
<path d="M53.7098 30.8205C53.0536 30.9704 52.4306 31.2395 51.8716 31.6143L40.7308 39.0508C39.1852 40.082 38.2554 41.8161 38.252 43.6742V76.6368L22.3904 68.8522C21.4347 68.3863 20.7054 67.557 20.3652 66.5497C20.0251 65.5423 20.1024 64.4407 20.58 63.4908L34.8541 35.2351C35.6619 33.6304 37.2202 32.5375 39.004 32.3245L51.8716 30.7231C52.4854 30.6515 53.1069 30.6845 53.7098 30.8205Z" fill="#FBAF57"/>
<path d="M54.963 41.8221C56.5013 41.8221 57.7482 40.5751 57.7482 39.0369C57.7482 37.4987 56.5013 36.2517 54.963 36.2517C53.4248 36.2517 52.1779 37.4987 52.1779 39.0369C52.1779 40.5751 53.4248 41.8221 54.963 41.8221Z" fill="#FBAF57"/>
<path d="M13.1853 86.3854H17.3631C14.2866 86.3854 11.7927 83.8914 11.7927 80.815V11.1854C11.7927 8.10893 14.2866 5.61499 17.3631 5.61499H13.1853C10.1089 5.61499 7.61493 8.10893 7.61493 11.1854V80.815C7.61493 83.8914 10.1089 86.3854 13.1853 86.3854Z" fill="white"/>
<path d="M6.22223 69.6746H9.00741V80.8153H6.22223V69.6746Z" fill="white"/>
<path d="M7.61482 76.6365C8.38393 76.6365 9.00741 76.013 9.00741 75.2439C9.00741 74.4748 8.38393 73.8513 7.61482 73.8513C6.84571 73.8513 6.22223 74.4748 6.22223 75.2439C6.22223 76.013 6.84571 76.6365 7.61482 76.6365Z" fill="#4F4F4F"/>
<path d="M82.8148 4.22217H13.1852C9.34156 4.22677 6.22683 7.3415 6.22223 11.1851V69.674C6.22223 70.4431 6.84571 71.0666 7.61482 71.0666C8.38393 71.0666 9.00741 70.4431 9.00741 69.674V26.5037H86.9926V80.8148C86.9926 83.1221 85.1221 84.9925 82.8148 84.9925H13.1852C10.8779 84.9925 9.00741 83.1221 9.00741 80.8148C9.00741 80.0457 8.38393 79.4222 7.61482 79.4222C6.84571 79.4222 6.22223 80.0457 6.22223 80.8148C6.22683 84.6584 9.34156 87.7731 13.1852 87.7777H82.8148C86.6585 87.7731 89.7732 84.6584 89.7778 80.8148V11.1851C89.7732 7.3415 86.6585 4.22677 82.8148 4.22217ZM13.1852 7.00735H82.8148C85.1221 7.00735 86.9926 8.87781 86.9926 11.1851V18.1481H48C47.2309 18.1481 46.6074 17.5246 46.6074 16.7555V13.9703C46.6074 11.663 44.737 9.79254 42.4296 9.79254H9.26365C9.85168 8.12929 11.4211 7.01467 13.1852 7.00735ZM9.00741 23.7185V12.5777H42.4296C43.1987 12.5777 43.8222 13.2012 43.8222 13.9703V16.7555C43.8222 19.0628 45.6927 20.9333 48 20.9333H86.9926V23.7185H9.00741Z" fill="#4F4F4F"/>
<path d="M29.8962 16.7559H14.5777C13.8085 16.7559 13.1851 17.3793 13.1851 18.1485C13.1851 18.9176 13.8085 19.541 14.5777 19.541H29.8962C30.6653 19.541 31.2888 18.9176 31.2888 18.1485C31.2888 17.3793 30.6653 16.7559 29.8962 16.7559Z" fill="#4F4F4F"/>
<path d="M40.6289 15.7708C40.0851 15.2271 39.2036 15.2271 38.6598 15.7708L38.2518 16.1788L37.8438 15.7708C37.2973 15.243 36.4288 15.2506 35.8916 15.7877C35.3544 16.3249 35.3469 17.1935 35.8746 17.7399L36.2827 18.1479L35.8746 18.556C35.5126 18.9056 35.3674 19.4234 35.4949 19.9103C35.6223 20.3971 36.0026 20.7774 36.4895 20.9048C36.9763 21.0323 37.4941 20.8871 37.8438 20.5251L38.2518 20.117L38.6598 20.5251C39.2062 21.0528 40.0748 21.0453 40.612 20.5081C41.1492 19.9709 41.1567 19.1024 40.6289 18.556L40.2209 18.1479L40.6289 17.7399C41.1726 17.1961 41.1726 16.3146 40.6289 15.7708Z" fill="#4F4F4F"/>
<path d="M80.0295 13.9702C80.7986 13.9702 81.4221 13.3468 81.4221 12.5777C81.4221 11.8085 80.7986 11.1851 80.0295 11.1851C79.2604 11.1851 78.637 11.8085 78.637 12.5777C78.637 13.3468 79.2604 13.9702 80.0295 13.9702Z" fill="#4F4F4F"/>
<path d="M74.4592 13.9702C75.2283 13.9702 75.8518 13.3468 75.8518 12.5777C75.8518 11.8085 75.2283 11.1851 74.4592 11.1851C73.6901 11.1851 73.0667 11.8085 73.0667 12.5777C73.0667 13.3468 73.6901 13.9702 74.4592 13.9702Z" fill="#4F4F4F"/>
<path d="M68.8888 13.9702C69.6579 13.9702 70.2814 13.3468 70.2814 12.5777C70.2814 11.8085 69.6579 11.1851 68.8888 11.1851C68.1197 11.1851 67.4962 11.8085 67.4962 12.5777C67.4962 13.3468 68.1197 13.9702 68.8888 13.9702Z" fill="#4F4F4F"/>
<path d="M21.7761 70.1002L36.9554 77.5492C37.4002 80.229 39.7132 82.1972 42.4297 82.2074H67.4963C70.5728 82.2074 73.0667 79.7135 73.0667 76.637V43.6785C73.0697 41.3496 71.9051 39.1743 69.9654 37.8853L58.8247 30.4587C57.3184 29.4559 55.4798 29.0816 53.7013 29.4156C53.0623 29.297 52.4096 29.2693 51.7628 29.3334H51.6946L38.8451 30.9349C36.5937 31.1938 34.6255 32.5727 33.6132 34.6002L19.3321 62.8587C18.6862 64.1303 18.5788 65.6083 19.0341 66.9599C19.4893 68.3324 20.4775 69.4641 21.7761 70.1002ZM54.963 32.0741C55.7879 32.0746 56.5942 32.3193 57.2803 32.7773L68.421 40.204C69.5842 40.9773 70.2827 42.2818 70.2815 43.6785V76.637C70.2815 78.1752 69.0346 79.4222 67.4963 79.4222H42.4297C40.8915 79.4222 39.6445 78.1752 39.6445 76.637V43.6785C39.641 42.2793 40.3398 40.9717 41.505 40.1971L52.6457 32.7704C53.3326 32.3148 54.1388 32.0725 54.963 32.0741ZM21.8193 64.1148L36.1031 35.8591C36.6985 34.6668 37.8566 33.8567 39.1808 33.7062L47.851 32.6255L39.962 37.8853C38.0217 39.1739 36.8566 41.3494 36.8593 43.6785V74.4089L23.0072 67.6088C22.3763 67.3003 21.8957 66.7514 21.6731 66.0854C21.4537 65.4357 21.5065 64.725 21.8193 64.1148Z" fill="#4F4F4F"/>
<path d="M50.7852 39.0369C50.7852 41.3442 52.6557 43.2147 54.963 43.2147C57.2703 43.2147 59.1408 41.3442 59.1408 39.0369C59.1408 36.7296 57.2703 34.8591 54.963 34.8591C52.6557 34.8591 50.7852 36.7296 50.7852 39.0369ZM54.963 37.6443C55.7321 37.6443 56.3556 38.2678 56.3556 39.0369C56.3556 39.806 55.7321 40.4295 54.963 40.4295C54.1939 40.4295 53.5704 39.806 53.5704 39.0369C53.5704 38.2678 54.1939 37.6443 54.963 37.6443Z" fill="#4F4F4F"/>
<path d="M56.3556 47.3926C56.3556 46.6235 55.7321 46 54.963 46C54.1939 46 53.5704 46.6235 53.5704 47.3926V48.9244C50.0647 49.6363 47.6688 52.8888 48.0283 56.4479C48.3878 60.0071 51.3857 62.7147 54.963 62.7111C57.2703 62.7111 59.1407 64.5816 59.1407 66.8889C59.1407 69.1962 57.2703 71.0667 54.963 71.0667C52.6556 71.0667 50.7852 69.1962 50.7852 66.8889C50.7852 66.1198 50.1617 65.4963 49.3926 65.4963C48.6235 65.4963 48 66.1198 48 66.8889C48.0042 70.1964 50.3306 73.0463 53.5704 73.7126V75.2444C53.5704 76.0136 54.1939 76.637 54.963 76.637C55.7321 76.637 56.3556 76.0136 56.3556 75.2444V73.7126C59.8613 73.0007 62.2572 69.7483 61.8977 66.1891C61.5382 62.63 58.5402 59.9223 54.963 59.9259C52.6556 59.9259 50.7852 58.0555 50.7852 55.7481C50.7852 53.4408 52.6556 51.5704 54.963 51.5704C57.2703 51.5704 59.1407 53.4408 59.1407 55.7481C59.1407 56.5173 59.7642 57.1407 60.5333 57.1407C61.3024 57.1407 61.9259 56.5173 61.9259 55.7481C61.9218 52.4406 59.5953 49.5907 56.3556 48.9244V47.3926Z" fill="#4F4F4F"/>
</g>
<defs>
<clipPath id="clip0_301:1901">
<rect width="96" height="96" fill="white"/>
</clipPath>
</defs>
</svg>
