<svg width="94" height="94" viewBox="0 0 94 94" fill="none" xmlns="http://www.w3.org/2000/svg">
<g clip-path="url(#clip0_301:826)">
<path d="M89.3001 89.3003H4.70011C2.96961 89.3003 1.56677 87.8975 1.56677 86.167V50.1337H92.4334V86.167C92.4334 87.8975 91.0306 89.3003 89.3001 89.3003Z" fill="#F8A23D"/>
<path d="M87.7336 50.1337V86.167C87.7336 87.8975 86.3307 89.3003 84.6002 89.3003H89.3002C91.0307 89.3003 92.4336 87.8975 92.4336 86.167V50.1337H87.7336Z" fill="white"/>
<path d="M23.8762 49.8201C24.5186 48.3005 24.9886 47.7051 25.3019 46.9375C26.0382 45.2611 26.1949 43.6318 27.6676 42.3471C29.9862 40.3261 33.4956 40.0598 35.4852 37.6158C37.2869 35.4381 38.5559 32.7748 40.1539 30.4875C41.6367 28.1372 44.2213 26.7118 47.0002 26.7118C49.7791 26.7118 52.3638 28.1372 53.8466 30.4875C55.4446 32.7748 56.7136 35.4381 58.5152 37.6158C60.5049 40.0598 64.0142 40.3261 66.3329 42.3471C67.8056 43.6318 67.9622 45.2611 68.6986 46.9375C68.9962 47.7051 69.4819 48.3005 70.1242 49.8201" fill="#EAECF3"/>
<path d="M68.6981 46.9376C67.9618 45.2612 67.8051 43.6319 66.3324 42.3473C64.0138 40.3263 60.5044 40.0599 58.5148 37.6159C56.7131 35.4382 55.4441 32.7749 53.8461 30.4876C52.3463 28.1555 49.7724 26.736 46.9998 26.7119C46.2026 26.7128 45.4103 26.8349 44.6498 27.0738C46.4886 27.6761 48.0719 28.8782 49.1461 30.4876C50.7441 32.7749 52.0131 35.4382 53.8148 37.6159C55.8044 40.0599 59.3138 40.3263 61.6324 42.3473C63.1051 43.6319 63.2618 45.2612 63.9981 46.9376C64.2958 47.7053 64.7814 48.3006 65.4238 49.8203H70.1238C69.4814 48.3006 68.9958 47.7053 68.6981 46.9376Z" fill="white"/>
<path d="M39.1664 10.9669C39.1664 14.4277 34.3301 17.2336 28.3564 17.2336C23.4377 17.2635 18.6613 15.5838 14.8439 12.4819C14.3747 12.1193 14.1 11.5598 14.1 10.9669C14.1 10.3739 14.3747 9.81445 14.8439 9.45192C18.6613 6.34993 23.4377 4.67031 28.3564 4.70022C34.3301 4.70022 39.1664 7.50612 39.1664 10.9669Z" fill="#EAECF3"/>
<path d="M28.3568 4.70044C27.5355 4.70101 26.7149 4.74651 25.8987 4.83674C30.7961 5.43677 34.4668 7.95284 34.4668 10.9671C34.4668 13.9814 30.7961 16.4974 25.9049 17.0975C26.7191 17.1875 27.5376 17.233 28.3568 17.2338C34.3242 17.2338 39.1668 14.4279 39.1668 10.9671C39.1668 7.50634 34.3305 4.70044 28.3568 4.70044Z" fill="white"/>
<path d="M54.8335 10.9667C54.8335 14.4275 59.6698 17.2333 65.6435 17.2333C70.5644 17.2647 75.3432 15.585 79.1623 12.4816C79.6315 12.1191 79.9062 11.5596 79.9062 10.9667C79.9062 10.3737 79.6315 9.81424 79.1623 9.45172C75.3432 6.34835 70.5644 4.66864 65.6435 4.70002C59.6698 4.70002 54.8335 7.50592 54.8335 10.9667Z" fill="#EAECF3"/>
<path d="M79.1559 9.45192C75.3385 6.34993 70.5621 4.67031 65.6434 4.70022C64.894 4.70052 64.1454 4.74604 63.4015 4.83652C67.4565 5.27555 71.2978 6.87847 74.4622 9.45192C74.9314 9.81445 75.2061 10.3739 75.2061 10.9669C75.2061 11.5598 74.9314 12.1193 74.4622 12.4819C71.2978 15.0553 67.4565 16.6582 63.4015 17.0973C64.1454 17.1877 64.894 17.2333 65.6434 17.2336C70.5643 17.2649 75.3431 15.5852 79.1622 12.4819C79.6306 12.1184 79.9042 11.5583 79.903 10.9654C79.9018 10.3724 79.6259 9.81348 79.1559 9.45192Z" fill="white"/>
<path d="M92.4334 50.1339V43.8672C92.4334 42.1367 91.0306 40.7339 89.3001 40.7339H83.0334C80.8934 40.8289 78.875 41.7552 77.4075 43.3158C73.718 47.4267 72.8908 50.1339 67.3668 50.1339H26.6334C21.1094 50.1339 20.2822 47.4267 16.5927 43.3158C15.1252 41.7552 13.1068 40.8289 10.9668 40.7339H4.70011C2.96961 40.7339 1.56677 42.1367 1.56677 43.8672V50.1339" fill="#EAECF3"/>
<path d="M16.5926 43.3158C15.1252 41.7552 13.1067 40.8289 10.9667 40.7339H6.26672C8.40672 40.8289 10.4252 41.7552 11.8926 43.3158C15.5821 47.4267 16.4093 50.1339 21.9334 50.1339H26.6334C21.1093 50.1339 20.2821 47.4267 16.5926 43.3158Z" fill="white"/>
<path d="M89.3002 40.7339H84.6002C86.3307 40.7339 87.7336 42.1367 87.7336 43.8672V50.1339H92.4336V43.8672C92.4336 42.1367 91.0307 40.7339 89.3002 40.7339Z" fill="white"/>
<path d="M4.70011 89.3006H9.40011C7.66961 89.3006 6.26677 87.8977 6.26677 86.1672V43.8672C6.26677 42.1367 7.66961 40.7339 9.40011 40.7339H4.70011C2.96961 40.7339 1.56677 42.1367 1.56677 43.8672V86.1672C1.56677 87.8977 2.96961 89.3006 4.70011 89.3006Z" fill="white"/>
<path d="M14.8439 12.4819C18.6613 15.5838 23.4377 17.2635 28.3565 17.2336C29.1058 17.2333 29.8545 17.1877 30.5984 17.0973C26.5434 16.6582 22.702 15.0553 19.5377 12.4819C19.0685 12.1193 18.7937 11.5598 18.7937 10.9669C18.7937 10.3739 19.0685 9.81445 19.5377 9.45192C22.702 6.87847 26.5434 5.27555 30.5984 4.83652C29.8545 4.74604 29.1058 4.70052 28.3565 4.70022C23.4377 4.67031 18.6613 6.34993 14.8439 9.45192C14.3747 9.81445 14.1 10.3739 14.1 10.9669C14.1 11.5598 14.3747 12.1193 14.8439 12.4819Z" fill="white"/>
<path d="M25.3016 46.9376C25.2023 47.1737 25.0903 47.4043 24.9663 47.6285C25.919 48.6952 27.1646 49.4579 28.5477 49.8218H28.5759C29.2182 48.3021 29.6882 47.7068 30.0016 46.9391C30.7379 45.2628 30.8946 43.6335 32.3672 42.3488C34.6859 40.3278 38.1952 40.0615 40.1849 37.6175C41.9866 35.4398 43.2556 32.7765 44.8536 30.4891C45.9277 28.8798 47.5111 27.6776 49.3499 27.0754C48.5895 26.8359 47.7971 26.7133 46.9999 26.7119C46.5981 26.7134 46.197 26.7448 45.7998 26.8059C45.7763 26.8059 45.756 26.8169 45.7325 26.82C45.3659 26.8781 45.0041 26.963 44.6499 27.0738C42.8111 27.6761 41.2277 28.8782 40.1536 30.4876C38.5556 32.7749 37.2866 35.4382 35.4849 37.6159C33.4952 40.0599 29.9859 40.3262 27.6672 42.3472C26.1946 43.6319 26.0379 45.2612 25.3016 46.9376Z" fill="white"/>
<path d="M0 73.6337H3.13333V86.167H0V73.6337Z" fill="white"/>
<path d="M1.59796 81.4674C0.732711 81.4718 0.0277837 80.7739 0.0234575 79.9086C0.0191313 79.0434 0.717045 78.3384 1.58229 78.3341H1.59796C2.4632 78.3341 3.16462 79.0355 3.16462 79.9008C3.16462 80.766 2.4632 81.4674 1.59796 81.4674Z" fill="#4F4F4F"/>
<path d="M4.7 90.8669H89.3C91.8957 90.8669 94 88.7627 94 86.1669V43.8669C94 41.2712 91.8957 39.1669 89.3 39.1669H83.0333C80.4492 39.2655 78.0084 40.3803 76.2418 42.2689C75.4867 43.1102 74.8475 43.8935 74.2647 44.6095C73.3784 45.901 72.2421 47.0016 70.923 47.8462C70.7992 47.6081 70.6817 47.3904 70.5768 47.1992C70.4079 46.9131 70.2597 46.6151 70.1334 46.3078C69.9438 45.8754 69.7966 45.4461 69.6509 45.0262C69.2657 43.5511 68.4743 42.2136 67.3667 41.166C66.171 40.2122 64.8336 39.451 63.403 38.91C62.0146 38.445 60.7554 37.6592 59.7276 36.6164C58.725 35.3364 57.8196 33.9832 57.0188 32.5681C56.4235 31.578 55.8094 30.5549 55.1388 29.5914C53.6388 27.3271 51.2777 25.775 48.6043 25.2956C48.8408 19.6133 50.5736 13.9984 53.6176 12.7889C54.8678 16.2716 59.69 18.8002 65.6433 18.8002C70.9258 18.8262 76.0541 17.0208 80.1554 13.6913C80.9879 13.0323 81.4734 12.0287 81.4734 10.9669C81.4734 9.9051 80.9879 8.90156 80.1554 8.24248C76.0541 4.913 70.9258 3.10761 65.6433 3.13358C59.4738 3.13358 54.5043 5.85644 53.4782 9.55691C50.4279 10.1836 48.3082 12.8908 47.0063 16.5333C45.7106 12.8908 43.5847 10.1804 40.5344 9.55691C39.5019 5.85644 34.5325 3.13358 28.3567 3.13358C23.0759 3.10947 17.9497 4.91471 13.8493 8.24248C13.0179 8.90224 12.5333 9.90553 12.5333 10.9669C12.5333 12.0283 13.0179 13.0316 13.8493 13.6913C17.9497 17.0191 23.0759 18.8243 28.3567 18.8002C34.299 18.8002 39.1259 16.2716 40.3918 12.7874C43.4296 13.9968 45.1623 19.6118 45.4051 25.2941C42.7314 25.7739 40.3701 27.3259 38.869 29.5899C38.1953 30.5549 37.5812 31.578 36.989 32.5665C36.1861 33.9847 35.2786 35.341 34.274 36.6242C33.2465 37.6622 31.9897 38.4446 30.6048 38.9084C29.1716 39.4498 27.8317 40.2115 26.6333 41.166C25.5246 42.2133 24.7321 43.5508 24.346 45.0262C24.2003 45.4461 24.053 45.8754 23.8478 46.3469C23.7257 46.6275 23.5871 46.9006 23.4326 47.1647C23.3245 47.3637 23.2008 47.5924 23.0707 47.8447C21.7559 46.9986 20.6234 45.8981 19.74 44.6079C19.1572 43.892 18.5196 43.1102 17.7644 42.2689C15.9963 40.3788 13.553 39.2639 10.9667 39.1669H4.7C2.10426 39.1669 0 41.2712 0 43.8669V73.6336C0 74.4988 0.701421 75.2002 1.56667 75.2002C2.43191 75.2002 3.13333 74.4988 3.13333 73.6336V51.7002H45.4333V58.6124L32.7903 65.6436L26.8589 63.2622L28.1687 56.7136C28.3002 56.1563 28.1173 55.5717 27.6915 55.1888C27.2658 54.8059 26.6651 54.6858 26.1249 54.8755C25.5846 55.0652 25.1909 55.5345 25.098 56.0994L23.735 62.9082L16.9263 64.2712C16.1522 64.4431 15.6286 65.1662 15.7069 65.9552C15.7852 66.7443 16.4406 67.3504 17.2333 67.3669C17.3386 67.3676 17.4436 67.3571 17.5467 67.3356L24.9225 65.8614L30.7427 68.1894L29.4737 70.7306C29.0116 71.6528 28.1251 72.2885 27.1033 72.4304L21.0137 73.3014C18.9777 73.5915 17.2136 74.862 16.2933 76.7011L14.2567 80.7666C13.8699 81.541 14.1841 82.4823 14.9585 82.8691C15.7329 83.2559 16.6742 82.9416 17.061 82.1672L19.0977 78.1033C19.5589 77.1823 20.4433 76.5468 21.4633 76.4035L27.553 75.5324C29.5889 75.2424 31.353 73.9718 32.2733 72.1327L34.0875 68.5012L47.0407 61.3039L56.8919 66.2295L51.9726 71.1488C50.7916 72.3209 50.1292 73.9171 50.1333 75.5809V81.4669C50.1333 82.3322 50.8348 83.0336 51.7 83.0336C52.5652 83.0336 53.2667 82.3322 53.2667 81.4669V75.5809C53.2642 74.749 53.5948 73.9507 54.1847 73.3641L60.0707 67.4781L66.8183 68.603C67.6138 68.7338 68.3276 69.1679 68.8096 69.814L71.675 73.6336L67.68 78.9603C67.3442 79.408 67.2727 80.0009 67.4926 80.5157C67.7125 81.0304 68.1902 81.3887 68.7459 81.4557C69.3016 81.5226 69.8508 81.288 70.1867 80.8402L74.166 75.534L80.8854 78.2224C81.4054 78.43 81.9967 78.3445 82.4365 77.998C82.8763 77.6515 83.0979 77.0967 83.0177 76.5426C82.9376 75.9884 82.5679 75.5191 82.0479 75.3115L74.6219 72.3348L71.3162 67.9262C70.3512 66.6353 68.924 65.768 67.3338 65.5057L60.0237 64.2868L48.5667 58.5654V51.7002H90.8667V86.1669C90.8667 87.0322 90.1653 87.7336 89.3 87.7336H4.7C3.83475 87.7336 3.13333 87.0322 3.13333 86.1669C3.13333 85.3017 2.43191 84.6003 1.56667 84.6003C0.701421 84.6003 0 85.3017 0 86.1669C0 88.7627 2.10426 90.8669 4.7 90.8669ZM65.6433 6.26691C70.1988 6.24142 74.6224 7.79548 78.161 10.6645C78.2611 10.7342 78.3244 10.8453 78.3333 10.9669C78.3242 11.0889 78.261 11.2004 78.161 11.2708C74.6218 14.1387 70.1985 15.6921 65.6433 15.6669C60.1929 15.6669 56.4 13.19 56.4 10.9669C56.4 8.74381 60.1929 6.26691 65.6433 6.26691ZM28.3567 15.6669C23.8014 15.6923 19.3781 14.1389 15.839 11.2708C15.732 11.2069 15.6666 11.0915 15.6666 10.9669C15.6666 10.8423 15.732 10.7269 15.839 10.663C19.3781 7.79493 23.8014 6.2415 28.3567 6.26691C33.8071 6.26691 37.6 8.74381 37.6 10.9669C37.6 13.19 33.8071 15.6669 28.3567 15.6669ZM4.7 42.3002H10.9573C12.6544 42.3972 14.2516 43.134 15.427 44.362C16.1445 45.161 16.7492 45.9051 17.307 46.5851C17.8819 47.2916 18.4256 47.959 18.999 48.5669H3.13333V43.8669C3.13333 43.0017 3.83475 42.3002 4.7 42.3002ZM26.6333 48.5669C26.4939 48.5669 26.3811 48.5528 26.2495 48.5497C26.43 48.2318 26.5921 47.9038 26.7352 47.5674C26.9608 47.0551 27.1394 46.5443 27.3101 46.0477C27.5289 45.0953 28.0091 44.2229 28.6966 43.5285C29.6562 42.7929 30.7202 42.2047 31.8535 41.7832C33.7002 41.1368 35.361 40.0487 36.6913 38.6139C37.794 37.2137 38.789 35.7321 39.668 34.1818C40.2618 33.1948 40.8226 32.261 41.4336 31.3853C42.6231 29.4552 44.7282 28.2798 46.9953 28.2798C49.2625 28.2798 51.3675 29.4552 52.557 31.3853C53.1695 32.261 53.7304 33.1948 54.3242 34.1818C55.2035 35.7289 56.1986 37.2074 57.3008 38.6045C58.6324 40.0437 60.2961 41.135 62.1465 41.7832C63.2791 42.2044 64.3426 42.7921 65.3018 43.5269C65.99 44.2217 66.4708 45.0947 66.6899 46.0477C66.8606 46.5443 67.0392 47.0551 67.2366 47.5031C67.383 47.8629 67.5531 48.2125 67.7458 48.5497C67.6142 48.5497 67.5045 48.5669 67.3667 48.5669H26.6333ZM75.0042 48.5669C75.576 47.9606 76.1212 47.2932 76.6946 46.5882C77.2492 45.9067 77.8555 45.1625 78.5746 44.362C79.7474 43.1366 81.3401 42.4001 83.0333 42.3002H89.3C90.1653 42.3002 90.8667 43.0017 90.8667 43.8669V48.5669H75.0042Z" fill="#4F4F4F"/>
<path d="M46.9999 37.6005C47.8651 37.6005 48.5665 36.8991 48.5665 36.0338C48.5665 35.1686 47.8651 34.4672 46.9999 34.4672C46.1346 34.4672 45.4332 35.1686 45.4332 36.0338C45.4332 36.8991 46.1346 37.6005 46.9999 37.6005Z" fill="#4F4F4F"/>
<path d="M42.2999 43.8672C43.1652 43.8672 43.8666 43.1658 43.8666 42.3006C43.8666 41.4353 43.1652 40.7339 42.2999 40.7339C41.4347 40.7339 40.7333 41.4353 40.7333 42.3006C40.7333 43.1658 41.4347 43.8672 42.2999 43.8672Z" fill="#4F4F4F"/>
<path d="M51.6997 43.8672C52.565 43.8672 53.2664 43.1658 53.2664 42.3006C53.2664 41.4353 52.565 40.7339 51.6997 40.7339C50.8345 40.7339 50.1331 41.4353 50.1331 42.3006C50.1331 43.1658 50.8345 43.8672 51.6997 43.8672Z" fill="#4F4F4F"/>
<path d="M59.5332 59.5331C60.3985 59.5331 61.0999 58.8317 61.0999 57.9664C61.0999 57.1012 60.3985 56.3998 59.5332 56.3998C58.668 56.3998 57.9666 57.1012 57.9666 57.9664C57.9666 58.8317 58.668 59.5331 59.5332 59.5331Z" fill="#4F4F4F"/>
<path d="M70.4999 61.0999C71.3651 61.0999 72.0665 60.3985 72.0665 59.5332C72.0665 58.668 71.3651 57.9666 70.4999 57.9666C69.6346 57.9666 68.9332 58.668 68.9332 59.5332C68.9332 60.3985 69.6346 61.0999 70.4999 61.0999Z" fill="#4F4F4F"/>
<path d="M81.4664 70.4998C82.3317 70.4998 83.0331 69.7984 83.0331 68.9331C83.0331 68.0679 82.3317 67.3665 81.4664 67.3665C80.6012 67.3665 79.8998 68.0679 79.8998 68.9331C79.8998 69.7984 80.6012 70.4998 81.4664 70.4998Z" fill="#4F4F4F"/>
<path d="M46.9999 70.4998C47.8651 70.4998 48.5665 69.7984 48.5665 68.9331C48.5665 68.0679 47.8651 67.3665 46.9999 67.3665C46.1346 67.3665 45.4332 68.0679 45.4332 68.9331C45.4332 69.7984 46.1346 70.4998 46.9999 70.4998Z" fill="#4F4F4F"/>
<path d="M42.2999 81.4674C43.1652 81.4674 43.8666 80.766 43.8666 79.9008C43.8666 79.0355 43.1652 78.3341 42.2999 78.3341C41.4347 78.3341 40.7333 79.0355 40.7333 79.9008C40.7333 80.766 41.4347 81.4674 42.2999 81.4674Z" fill="#4F4F4F"/>
<path d="M9.40016 73.6333C10.2654 73.6333 10.9668 72.9319 10.9668 72.0667C10.9668 71.2014 10.2654 70.5 9.40016 70.5C8.53492 70.5 7.8335 71.2014 7.8335 72.0667C7.8335 72.9319 8.53492 73.6333 9.40016 73.6333Z" fill="#4F4F4F"/>
<path d="M16.9297 61.0708C17.5513 61.1937 18.1857 60.9301 18.5372 60.4028C18.8886 59.8756 18.8879 59.1885 18.5353 58.6621C18.1826 58.1356 17.5476 57.8734 16.9262 57.9977C16.3049 58.122 15.8196 58.6083 15.6967 59.23C15.5288 60.0788 16.0808 60.9029 16.9297 61.0708Z" fill="#4F4F4F"/>
<path d="M31.3036 81.7704C31.4265 81.1488 31.1629 80.5143 30.6356 80.1628C30.1084 79.8114 29.4213 79.8122 28.8948 80.1648C28.3684 80.5174 28.1062 81.1524 28.2305 81.7738C28.3548 82.3951 28.8411 82.8804 29.4628 83.0033C30.3116 83.1712 31.1357 82.6192 31.3036 81.7704Z" fill="#4F4F4F"/>
<path d="M67.3368 73.9374C67.5045 73.0888 66.9527 72.2649 66.1041 72.0969C65.2556 71.9289 64.4315 72.4804 64.2632 73.3289C64.0948 74.1774 64.646 75.0017 65.4944 75.1703C65.9023 75.2514 66.3256 75.167 66.6712 74.9357C67.0168 74.7045 67.2562 74.3453 67.3368 73.9374Z" fill="#4F4F4F"/>
</g>
<defs>
<clipPath id="clip0_301:826">
<rect width="94" height="94" fill="white"/>
</clipPath>
</defs>
</svg>
