<svg width="90" height="90" viewBox="0 0 90 90" fill="none" xmlns="http://www.w3.org/2000/svg">
<path d="M19.6667 67.6668V81.3842C19.6729 81.8308 19.8084 82.2661 20.0567 82.6373C20.305 83.0086 20.6556 83.3 21.066 83.4763C21.4764 83.6526 21.9291 83.7062 22.3693 83.6307C22.8096 83.5552 23.2185 83.3538 23.5467 83.0508L40.24 67.6668H78.3334C79.7479 67.6668 81.1044 67.1049 82.1046 66.1047C83.1048 65.1045 83.6667 63.748 83.6667 62.3335V11.6668C83.6667 10.2523 83.1048 8.89579 82.1046 7.89559C81.1044 6.8954 79.7479 6.3335 78.3334 6.3335H11.6667C10.2522 6.3335 8.89567 6.8954 7.89547 7.89559C6.89528 8.89579 6.33337 10.2523 6.33337 11.6668V62.3335C6.33337 63.748 6.89528 65.1045 7.89547 66.1047C8.89567 67.1049 10.2522 67.6668 11.6667 67.6668H19.6667Z" fill="#EAECF3"/>
<path d="M20.032 82.6004C20.2156 82.8834 20.4586 83.1229 20.7442 83.3023C21.0298 83.4816 21.3511 83.5966 21.6857 83.6391C22.0203 83.6816 22.3601 83.6507 22.6815 83.5485C23.0029 83.4462 23.2981 83.2751 23.5466 83.0471L40.24 67.6671H36.24L20.032 82.6004Z" fill="#EAECF3"/>
<path d="M78.3333 6.3335H74.3333C75.7477 6.3335 77.1043 6.8954 78.1045 7.89559C79.1047 8.89579 79.6666 10.2523 79.6666 11.6668V62.3335C79.6666 63.748 79.1047 65.1045 78.1045 66.1047C77.1043 67.1049 75.7477 67.6668 74.3333 67.6668H78.3333C79.7477 67.6668 81.1043 67.1049 82.1045 66.1047C83.1047 65.1045 83.6666 63.748 83.6666 62.3335V11.6668C83.6666 10.2523 83.1047 8.89579 82.1045 7.89559C81.1043 6.8954 79.7477 6.3335 78.3333 6.3335Z" fill="#F8A23D"/>
<path d="M65 21V27.48C65.0007 27.9479 64.8778 28.4077 64.6437 28.8128C64.4095 29.2178 64.0725 29.5538 63.6667 29.7867C63.64 29.8 63.6 29.8267 63.5733 29.84C61.28 31.0134 56.1333 33 47.6667 33C47.6614 32.2944 47.3788 31.6192 46.8798 31.1202C46.3809 30.6212 45.7056 30.3386 45 30.3334C44.2934 30.3355 43.6164 30.6171 43.1167 31.1168C42.6171 31.6164 42.3354 32.2934 42.3333 33C33.8667 33 28.72 31.0134 26.4267 29.84C26.4 29.8267 26.36 29.8 26.3333 29.7867C25.9275 29.5538 25.5905 29.2178 25.3563 28.8128C25.1222 28.4077 24.9993 27.9479 25 27.48V21C25.0021 20.2934 25.2837 19.6164 25.7834 19.1168C26.283 18.6171 26.9601 18.3355 27.6667 18.3334H62.3333C63.0399 18.3355 63.717 18.6171 64.2166 19.1168C64.7163 19.6164 64.9979 20.2934 65 21Z" fill="#F8A23D"/>
<path d="M62.3332 18.3334H58.3332C59.0398 18.3355 59.7168 18.6171 60.2165 19.1168C60.7161 19.6164 60.9977 20.2934 60.9998 21V27.48C61.0006 27.9479 60.8776 28.4077 60.6435 28.8128C60.4093 29.2178 60.0723 29.5538 59.6665 29.7867C59.6398 29.8 59.5998 29.8267 59.5732 29.84C55.8309 31.6033 51.7816 32.6227 47.6505 32.8414C47.6505 32.8947 47.6665 32.9454 47.6665 33C56.1332 33 61.2798 31.0134 63.5732 29.84C63.5998 29.8267 63.6398 29.8 63.6665 29.7867C64.0723 29.5538 64.4093 29.2178 64.6435 28.8128C64.8776 28.4077 65.0006 27.9479 64.9998 27.48V21C64.9977 20.2934 64.7161 19.6164 64.2165 19.1168C63.7168 18.6171 63.0398 18.3355 62.3332 18.3334Z" fill="white"/>
<path d="M47.6666 32.9998V34.3331C47.6666 35.0404 47.3856 35.7186 46.8855 36.2187C46.3854 36.7188 45.7072 36.9998 44.9999 36.9998C44.2927 36.9998 43.6144 36.7188 43.1143 36.2187C42.6142 35.7186 42.3333 35.0404 42.3333 34.3331V32.9998C42.3354 32.2932 42.617 31.6161 43.1166 31.1165C43.6163 30.6169 44.2933 30.3352 44.9999 30.3331C45.7055 30.3384 46.3808 30.621 46.8798 31.12C47.3787 31.6189 47.6614 32.2942 47.6666 32.9998Z" fill="#EAECF3"/>
<path d="M63.6667 29.7867V43.6667C63.6646 44.3733 63.383 45.0504 62.8833 45.55C62.3837 46.0497 61.7066 46.3313 61 46.3334H29C28.2934 46.3313 27.6164 46.0497 27.1168 45.55C26.6171 45.0504 26.3355 44.3733 26.3334 43.6667V29.7867C26.36 29.8001 26.4 29.8267 26.4267 29.8401C28.72 31.0134 33.8667 33.0001 42.3334 33.0001V34.3334C42.3334 35.0407 42.6143 35.7189 43.1144 36.219C43.6145 36.7191 44.2928 37.0001 45 37.0001C45.7073 37.0001 46.3856 36.7191 46.8857 36.219C47.3858 35.7189 47.6667 35.0407 47.6667 34.3334V33.0001C56.1334 33.0001 61.28 31.0134 63.5734 29.8401C63.6 29.8267 63.64 29.8001 63.6667 29.7867Z" fill="white"/>
<path d="M63.5732 29.8401C62.3186 30.4678 61.0114 30.9845 59.6665 31.3841V43.6667C59.6644 44.3733 59.3828 45.0504 58.8832 45.55C58.3835 46.0497 57.7065 46.3313 56.9999 46.3334H60.9999C61.7065 46.3313 62.3835 46.0497 62.8832 45.55C63.3828 45.0504 63.6644 44.3733 63.6666 43.6667V29.7867C63.6399 29.8001 63.5999 29.8267 63.5732 29.8401Z" fill="white"/>
<path d="M11.6667 67.6668H15.6667C14.2522 67.6668 12.8957 67.1049 11.8955 66.1047C10.8953 65.1045 10.3334 63.748 10.3334 62.3335V11.6668C10.3334 10.2523 10.8953 8.89579 11.8955 7.89559C12.8957 6.8954 14.2522 6.3335 15.6667 6.3335H11.6667C10.2522 6.3335 8.89567 6.8954 7.89547 7.89559C6.89528 8.89579 6.33337 10.2523 6.33337 11.6668V62.3335C6.33337 63.748 6.89528 65.1045 7.89547 66.1047C8.89567 67.1049 10.2522 67.6668 11.6667 67.6668Z" fill="white"/>
<path d="M5 11.6666H7.66667V22.3333H5V11.6666Z" fill="white"/>
<path d="M6.33333 18.3334C7.06971 18.3334 7.66667 17.7365 7.66667 17.0001C7.66667 16.2637 7.06971 15.6667 6.33333 15.6667C5.59695 15.6667 5 16.2637 5 17.0001C5 17.7365 5.59695 18.3334 6.33333 18.3334Z" fill="#4F4F4F"/>
<path d="M78.3333 5H11.6667C9.89921 5.00212 8.20474 5.70518 6.95496 6.95496C5.70518 8.20474 5.00212 9.89921 5 11.6667C5 12.0203 5.14048 12.3594 5.39052 12.6095C5.64057 12.8595 5.97971 13 6.33333 13C6.68696 13 7.02609 12.8595 7.27614 12.6095C7.52619 12.3594 7.66667 12.0203 7.66667 11.6667C7.66667 10.6058 8.08809 9.58839 8.83824 8.83824C9.58839 8.08809 10.6058 7.66667 11.6667 7.66667H78.3333C79.3942 7.66667 80.4116 8.08809 81.1618 8.83824C81.9119 9.58839 82.3333 10.6058 82.3333 11.6667V62.3333C82.3333 63.3942 81.9119 64.4116 81.1618 65.1618C80.4116 65.9119 79.3942 66.3333 78.3333 66.3333H40.24C39.905 66.3334 39.5822 66.4595 39.336 66.6867L22.64 82.0733C22.4992 82.2043 22.3226 82.2906 22.1328 82.3212C21.9429 82.3518 21.7482 82.3254 21.5733 82.2453C21.4025 82.1757 21.2566 82.0563 21.1543 81.9028C21.0521 81.7492 20.9984 81.5685 21 81.384V67.6667C21 67.313 20.8595 66.9739 20.6095 66.7239C20.3594 66.4738 20.0203 66.3333 19.6667 66.3333H11.6667C10.6058 66.3333 9.58839 65.9119 8.83824 65.1618C8.08809 64.4116 7.66667 63.3942 7.66667 62.3333V22.3333C7.66667 21.9797 7.52619 21.6406 7.27614 21.3905C7.02609 21.1405 6.68696 21 6.33333 21C5.97971 21 5.64057 21.1405 5.39052 21.3905C5.14048 21.6406 5 21.9797 5 22.3333V62.3333C5.00212 64.1008 5.70518 65.7953 6.95496 67.045C8.20474 68.2948 9.89921 68.9979 11.6667 69H18.3333V81.384C18.3297 82.0883 18.5344 82.7779 18.9219 83.3661C19.3093 83.9543 19.8621 84.4147 20.5107 84.6893C20.9794 84.8945 21.4856 85.0003 21.9973 85C22.909 84.9986 23.786 84.6507 24.4507 84.0267L40.76 69H78.3333C80.1008 68.9979 81.7953 68.2948 83.045 67.045C84.2948 65.7953 84.9979 64.1008 85 62.3333V11.6667C84.9979 9.89921 84.2948 8.20474 83.045 6.95496C81.7953 5.70518 80.1008 5.00212 78.3333 5V5Z" fill="#4F4F4F"/>
<path d="M13.0001 52.9995C13.0001 53.3531 13.1406 53.6922 13.3906 53.9423C13.6407 54.1923 13.9798 54.3328 14.3335 54.3328H75.6668C76.0204 54.3328 76.3596 54.1923 76.6096 53.9423C76.8596 53.6922 77.0001 53.3531 77.0001 52.9995C77.0001 52.6458 76.8596 52.3067 76.6096 52.0567C76.3596 51.8066 76.0204 51.6661 75.6668 51.6661H14.3335C13.9798 51.6661 13.6407 51.8066 13.3906 52.0567C13.1406 52.3067 13.0001 52.6458 13.0001 52.9995Z" fill="#4F4F4F"/>
<path d="M14.3335 61.0005H62.3335C62.6871 61.0005 63.0262 60.86 63.2763 60.61C63.5263 60.3599 63.6668 60.0208 63.6668 59.6672C63.6668 59.3136 63.5263 58.9744 63.2763 58.7244C63.0262 58.4743 62.6871 58.3339 62.3335 58.3339H14.3335C13.9798 58.3339 13.6407 58.4743 13.3906 58.7244C13.1406 58.9744 13.0001 59.3136 13.0001 59.6672C13.0001 60.0208 13.1406 60.3599 13.3906 60.61C13.6407 60.86 13.9798 61.0005 14.3335 61.0005Z" fill="#4F4F4F"/>
<path d="M29 47.6665H61C62.0609 47.6665 63.0783 47.245 63.8284 46.4949C64.5786 45.7447 65 44.7273 65 43.6665V30.4665C65.4212 30.0921 65.7579 29.6324 65.9878 29.118C66.2177 28.6035 66.3355 28.046 66.3333 27.4825V20.9998C66.3333 19.9389 65.9119 18.9215 65.1618 18.1714C64.4116 17.4212 63.3942 16.9998 62.3334 16.9998H54.2C53.656 14.1598 51.3214 10.3331 45 10.3331C38.6787 10.3331 36.3493 14.1598 35.8 16.9998H27.6667C26.6058 16.9998 25.5884 17.4212 24.8383 18.1714C24.0881 18.9215 23.6667 19.9389 23.6667 20.9998V27.4771C23.6638 28.0415 23.7812 28.6001 24.0111 29.1155C24.241 29.631 24.5781 30.0915 25 30.4665V43.6665C25 44.7273 25.4214 45.7447 26.1716 46.4949C26.9217 47.245 27.9391 47.6665 29 47.6665ZM61 44.9998H29C28.6464 44.9998 28.3073 44.8593 28.0572 44.6093C27.8072 44.3592 27.6667 44.0201 27.6667 43.6665V31.8558C31.9302 33.4592 36.445 34.2913 41 34.3131V34.3331C41 35.394 41.4214 36.4114 42.1716 37.1616C42.9217 37.9117 43.9391 38.3331 45 38.3331C46.0609 38.3331 47.0783 37.9117 47.8284 37.1616C48.5786 36.4114 49 35.394 49 34.3331V34.3131C53.555 34.2913 58.0698 33.4592 62.3334 31.8558V43.6665C62.3334 44.0201 62.1929 44.3592 61.9428 44.6093C61.6928 44.8593 61.3536 44.9998 61 44.9998ZM43.6667 34.3331V32.9998C43.6667 32.6462 43.8072 32.307 44.0572 32.057C44.3073 31.8069 44.6464 31.6665 45 31.6665C45.3536 31.6665 45.6928 31.8069 45.9428 32.057C46.1929 32.307 46.3333 32.6462 46.3333 32.9998V34.3331C46.3333 34.6868 46.1929 35.0259 45.9428 35.2759C45.6928 35.526 45.3536 35.6665 45 35.6665C44.6464 35.6665 44.3073 35.526 44.0572 35.2759C43.8072 35.0259 43.6667 34.6868 43.6667 34.3331ZM45 12.9998C49.5453 12.9998 50.988 15.3998 51.448 16.9998H38.552C39.0133 15.3998 40.4587 12.9998 45 12.9998ZM26.3333 20.9998C26.3333 20.6462 26.4738 20.307 26.7239 20.057C26.9739 19.8069 27.3131 19.6665 27.6667 19.6665H62.3334C62.687 19.6665 63.0261 19.8069 63.2762 20.057C63.5262 20.307 63.6667 20.6462 63.6667 20.9998V27.4771C63.6707 27.7176 63.6078 27.9545 63.4852 28.1614C63.3625 28.3683 63.1849 28.5372 62.972 28.6491C58.5136 30.6957 53.6545 31.7211 48.7493 31.6505C48.475 30.8754 47.9671 30.2044 47.2957 29.7298C46.6242 29.2552 45.8222 29.0004 45 29.0004C44.1778 29.0004 43.3758 29.2552 42.7044 29.7298C42.0329 30.2044 41.5251 30.8754 41.2507 31.6505C36.3455 31.7211 31.4864 30.6957 27.028 28.6491C26.8151 28.5372 26.6375 28.3683 26.5149 28.1614C26.3922 27.9545 26.3294 27.7176 26.3333 27.4771V20.9998Z" fill="#4F4F4F"/>
</svg>
