<svg width="97" height="97" viewBox="0 0 97 97" fill="none" xmlns="http://www.w3.org/2000/svg">
<path d="M7.2749 79.0371V19.4909C7.2749 16.9612 9.32565 14.9104 11.8554 14.9104H85.1431C87.6728 14.9104 89.7235 16.9612 89.7235 19.4909V79.0371H7.2749Z" fill="url(#paint0_linear_301:1628)"/>
<path d="M85.1432 14.9104H80.5627C83.0925 14.9104 85.1432 16.9612 85.1432 19.4909V79.0371H89.7237V19.4909C89.7237 16.9612 87.6729 14.9104 85.1432 14.9104Z" fill="#F9A748"/>
<path d="M13.3821 11.8567H22.543V56.1347H13.3821V11.8567Z" fill="#EAECF3"/>
<path d="M13.3821 56.135H22.543V62.2423C22.543 63.0856 21.8595 63.7691 21.0162 63.7691H14.9089C14.0657 63.7691 13.3821 63.0856 13.3821 62.2423V56.135Z" fill="#EAECF3"/>
<path d="M83.6163 92.7786H13.3823C8.32281 92.7786 4.22131 88.6771 4.22131 83.6176V80.5639C4.22131 79.7207 4.9049 79.0371 5.74814 79.0371H91.2504C92.0936 79.0371 92.7772 79.7207 92.7772 80.5639V83.6176C92.7772 88.6771 88.6757 92.7786 83.6163 92.7786Z" fill="#EAECF3"/>
<path d="M91.2503 79.0371H86.6698C87.513 79.0371 88.1966 79.7207 88.1966 80.5639V83.6176C88.1966 88.6771 84.0951 92.7786 79.0356 92.7786H83.6161C88.6756 92.7786 92.7771 88.6771 92.7771 83.6176V80.5639C92.7771 79.7207 92.0935 79.0371 91.2503 79.0371Z" fill="white"/>
<path d="M33.2311 79.0371H63.7676V82.0908C63.7676 84.6205 61.7168 86.6712 59.1871 86.6712H37.8116C35.2818 86.6712 33.2311 84.6205 33.2311 82.0908V79.0371Z" fill="#F9A748"/>
<path d="M75.9821 5.74973V16.4375H28.6505V5.74973C28.6505 4.90648 29.3341 4.2229 30.1773 4.2229H74.4553C75.2985 4.2229 75.9821 4.90648 75.9821 5.74973Z" fill="#EAECF3"/>
<path d="M74.4554 4.2229H69.8749C70.7181 4.2229 71.4017 4.90648 71.4017 5.74973V16.4375H75.9822V5.74973C75.9822 4.90648 75.2986 4.2229 74.4554 4.2229Z" fill="#F9A748"/>
<path d="M28.6505 16.4375H75.9821V79.0374H28.6505V16.4375Z" fill="white"/>
<path d="M71.4016 16.4375H75.9821V79.0374H71.4016V16.4375Z" fill="#F9A748"/>
<path d="M22.543 11.857L19.3275 5.10845C19.0871 4.5698 18.5524 4.2229 17.9626 4.2229C17.3727 4.2229 16.838 4.5698 16.5976 5.10845L13.3821 11.857H22.543Z" fill="#EAECF3"/>
<path d="M67.0502 62.2419L57.0495 72.0441C56.4648 71.4742 56.1346 70.6926 56.1334 69.876V54.6078C56.1346 53.7913 56.4648 53.0097 57.0495 52.4397L67.0502 62.2419Z" fill="#EAECF3"/>
<path d="M83.6163 54.6078V69.876C83.6151 70.6926 83.2849 71.4742 82.7002 72.0441L72.6995 62.2419L82.7002 52.4397C83.2849 53.0097 83.6151 53.7913 83.6163 54.6078Z" fill="#EAECF3"/>
<path d="M82.7 52.4397L79.0356 56.0308V68.453L82.7 72.0441C83.2847 71.4742 83.615 70.6926 83.6161 69.876V54.6078C83.615 53.7913 83.2847 53.0097 82.7 52.4397Z" fill="white"/>
<path d="M82.7002 72.0447C82.1349 72.6139 81.365 72.9329 80.5627 72.9302H59.1871C58.3848 72.9329 57.6149 72.6139 57.0496 72.0447L67.0503 62.2424L67.7221 62.899C68.9228 64.0593 70.827 64.0593 72.0277 62.899L72.6995 62.2424L82.7002 72.0447Z" fill="#EAECF3"/>
<path d="M80.5626 24.0713H59.1871C57.5006 24.0713 56.1334 25.4385 56.1334 27.1249V42.3932C56.1334 44.0797 57.5006 45.4469 59.1871 45.4469H80.5626C82.2491 45.4469 83.6163 44.0797 83.6163 42.3932V27.1249C83.6163 25.4385 82.2491 24.0713 80.5626 24.0713Z" fill="#EAECF3"/>
<path d="M80.5625 24.0713H75.9821C77.6685 24.0713 79.0357 25.4385 79.0357 27.1249V42.3932C79.0357 44.0797 77.6685 45.4469 75.9821 45.4469H80.5625C82.249 45.4469 83.6162 44.0797 83.6162 42.3932V27.1249C83.6162 25.4385 82.249 24.0713 80.5625 24.0713Z" fill="white"/>
<path d="M82.7002 52.4398L72.6995 62.242L72.0277 62.8985C70.827 64.0589 68.9228 64.0589 67.7221 62.8985L67.0503 62.242L57.0496 52.4398C57.6149 51.8705 58.3848 51.5516 59.1871 51.5542H80.5627C81.365 51.5516 82.1349 51.8705 82.7002 52.4398Z" fill="#EAECF3"/>
<path d="M65.2943 36.2868C66.9807 36.2868 68.3479 34.9196 68.3479 33.2331C68.3479 31.5466 66.9807 30.1794 65.2943 30.1794C63.6078 30.1794 62.2406 31.5466 62.2406 33.2331C62.2406 34.9196 63.6078 36.2868 65.2943 36.2868Z" fill="#EAECF3"/>
<path d="M37.8115 16.4369C39.498 16.4369 40.8651 15.0697 40.8651 13.3832C40.8651 11.6968 39.498 10.3296 37.8115 10.3296C36.125 10.3296 34.7578 11.6968 34.7578 13.3832C34.7578 15.0697 36.125 16.4369 37.8115 16.4369Z" fill="#EAECF3"/>
<path d="M56.1333 27.125H37.8114C36.9681 27.125 36.2845 27.8086 36.2845 28.6518V31.7055C36.2845 32.5487 36.9681 33.2323 37.8114 33.2323H56.1333V27.125Z" fill="#F9A748"/>
<path d="M13.3823 14.9104H11.8554C9.32572 14.9104 7.27497 16.9612 7.27497 19.4909V79.0371H5.74814C4.9049 79.0371 4.22131 79.7207 4.22131 80.5639V83.6176C4.22131 88.677 8.32281 92.7785 13.3823 92.7785H17.9627C12.9033 92.7785 8.80179 88.677 8.80179 83.6176V80.5639C8.80179 79.7207 9.48538 79.0371 10.3286 79.0371H11.8554V19.4909C11.8542 18.2759 12.3372 17.1104 13.1975 16.2525L13.3823 14.9104Z" fill="white"/>
<path d="M5.74817 66.8225H8.80182V79.0371H5.74817V66.8225Z" fill="white"/>
<path d="M7.30548 74.4562C6.46223 74.4605 5.77523 73.7803 5.77102 72.9371C5.7668 72.0938 6.44696 71.4068 7.29021 71.4026H7.30548C8.14872 71.4026 8.8323 72.0862 8.8323 72.9294C8.8323 73.7727 8.14872 74.4562 7.30548 74.4562Z" fill="#4F4F4F"/>
<path d="M91.2504 77.5104V19.491C91.2504 16.118 88.516 13.3837 85.1431 13.3837H77.5089V5.74952C77.5089 4.06304 76.1418 2.69587 74.4553 2.69587H30.1773C28.4908 2.69587 27.1237 4.06304 27.1237 5.74952V13.3837H24.07V11.8568C24.07 11.8446 24.07 11.8355 24.07 11.8248C24.0592 11.7244 24.0392 11.6253 24.0105 11.5286C23.9953 11.4276 23.9702 11.3284 23.9357 11.2324C23.9357 11.2217 23.9357 11.211 23.9357 11.2003L20.711 4.45019C20.2172 3.37983 19.1461 2.69434 17.9673 2.69434C16.7885 2.69434 15.7174 3.37983 15.2236 4.45019L12.0081 11.2003C12.0081 11.211 12.0081 11.2217 12.0005 11.2324C11.9659 11.3284 11.9408 11.4276 11.9256 11.5286C11.8933 11.6249 11.8698 11.7241 11.8554 11.8248V11.8568V13.3837C8.48244 13.3837 5.74811 16.118 5.74811 19.491V66.8226C5.74811 67.6658 6.43169 68.3494 7.27494 68.3494C8.11818 68.3494 8.80176 67.6658 8.80176 66.8226V19.491C8.80176 17.8045 10.1689 16.4373 11.8554 16.4373V62.2421C11.8554 63.9286 13.2226 65.2957 14.9091 65.2957H21.0164C22.7029 65.2957 24.07 63.9286 24.07 62.2421V16.4373H27.1237V77.5104H5.74811C4.06162 77.5104 2.69446 78.8775 2.69446 80.564V83.6177C2.70119 89.5176 7.48233 94.2987 13.3822 94.3055H83.6162C89.5162 94.2987 94.2973 89.5176 94.304 83.6177V80.564C94.304 78.8775 92.9369 77.5104 91.2504 77.5104ZM17.9505 5.76479L20.1247 10.33H15.7916L17.9505 5.76479ZM14.9091 13.3837H21.0164V54.608H14.9091V13.3837ZM14.9091 62.2421V57.6616H21.0164V62.2421H14.9091ZM77.5089 16.4373H85.1431C86.8296 16.4373 88.1967 17.8045 88.1967 19.491V77.5104H77.5089V74.4567H80.5626C83.0923 74.4567 85.1431 72.406 85.1431 69.8762V54.608C85.1431 52.0782 83.0923 50.0275 80.5626 50.0275H77.5089V46.9738H80.5626C83.0923 46.9738 85.1431 44.9231 85.1431 42.3934V27.1251C85.1431 24.5954 83.0923 22.5446 80.5626 22.5446H77.5089V16.4373ZM70.9619 61.8054C70.3557 62.39 69.3955 62.39 68.7892 61.8054L59.8848 53.0811H79.8648L70.9619 61.8054ZM82.0894 55.1759V69.3083L74.8797 62.2421L82.0894 55.1759ZM64.8699 62.2421L57.6602 69.3083V55.1759L64.8699 62.2421ZM67.0929 64.34C68.7312 65.6084 71.0199 65.6084 72.6582 64.34L79.8648 71.4031H59.8848L67.0929 64.34ZM80.5626 25.5983C81.4058 25.5983 82.0894 26.2818 82.0894 27.1251V42.3934C82.0894 43.2366 81.4058 43.9202 80.5626 43.9202H59.187C58.3438 43.9202 57.6602 43.2366 57.6602 42.3934V27.1251C57.6602 26.2818 58.3438 25.5983 59.187 25.5983H80.5626ZM30.1773 5.74952H74.4553V14.9105H42.111C42.2918 14.4215 42.3869 13.905 42.3919 13.3837C42.3919 10.8539 40.3412 8.80318 37.8115 8.80318C35.2817 8.80318 33.231 10.8539 33.231 13.3837C33.236 13.905 33.3311 14.4215 33.5119 14.9105H30.1773V5.74952ZM39.3383 13.3837C39.3383 14.2269 38.6547 14.9105 37.8115 14.9105C36.9682 14.9105 36.2846 14.2269 36.2846 13.3837C36.2846 12.5404 36.9682 11.8568 37.8115 11.8568C38.6547 11.8568 39.3383 12.5404 39.3383 13.3837ZM30.1773 17.9641H74.4553V22.5446H59.187C57.2529 22.5526 55.5322 23.7747 54.8875 25.5983H37.8115C36.125 25.5983 34.7578 26.9654 34.7578 28.6519V31.7056C34.7578 33.3921 36.125 34.7592 37.8115 34.7592H54.6065V42.3934C54.6065 44.9231 56.6573 46.9738 59.187 46.9738H74.4553V50.0275H59.187C56.6573 50.0275 54.6065 52.0782 54.6065 54.608V69.8762C54.6065 72.406 56.6573 74.4567 59.187 74.4567H74.4553V77.5104H30.1773V17.9641ZM54.6065 28.6519V31.7056H37.8115V28.6519H54.6065ZM62.2407 80.564V82.0908C62.2407 83.7773 60.8735 85.1445 59.187 85.1445H37.8115C36.125 85.1445 34.7578 83.7773 34.7578 82.0908V80.564H62.2407ZM91.2504 83.6177C91.2453 87.8318 87.8304 91.2467 83.6162 91.2518H13.3822C9.16812 91.2467 5.75316 87.8318 5.74811 83.6177V80.564H31.7042V82.0908C31.7042 85.4638 34.4385 88.1981 37.8115 88.1981H59.187C62.56 88.1981 65.2943 85.4638 65.2943 82.0908V80.564H91.2504V83.6177Z" fill="#4F4F4F"/>
<path d="M27.1237 83.6172H22.5432C21.6999 83.6172 21.0164 84.3008 21.0164 85.144C21.0164 85.9872 21.6999 86.6708 22.5432 86.6708H27.1237C27.9669 86.6708 28.6505 85.9872 28.6505 85.144C28.6505 84.3008 27.9669 83.6172 27.1237 83.6172Z" fill="#4F4F4F"/>
<path d="M10.3286 86.6708C11.1718 86.6708 11.8554 85.9872 11.8554 85.144C11.8554 84.3008 11.1718 83.6172 10.3286 83.6172C9.48534 83.6172 8.80176 84.3008 8.80176 85.144C8.80176 85.9872 9.48534 86.6708 10.3286 86.6708Z" fill="#4F4F4F"/>
<path d="M16.4359 86.6708C17.2791 86.6708 17.9627 85.9872 17.9627 85.144C17.9627 84.3008 17.2791 83.6172 16.4359 83.6172C15.5926 83.6172 14.9091 84.3008 14.9091 85.144C14.9091 85.9872 15.5926 86.6708 16.4359 86.6708Z" fill="#4F4F4F"/>
<path d="M65.2942 37.813C67.8239 37.813 69.8747 35.7623 69.8747 33.2326C69.8747 30.7028 67.8239 28.6521 65.2942 28.6521C62.7645 28.6521 60.7137 30.7028 60.7137 33.2326C60.7137 35.7623 62.7645 37.813 65.2942 37.813ZM65.2942 31.7057C66.1375 31.7057 66.821 32.3893 66.821 33.2326C66.821 34.0758 66.1375 34.7594 65.2942 34.7594C64.451 34.7594 63.7674 34.0758 63.7674 33.2326C63.7674 32.3893 64.451 31.7057 65.2942 31.7057Z" fill="#4F4F4F"/>
<path d="M72.9284 40.8662H77.5089C78.3522 40.8662 79.0358 40.1826 79.0358 39.3393C79.0358 38.4961 78.3522 37.8125 77.5089 37.8125H72.9284C72.0852 37.8125 71.4016 38.4961 71.4016 39.3393C71.4016 40.1826 72.0852 40.8662 72.9284 40.8662Z" fill="#4F4F4F"/>
<path d="M48.4994 11.8566H53.0798C53.9231 11.8566 54.6067 11.173 54.6067 10.3298C54.6067 9.48656 53.9231 8.80298 53.0798 8.80298H48.4994C47.6561 8.80298 46.9725 9.48656 46.9725 10.3298C46.9725 11.173 47.6561 11.8566 48.4994 11.8566Z" fill="#4F4F4F"/>
<path d="M39.3384 40.8662H50.0261C50.8694 40.8662 51.553 40.1826 51.553 39.3393C51.553 38.4961 50.8694 37.8125 50.0261 37.8125H39.3384C38.4951 37.8125 37.8115 38.4961 37.8115 39.3393C37.8115 40.1826 38.4951 40.8662 39.3384 40.8662Z" fill="#4F4F4F"/>
<path d="M39.3384 46.9741H50.0261C50.8694 46.9741 51.553 46.2905 51.553 45.4472C51.553 44.604 50.8694 43.9204 50.0261 43.9204H39.3384C38.4951 43.9204 37.8115 44.604 37.8115 45.4472C37.8115 46.2905 38.4951 46.9741 39.3384 46.9741Z" fill="#4F4F4F"/>
<path d="M39.3384 53.0815H50.0261C50.8694 53.0815 51.553 52.3979 51.553 51.5546C51.553 50.7114 50.8694 50.0278 50.0261 50.0278H39.3384C38.4951 50.0278 37.8115 50.7114 37.8115 51.5546C37.8115 52.3979 38.4951 53.0815 39.3384 53.0815Z" fill="#4F4F4F"/>
<path d="M39.3384 59.1886H50.0261C50.8694 59.1886 51.553 58.5051 51.553 57.6618C51.553 56.8186 50.8694 56.135 50.0261 56.135H39.3384C38.4951 56.135 37.8115 56.8186 37.8115 57.6618C37.8115 58.5051 38.4951 59.1886 39.3384 59.1886Z" fill="#4F4F4F"/>
<defs>
<linearGradient id="paint0_linear_301:1628" x1="12.5261" y1="12.3421" x2="63.6641" y2="96.8756" gradientUnits="userSpaceOnUse">
<stop stop-color="#D3DFF2"/>
<stop offset="0.172" stop-color="#D3DFF2"/>
<stop offset="0.2" stop-color="#DAE2F2"/>
<stop offset="0.201" stop-color="#F6EFF2"/>
<stop offset="0.202" stop-color="#FDF2F2"/>
<stop offset="0.205" stop-color="#FFF3F2"/>
<stop offset="0.252" stop-color="#FFF3F2"/>
<stop offset="0.26" stop-color="#D3DFF2"/>
<stop offset="0.397" stop-color="#D3DFF2"/>
<stop offset="0.42" stop-color="#DAE2F2"/>
<stop offset="0.421" stop-color="#F6EFF2"/>
<stop offset="0.422" stop-color="#FDF2F2"/>
<stop offset="0.425" stop-color="#FFF3F2"/>
<stop offset="0.489" stop-color="#FFF3F2"/>
<stop offset="0.5" stop-color="#D5E0F2"/>
<stop offset="0.501" stop-color="#D3DFF2"/>
<stop offset="0.706" stop-color="#D3DFF2"/>
<stop offset="0.74" stop-color="#D3DFF2"/>
<stop offset="0.741" stop-color="#FFF3F2"/>
<stop offset="0.835" stop-color="#FFF3F2"/>
<stop offset="0.85" stop-color="#FFF3F2"/>
<stop offset="0.851" stop-color="#D3DFF2"/>
</linearGradient>
</defs>
</svg>
