<svg width="94" height="94" viewBox="0 0 94 94" fill="none" xmlns="http://www.w3.org/2000/svg">
<path d="M47.0003 74.8708C62.393 74.8708 74.8713 62.3926 74.8713 46.9999C74.8713 31.6072 62.393 19.1289 47.0003 19.1289C31.6076 19.1289 19.1293 31.6072 19.1293 46.9999C19.1293 62.3926 31.6076 74.8708 47.0003 74.8708Z" fill="#EAECF3"/>
<path d="M47 19.1289C46.2165 19.1289 45.4516 19.1831 44.6774 19.2466C59.1197 20.4391 70.2335 32.5085 70.2335 46.9999C70.2335 61.4913 59.1197 73.5606 44.6774 74.7532C45.4516 74.8166 46.2165 74.8708 47 74.8708C62.3927 74.8708 74.871 62.3926 74.871 46.9999C74.871 31.6072 62.3927 19.1289 47 19.1289Z" fill="#F8A13C"/>
<path d="M59.3871 47.0003C59.382 48.7085 57.9985 50.0919 56.2904 50.097C56.0774 53.6053 53.5935 56.5609 50.1742 57.3745C43.9249 59.2325 37.7097 55.3244 37.7097 50.097C35.9994 50.097 34.6129 48.7106 34.6129 47.0003C34.6129 45.29 35.9994 43.9035 37.7097 43.9035C33.7458 41.7667 33.0645 36.4093 33.0645 32.9874C33.0596 31.9779 33.1216 30.9692 33.2504 29.968C33.2504 29.968 36.4091 33.0648 44.4762 33.0648C50.8091 33.0648 56.1355 31.5629 57.8233 37.71C58.2925 39.8979 57.7333 42.1803 56.3058 43.9035C58.0101 43.912 59.3871 45.296 59.3871 47.0003Z" fill="#EAECF3"/>
<path d="M56.3058 43.9033C57.7333 42.18 58.2925 39.8977 57.8232 37.7097C56.4095 32.5629 52.4426 32.7781 47.4723 32.9841C50.2637 32.9806 52.6615 34.9665 53.1781 37.7097C53.6473 39.8977 53.0881 42.18 51.6606 43.9033C53.3709 43.9076 54.7539 45.2975 54.7497 47.0078C54.7454 48.7181 53.3555 50.1011 51.6452 50.0968C51.4323 53.6051 48.9483 56.5607 45.529 57.3742C45.255 57.4563 44.9623 57.5028 44.6774 57.5631C45.4396 57.7377 46.2182 57.8301 47 57.8388C51.9843 57.8388 56.2903 54.4772 56.2903 50.0968C58.0006 50.1011 59.3906 48.7181 59.3948 47.0078C59.3991 45.2975 58.0161 43.9076 56.3058 43.9033Z" fill="#F8A13C"/>
<path d="M53.1934 64.0323C52.2593 66.6505 49.7797 68.3984 46.9999 68.3984C44.2201 68.3984 41.7405 66.6505 40.8063 64.0323C42.5022 62.1952 43.561 59.8604 43.8257 57.3743C45.8965 57.9936 48.1033 57.9936 50.1741 57.3743C50.4388 59.8604 51.4975 62.1952 53.1934 64.0323Z" fill="#EAECF3"/>
<path d="M14.4838 26.8711C21.325 26.8711 26.8709 21.3252 26.8709 14.484C26.8709 7.64282 21.325 2.09692 14.4838 2.09692C7.64257 2.09692 2.09668 7.64282 2.09668 14.484C2.09668 21.3252 7.64257 26.8711 14.4838 26.8711Z" fill="#F8A13C"/>
<path d="M14.4841 17.5806C17.0495 17.5806 19.1293 15.5009 19.1293 12.9354C19.1293 10.37 17.0495 8.29028 14.4841 8.29028C11.9186 8.29028 9.83893 10.37 9.83893 12.9354C9.83893 15.5009 11.9186 17.5806 14.4841 17.5806Z" fill="#EAECF3"/>
<path d="M79.5164 26.8711C86.3576 26.8711 91.9035 21.3252 91.9035 14.484C91.9035 7.64282 86.3576 2.09692 79.5164 2.09692C72.6752 2.09692 67.1293 7.64282 67.1293 14.484C67.1293 21.3252 72.6752 26.8711 79.5164 26.8711Z" fill="#F8A13C"/>
<path d="M79.5163 2.09671C78.7368 2.09881 77.9592 2.17398 77.1937 2.32122C83.0221 3.44626 87.2331 8.54783 87.2331 14.4838C87.2331 20.4198 83.0221 25.5213 77.1937 26.6464C81.8193 27.5392 86.551 25.7309 89.4022 21.9807C92.2533 18.2305 92.7304 13.1875 90.6332 8.96915C88.5359 4.75077 84.2273 2.08719 79.5163 2.09671Z" fill="white"/>
<path d="M79.5162 17.5806C82.0817 17.5806 84.1614 15.5009 84.1614 12.9354C84.1614 10.37 82.0817 8.29028 79.5162 8.29028C76.9508 8.29028 74.8711 10.37 74.8711 12.9354C74.8711 15.5009 76.9508 17.5806 79.5162 17.5806Z" fill="#EAECF3"/>
<path d="M14.4838 91.9036C21.325 91.9036 26.8709 86.3577 26.8709 79.5165C26.8709 72.6753 21.325 67.1294 14.4838 67.1294C7.64257 67.1294 2.09668 72.6753 2.09668 79.5165C2.09668 86.3577 7.64257 91.9036 14.4838 91.9036Z" fill="#F8A13C"/>
<path d="M14.4841 82.6133C17.0495 82.6133 19.1293 80.5336 19.1293 77.9682C19.1293 75.4027 17.0495 73.323 14.4841 73.323C11.9186 73.323 9.83893 75.4027 9.83893 77.9682C9.83893 80.5336 11.9186 82.6133 14.4841 82.6133Z" fill="#EAECF3"/>
<path d="M79.5164 91.9036C86.3576 91.9036 91.9035 86.3577 91.9035 79.5165C91.9035 72.6753 86.3576 67.1294 79.5164 67.1294C72.6752 67.1294 67.1293 72.6753 67.1293 79.5165C67.1293 86.3577 72.6752 91.9036 79.5164 91.9036Z" fill="#F8A13C"/>
<path d="M79.5163 67.1294C78.7368 67.1315 77.9592 67.2067 77.1937 67.3539C83.0221 68.479 87.2331 73.5805 87.2331 79.5165C87.2331 85.4525 83.0221 90.5541 77.1937 91.6791C81.8193 92.5719 86.551 90.7636 89.4022 87.0134C92.2533 83.2632 92.7304 78.2203 90.6332 74.0019C88.5359 69.7835 84.2273 67.1199 79.5163 67.1294V67.1294Z" fill="white"/>
<path d="M79.5162 82.6133C82.0817 82.6133 84.1614 80.5336 84.1614 77.9682C84.1614 75.4027 82.0817 73.323 79.5162 73.323C76.9508 73.323 74.8711 75.4027 74.8711 77.9682C74.8711 80.5336 76.9508 82.6133 79.5162 82.6133Z" fill="#EAECF3"/>
<path d="M20.6775 23.7744V25.1989C16.8495 27.4287 12.1184 27.4287 8.29041 25.1989V23.7744C8.29041 20.3538 11.0634 17.5808 14.484 17.5808C17.9046 17.5808 20.6775 20.3538 20.6775 23.7744Z" fill="#EAECF3"/>
<path d="M85.7097 23.7744V25.1989C81.8817 27.4287 77.1506 27.4287 73.3226 25.1989V23.7744C73.3226 20.3538 76.0955 17.5808 79.5161 17.5808C82.9367 17.5808 85.7097 20.3538 85.7097 23.7744Z" fill="#EAECF3"/>
<path d="M83.8982 19.3925C82.1386 17.6344 79.4959 17.1034 77.1937 18.0454C77.9638 18.356 78.6652 18.8153 79.2577 19.3971C80.4125 20.5617 81.0618 22.1344 81.0647 23.7744V25.1989C79.8662 25.8941 78.5566 26.377 77.1937 26.6266C77.9584 26.7813 78.7361 26.8632 79.5163 26.8712C81.6933 26.8784 83.8323 26.3009 85.7099 25.1989V23.7744C85.7069 22.1321 85.0559 20.5574 83.8982 19.3925Z" fill="#F8A13C"/>
<path d="M20.6775 88.8063V90.2309C16.8495 92.4607 12.1184 92.4607 8.29041 90.2309V88.8063C8.29041 85.3857 11.0634 82.6128 14.484 82.6128C17.9046 82.6128 20.6775 85.3857 20.6775 88.8063Z" fill="#EAECF3"/>
<path d="M85.7097 88.8063V90.2309C81.8817 92.4607 77.1506 92.4607 73.3226 90.2309V88.8063C73.3226 85.3857 76.0955 82.6128 79.5161 82.6128C82.9367 82.6128 85.7097 85.3857 85.7097 88.8063Z" fill="#EAECF3"/>
<path d="M83.8982 84.424C82.1386 82.6659 79.4959 82.1349 77.1937 83.0769C77.9638 83.3875 78.6652 83.8468 79.2577 84.4286C80.4125 85.5931 81.0618 87.1659 81.0647 88.8059V90.2304C79.8662 90.9256 78.5566 91.4085 77.1937 91.6581C77.9584 91.8128 78.7361 91.8947 79.5163 91.9027C81.6933 91.9099 83.8323 91.3324 85.7099 90.2304V88.8059C85.7069 87.1636 85.0559 85.5889 83.8982 84.424Z" fill="#F8A13C"/>
<path d="M60.905 71.1548C52.2974 76.1097 41.7035 76.1097 33.0959 71.1548C33.4186 67.1345 36.7737 64.0354 40.8069 64.0322C41.7411 66.6504 44.2206 68.3983 47.0005 68.3983C49.7803 68.3983 52.2598 66.6504 53.194 64.0322C57.2272 64.0354 60.5823 67.1345 60.905 71.1548V71.1548Z" fill="#EAECF3"/>
<path d="M53.1936 64.0322C53.0334 64.4364 52.8348 64.8242 52.6005 65.1904C54.7015 66.4813 56.0607 68.6969 56.2594 71.1548C52.7112 73.1951 48.7566 74.4275 44.6774 74.7641C45.4516 74.8276 46.2165 74.8709 47 74.8709C51.8807 74.8741 56.6762 73.5924 60.9045 71.1548C60.5819 67.1345 57.2268 64.0354 53.1936 64.0322Z" fill="#F8A13C"/>
<path d="M56.8323 43.1603C56.4142 41.2558 52.28 39.8932 49.2916 42.2932C44.6774 46.0248 40.8684 45.8545 37.7097 43.9035C33.7458 41.7667 33.0645 36.4093 33.0645 32.9874C33.0596 31.9779 33.1216 30.9692 33.2504 29.968C33.2504 29.968 36.4091 33.0648 44.4762 33.0648C50.809 33.0648 56.1355 31.5629 57.8232 37.71C58.264 39.5855 57.905 41.5599 56.8323 43.1603Z" fill="#EAECF3"/>
<path d="M57.8235 37.7098C56.4098 32.5629 52.4428 32.7781 47.4725 32.9841C50.2639 32.9806 52.6617 34.9665 53.1783 37.7098C53.4655 38.7964 53.4516 39.9408 53.138 41.0202C54.9961 41.0852 56.5832 42.022 56.8325 43.1601C57.9052 41.5597 58.2642 39.5853 57.8235 37.7098Z" fill="#F8A13C"/>
<path d="M16.7589 26.6384C10.9421 25.4939 6.75166 20.3883 6.76336 14.46C6.77507 8.5316 10.9856 3.44263 16.8069 2.32102C11.9163 1.38179 6.93915 3.46529 4.17611 7.60843C1.41307 11.7516 1.40242 17.1472 4.14908 21.3012C6.89574 25.4552 11.8646 27.5584 16.7589 26.6384Z" fill="white"/>
<path d="M16.7585 91.6703C10.951 90.5177 6.77112 85.4165 6.78281 79.4957C6.7945 73.5749 10.9945 68.4902 16.8065 67.3606C11.9126 66.4122 6.92743 68.4926 4.1593 72.6383C1.39118 76.7841 1.38052 82.1859 4.13225 86.3426C6.88398 90.4993 11.8609 92.5993 16.7585 91.6703V91.6703Z" fill="white"/>
<path d="M19.1293 46.9995C19.131 56.9644 24.4587 66.1683 33.0989 71.1327V71.1544C38.0161 73.973 43.6753 75.2266 49.3229 74.7482C45.2447 74.4178 41.2898 73.1906 37.7409 71.1544V71.1327C27.1957 65.0782 21.8006 52.8797 24.4159 41.0045C27.0313 29.1294 37.0519 20.326 49.1649 19.2617C47.6711 19.1357 46.1695 19.1289 44.6746 19.2416C30.2373 20.4446 19.1316 32.5122 19.1293 46.9995V46.9995Z" fill="white"/>
<path d="M6.962 2.76367L8.63581 5.36806C7.11146 6.35384 5.85327 7.69978 4.97233 9.28702C4.11695 10.8866 3.66165 12.6696 3.64536 14.4834H0.548584C0.564346 12.1499 1.14898 9.85551 2.25181 7.79903C3.38285 5.758 5.00091 4.02824 6.962 2.76367V2.76367Z" fill="white"/>
<path d="M3.63281 10.0587C2.77766 10.063 2.08096 9.37319 2.07668 8.51804C2.0724 7.66289 2.76217 6.96619 3.61733 6.96191H3.63281C4.48796 6.96191 5.1812 7.65515 5.1812 8.5103C5.1812 9.36545 4.48796 10.0587 3.63281 10.0587Z" fill="#4F4F4F"/>
<path d="M79.5163 28.4194C86.0393 28.4359 91.7057 23.9364 93.1675 17.5791C94.6293 11.2219 91.4973 4.69927 85.6222 1.86497C79.747 -0.96933 72.6924 0.639173 68.6266 5.74012C64.5607 10.8411 64.5658 18.0767 68.6388 23.1719L66.6461 25.1678C55.5005 15.0559 38.4998 15.0559 27.3542 25.1678L25.3614 23.175C28.713 18.996 29.3688 13.2644 27.0478 8.4364C24.7268 3.60837 19.841 0.54086 14.484 0.548417C11.8172 0.558318 9.20827 1.32682 6.96194 2.76416C6.58669 2.98015 6.32482 3.3496 6.2453 3.7752C6.16578 4.20081 6.27658 4.63989 6.54852 4.9768C7.05536 5.59937 7.93766 5.76497 8.63575 5.36854C10.383 4.25266 12.4108 3.65509 14.484 3.64519C18.8928 3.63526 22.8675 6.29907 24.5342 10.3807C26.2009 14.4624 25.2267 19.1469 22.0711 22.2258C21.7642 20.7388 21.0303 19.3737 19.9591 18.2976C19.6067 17.9531 19.2232 17.6421 18.8133 17.3685C20.617 15.6098 21.1757 12.9337 20.2264 10.6001C19.277 8.26655 17.0087 6.74057 14.4894 6.74057C11.9701 6.74057 9.70187 8.26655 8.75249 10.6001C7.8031 12.9337 8.3618 15.6098 10.1656 17.3685C8.49005 18.502 7.32333 20.2448 6.91394 22.2258C4.82403 20.1922 3.64514 17.4 3.6453 14.4839C3.6453 13.9307 3.35017 13.4195 2.8711 13.143C2.39203 12.8664 1.80179 12.8664 1.32271 13.143C0.843642 13.4195 0.548521 13.9307 0.548521 14.4839C0.541923 19.8397 3.60898 24.7242 8.43584 27.0449C13.2627 29.3657 18.993 28.711 23.172 25.3613L25.1679 27.3541C15.056 38.4997 15.056 55.5004 25.1679 66.646L23.1751 68.6387C17.3833 64.0089 8.9836 64.7101 4.03956 70.236C-0.904487 75.762 -0.670531 84.1876 4.57254 89.4307C9.8156 94.6738 18.2413 94.9077 23.7672 89.9637C29.2932 85.0196 29.9943 76.6199 25.3645 70.8281L27.3542 68.8323C28.8428 70.1754 30.4646 71.3629 32.1945 72.3765C32.2859 72.4491 32.3857 72.5104 32.4917 72.5592C41.4804 77.7021 52.5199 77.7021 61.5085 72.5592C61.6146 72.5104 61.7144 72.4491 61.8058 72.3765C63.5356 71.3629 65.1575 70.1754 66.6461 68.8323L68.6388 70.8251C64.009 76.6168 64.7102 85.0165 70.2361 89.9606C75.7621 94.9046 84.1877 94.6707 89.4308 89.4276C94.6739 84.1845 94.9078 75.7589 89.9638 70.2329C85.0197 64.707 76.62 64.0058 70.8283 68.6356L68.8324 66.646C78.9442 55.5004 78.9442 38.4997 68.8324 27.3541L70.8252 25.3613C73.2885 27.3423 76.3552 28.4213 79.5163 28.4194V28.4194ZM14.484 9.83874C16.1943 9.83874 17.5808 11.2252 17.5808 12.9355C17.5808 14.6458 16.1943 16.0323 14.484 16.0323C12.7737 16.0323 11.3872 14.6458 11.3872 12.9355C11.3872 11.2252 12.7737 9.83874 14.484 9.83874ZM19.1292 24.262C16.1938 25.6761 12.7742 25.6761 9.83884 24.262V23.7742C9.83884 22.1147 10.7242 20.5812 12.1614 19.7514C13.5986 18.9216 15.3694 18.9216 16.8066 19.7514C18.2438 20.5812 19.1292 22.1147 19.1292 23.7742V24.262ZM84.1614 24.262C81.2261 25.6761 77.8064 25.6761 74.8711 24.262V23.7742C74.8711 21.2088 76.9508 19.1291 79.5163 19.1291C82.0817 19.1291 84.1614 21.2088 84.1614 23.7742V24.262ZM76.4195 12.9355C76.4195 11.2252 77.806 9.83874 79.5163 9.83874C81.2266 9.83874 82.613 11.2252 82.613 12.9355C82.613 14.6458 81.2266 16.0323 79.5163 16.0323C77.806 16.0323 76.4195 14.6458 76.4195 12.9355ZM19.1292 89.2942C16.1938 90.7084 12.7742 90.7084 9.83884 89.2942V88.8065C9.83884 87.1469 10.7242 85.6134 12.1614 84.7836C13.5986 83.9539 15.3694 83.9539 16.8066 84.7836C18.2438 85.6134 19.1292 87.1469 19.1292 88.8065V89.2942ZM11.3872 77.9678C11.3872 76.2575 12.7737 74.871 14.484 74.871C16.1943 74.871 17.5808 76.2575 17.5808 77.9678C17.5808 79.6781 16.1943 81.0645 14.484 81.0645C12.7737 81.0645 11.3872 79.6781 11.3872 77.9678ZM22.0711 87.2581C21.7642 85.7711 21.0303 84.4059 19.9591 83.3298C19.6067 82.9854 19.2232 82.6743 18.8133 82.4008C20.617 80.642 21.1757 77.9659 20.2264 75.6324C19.277 73.2988 17.0087 71.7728 14.4894 71.7728C11.9701 71.7728 9.70187 73.2988 8.75249 75.6324C7.8031 77.9659 8.3618 80.642 10.1656 82.4008C8.49005 83.5342 7.32333 85.2771 6.91394 87.2581C3.76421 84.1775 2.7926 79.4969 4.45599 75.4172C6.11938 71.3375 10.0868 68.6706 14.4925 68.6706C18.8983 68.6706 22.8657 71.3375 24.529 75.4172C26.1924 79.4969 25.2208 84.1775 22.0711 87.2581V87.2581ZM47.0001 73.3226C42.752 73.3234 38.5677 72.2887 34.8097 70.3079C35.4084 67.8811 37.4072 66.052 39.8775 65.6705C41.2728 68.3068 44.0112 69.9557 46.9939 69.9557C49.9767 69.9557 52.7151 68.3068 54.1103 65.6705C56.583 66.0497 58.5848 67.8792 59.1844 70.3079C55.4282 72.2877 51.2461 73.3224 47.0001 73.3226ZM38.4453 42.5407C35.0497 40.7074 34.5743 35.6999 34.6192 32.6527C37.7151 34.0409 41.0848 34.711 44.4763 34.6129C45.5803 34.6129 46.6533 34.568 47.6845 34.5262C52.9366 34.3048 55.2995 34.3714 56.3307 38.1185C56.6634 39.764 56.2551 41.4726 55.2143 42.79C54.7606 43.2285 54.6184 43.8986 54.855 44.4836C55.0915 45.0687 55.6594 45.4516 56.2904 45.4516C57.1456 45.4516 57.8388 46.1449 57.8388 47C57.8388 47.8552 57.1456 48.5484 56.2904 48.5484C55.4353 48.5484 54.7421 49.2416 54.7421 50.0968C54.7421 53.5125 51.269 56.2903 47.0001 56.2903C42.7312 56.2903 39.2582 53.5125 39.2582 50.0968C39.2582 49.2416 38.565 48.5484 37.7098 48.5484C36.8547 48.5484 36.1614 47.8552 36.1614 47C36.1614 46.1449 36.8547 45.4516 37.7098 45.4516C38.4189 45.4517 39.0374 44.97 39.2111 44.2825C39.3848 43.5951 39.0693 42.8775 38.4453 42.5407ZM45.0476 59.2323C46.3413 59.4367 47.659 59.4367 48.9526 59.2323C49.3717 61.0716 50.1888 62.7967 51.3464 64.2862C50.4716 65.8674 48.8072 66.8487 47.0001 66.8487C45.1931 66.8487 43.5286 65.8674 42.6538 64.2862C43.8108 62.7963 44.6279 61.0714 45.0476 59.2323V59.2323ZM84.1614 89.2942C81.2261 90.7084 77.8064 90.7084 74.8711 89.2942V88.8065C74.8711 86.241 76.9508 84.1613 79.5163 84.1613C82.0817 84.1613 84.1614 86.241 84.1614 88.8065V89.2942ZM76.4195 77.9678C76.4195 76.2575 77.806 74.871 79.5163 74.871C81.2266 74.871 82.613 76.2575 82.613 77.9678C82.613 79.6781 81.2266 81.0645 79.5163 81.0645C77.806 81.0645 76.4195 79.6781 76.4195 77.9678ZM79.5163 68.6774C83.9209 68.6714 87.8904 71.3337 89.5562 75.4112C91.222 79.4887 90.2522 84.1689 87.1034 87.2488C86.7954 85.7626 86.0616 84.3982 84.9913 83.3221C84.639 82.9776 84.2554 82.6666 83.8455 82.3931C85.6493 80.6343 86.208 77.9582 85.2586 75.6246C84.3092 73.2911 82.041 71.7651 79.5217 71.7651C77.0024 71.7651 74.7341 73.2911 73.7847 75.6246C72.8354 77.9582 73.394 80.6343 75.1978 82.3931C73.5169 83.5222 72.3439 85.2637 71.9292 87.2457C68.7825 84.1655 67.8142 79.4868 69.4797 75.4106C71.1452 71.3345 75.113 68.6727 79.5163 68.6774V68.6774ZM73.3227 47C73.3178 55.6522 69.0585 63.7488 61.9312 68.6542C60.6904 65.2191 57.5612 62.8224 53.9214 62.5195C52.9341 61.3135 52.2488 59.8893 51.9225 58.3652C54.906 57.1767 57.0897 54.5646 57.7304 51.4176C59.4599 50.8534 60.7009 49.3316 60.9055 47.524C61.1101 45.7163 60.2407 43.9556 58.6812 43.0191C59.583 41.2537 59.8093 39.2198 59.3175 37.2994C57.5911 31.0145 52.4907 31.2297 47.5498 31.431C46.5619 31.4728 45.5369 31.5162 44.4716 31.5162C37.2608 31.5162 34.3452 28.8746 34.3297 28.8622C33.9135 28.4547 33.304 28.3152 32.752 28.5012C32.2001 28.6871 31.7992 29.167 31.7145 29.7433C31.6525 30.1613 30.4541 38.7843 34.6889 43.4713C33.4123 44.5627 32.8242 46.2583 33.151 47.9058C33.4778 49.5533 34.6686 50.8961 36.2652 51.4176C36.906 54.5646 39.0896 57.1767 42.0732 58.3652C41.7468 59.8893 41.0615 61.3135 40.0742 62.5195C36.4344 62.8224 33.3052 65.2191 32.0644 68.6542C21.7706 61.5525 17.897 48.187 22.7979 36.6814C27.6989 25.1759 40.0205 18.709 52.2734 21.2114C64.5264 23.7138 73.3255 34.4942 73.3227 47ZM68.6775 14.4839C68.674 9.56384 71.9849 5.25862 76.7409 3.9988C81.4969 2.73898 86.5049 4.84064 88.9375 9.11726C91.3701 13.3939 90.617 18.7725 87.1034 22.2165C86.7954 20.7304 86.0616 19.366 84.9913 18.2898C84.639 17.9454 84.2554 17.6343 83.8455 17.3608C85.6493 15.602 86.208 12.9259 85.2586 10.5924C84.3092 8.2588 82.041 6.73282 79.5217 6.73282C77.0024 6.73282 74.7341 8.2588 73.7847 10.5924C72.8354 12.9259 73.394 15.602 75.1978 17.3608C73.5169 18.49 72.3439 20.2314 71.9292 22.2134C69.8486 20.18 68.6763 17.3932 68.6775 14.4839V14.4839Z" fill="#4F4F4F"/>
</svg>
