<svg width="97" height="97" viewBox="0 0 97 97" fill="none" xmlns="http://www.w3.org/2000/svg">
<g clip-path="url(#clip0_301:2108)">
<path d="M80.081 53.3502H16.8925C15.1719 53.2947 13.5282 54.0651 12.4707 55.4231C11.4131 56.7811 11.0683 58.5631 11.5427 60.2172L20.5572 88.9163H76.4163L85.4309 60.2172C85.906 58.5631 85.5611 56.7811 84.5028 55.4231C83.4453 54.0651 81.8017 53.2947 80.081 53.3502Z" fill="#EAECF3"/>
<path d="M21.0034 88.9165H75.97C77.7557 88.9165 79.2033 90.364 79.2033 92.1498C79.2033 93.9355 77.7557 95.3831 75.97 95.3831H21.0034C19.2177 95.3831 17.7701 93.9355 17.7701 92.1498C17.7701 90.364 19.2177 88.9165 21.0034 88.9165Z" fill="#EAECF3"/>
<path d="M91.8944 83.6139L87.2868 93.5076C86.7592 94.6488 85.6173 95.3799 84.3607 95.3829L75.97 95.3836C77.1252 95.3888 78.196 94.7783 78.7785 93.7807C79.3609 92.7831 79.3668 91.5502 78.7947 90.5474C78.2219 89.5439 77.1578 88.9223 76.0025 88.9163H76.4229L82.4528 69.678L83.924 64.9897L89.4212 72.6204C91.7131 75.793 92.6063 79.7656 91.8944 83.6139Z" fill="#F8A23E"/>
<path d="M87.0441 83.6139L82.4365 93.5076C81.9089 94.6488 80.7677 95.3799 79.5104 95.3829L75.97 95.3836C77.1252 95.3888 78.196 94.7783 78.7785 93.7807C79.3609 92.7831 79.3668 91.5502 78.7947 90.5474C78.2219 89.5439 77.1578 88.9223 76.0025 88.9163H76.4229L82.4528 69.678L84.5709 72.6204C86.8628 75.793 87.7568 79.7656 87.0441 83.6139Z" fill="#EAECF3"/>
<path d="M17.77 92.1496C17.77 90.3639 19.2175 88.9163 21.0033 88.9163H20.557L13.0411 64.9897L7.55285 72.6123C5.26017 75.7849 4.36545 79.7567 5.0759 83.6057L9.68642 93.5143C10.2178 94.6547 11.3612 95.3837 12.6192 95.3829H21.0033C19.2175 95.3829 17.77 93.9354 17.77 92.1496Z" fill="#EAECF3"/>
<path d="M60.3048 33.9498C60.3048 33.9498 58.6234 40.4163 55.2443 42.0333C53.2402 43.3225 50.858 43.8931 48.4869 43.6496C47.436 43.6496 46.7085 43.6496 46.1106 43.6015H46.0136C44.4988 43.3566 43.0446 42.8245 41.7295 42.0333C38.3504 40.4163 36.669 33.9498 36.669 33.9498C33.2907 33.9498 30.8974 28.1463 33.2907 25.8669C33.9708 25.269 34.9047 25.0506 35.7802 25.2845C35.26 23.3656 34.9884 21.3881 34.9713 19.3996C34.9713 14.9541 37.8006 9.16619 46.0617 8.21226C46.8677 8.12642 47.6773 8.0835 48.4869 8.0835C58.6234 8.0835 62.0024 14.5501 62.0024 19.3996C61.9854 21.3881 61.7138 23.3656 61.1943 25.2845C62.069 25.0506 63.003 25.269 63.6838 25.8669C66.0764 28.1463 63.6838 33.9498 60.3048 33.9498Z" fill="#F8A23E"/>
<path d="M55.4545 33.9499C55.4545 33.9499 53.7738 40.4165 50.3947 42.0335C49.0797 42.8246 47.6255 43.3567 46.1106 43.6017H46.0136C44.4988 43.3567 43.0446 42.8246 41.7295 42.0335C38.3504 40.4165 36.669 33.9499 36.669 33.9499C33.2907 33.9499 30.8974 28.1464 33.2907 25.8671C33.9708 25.2691 34.9047 25.0508 35.7802 25.2846C35.26 23.3657 34.9884 21.3883 34.9713 19.3998C34.9713 14.9543 37.8006 9.16633 46.0617 8.2124C54.3229 9.16633 57.1521 14.9543 57.1521 19.3998C57.1351 21.3883 56.8635 23.3657 56.344 25.2846C57.2187 25.0508 58.1534 25.2691 58.8335 25.8671C61.2261 28.1464 58.8335 33.9499 55.4545 33.9499Z" fill="#EAECF3"/>
<path d="M62.002 19.3996C62.002 19.982 61.9694 20.5474 61.9369 21.081C60.3413 19.6253 58.4734 18.499 56.4405 17.7671C54.7776 17.2402 52.986 17.2794 51.3482 17.8803C51.238 17.9106 51.1299 17.9484 51.0248 17.9935C49.3945 18.6403 47.5784 18.6403 45.9481 17.9935C45.8837 17.9772 45.8356 17.9447 45.7705 17.9284C43.9795 17.2342 41.9962 17.2172 40.1927 17.8803C38.2959 18.6292 36.5487 19.7134 35.036 21.081C35.0035 20.5474 34.9709 19.982 34.9709 19.3996C34.9664 18.8527 35.0101 18.3066 35.1004 17.7671C35.7146 13.6931 38.7059 9.16619 45.7705 8.24483C46.6718 8.139 47.5791 8.08572 48.4864 8.0835C58.6229 8.0835 62.002 14.5501 62.002 19.3996Z" fill="white"/>
<path d="M56.4407 17.7671C54.7778 17.2402 52.9861 17.2794 51.3484 17.8803C49.5449 17.2173 47.5623 17.2343 45.7706 17.9284C45.7063 17.9447 45.6574 17.9773 45.593 17.9936C43.9627 18.6404 42.1466 18.6404 40.5163 17.9936C40.4112 17.9484 40.3031 17.9107 40.1929 17.8803C38.5551 17.2794 36.7642 17.2402 35.1006 17.7671C35.7148 13.6931 38.7061 9.16624 45.7706 8.24487C52.8359 9.16624 55.8265 13.6931 56.4407 17.7671Z" fill="#F8A23E"/>
<path d="M32.3202 24.25H27.4699C26.5774 24.25 25.8536 24.9738 25.8536 25.867V32.3336C25.8536 33.2261 26.5774 33.9499 27.4699 33.9499H32.3202V24.25Z" fill="#F8A23E"/>
<path d="M64.6531 24.25H69.5034C70.3966 24.25 71.1204 24.9738 71.1204 25.867V32.3336C71.1204 33.2261 70.3966 33.9499 69.5034 33.9499H64.6531V24.25Z" fill="#F8A23E"/>
<path d="M67.9286 47.9036C63.5637 46.015 57.8054 43.3493 55.8591 41.6746C55.6629 41.81 55.4572 41.9299 55.2426 42.0335C53.2393 43.3227 50.8571 43.8925 48.4867 43.6498C46.1163 43.8925 43.7341 43.3227 41.7307 42.0335C41.5161 41.9299 41.3104 41.81 41.115 41.6746C39.1746 43.3493 33.4052 46.015 29.0448 47.9036C26.1926 49.1498 23.6506 51.0096 21.5984 53.3503H75.375C73.3235 51.0096 70.7807 49.1498 67.9286 47.9036Z" fill="#EAECF3"/>
<path d="M59.7776 44.0864C58.3944 43.4144 57.0816 42.6063 55.859 41.6746C55.6629 41.81 55.4572 41.9299 55.2426 42.0335C53.2393 43.3227 50.857 43.8925 48.4866 43.6498C46.1163 43.8925 43.734 43.3227 41.7307 42.0335C41.5161 41.9299 41.3104 41.81 41.115 41.6746C39.8917 42.6063 38.5788 43.4144 37.1957 44.0864C37.4643 49.2386 42.4079 53.3503 48.4866 53.3503C54.5654 53.3503 59.509 49.2386 59.7776 44.0864Z" fill="#F8A23E"/>
<path d="M9.68642 93.5143C10.2178 94.6547 11.3612 95.3837 12.6192 95.3829H17.4695C16.2114 95.3837 15.0673 94.6547 14.5367 93.5143L9.92619 83.6057C9.21574 79.7567 10.1105 75.7849 12.4024 72.6123L14.5138 69.678L13.0411 64.9897L7.55285 72.6123C5.26017 75.7849 4.36545 79.7567 5.0759 83.6057L9.68642 93.5143Z" fill="white"/>
<path d="M32.3202 24.25H27.4699C26.5774 24.25 25.8536 24.9738 25.8536 25.867V32.3336C25.8536 33.2261 26.5774 33.9499 27.4699 33.9499H32.3202C31.427 33.9499 30.7032 33.2261 30.7032 32.3336V25.867C30.7032 24.9738 31.427 24.25 32.3202 24.25Z" fill="white"/>
<path d="M80.8529 88.9165H80.8203C80.9402 88.9217 81.0593 88.9335 81.1778 88.952C81.069 88.9409 80.9639 88.9165 80.8529 88.9165Z" fill="white"/>
<path d="M81.4863 88.9861C81.5492 89.0009 81.604 89.0268 81.6654 89.0431C81.604 89.0268 81.5492 89.0009 81.4863 88.9861Z" fill="white"/>
<path d="M8.23169 94.1968L3.78769 84.6701C3.61155 84.3511 3.49536 84.0026 3.44504 83.6414C3.411 83.4009 3.36068 83.1567 3.33995 82.9191C3.27853 82.4337 3.24745 81.9489 3.22673 81.4642C3.20008 80.4903 3.26373 79.5164 3.41618 78.5536C3.7196 76.6243 4.37307 74.766 5.34327 73.0705C5.62079 72.5917 5.92051 72.127 6.24169 71.6763L8.86592 73.5582C8.60986 73.9208 8.36934 74.2924 8.14807 74.6742C7.37397 76.0285 6.8552 77.5138 6.61542 79.0553C6.48961 79.8198 6.43559 80.5939 6.45335 81.3687C6.46963 81.755 6.49405 82.1428 6.54216 82.5291C6.55696 82.7215 6.60062 82.9125 6.62652 83.1049C6.65242 83.1892 6.5762 83.0042 6.71385 83.3054L11.1482 92.8321L8.23169 94.1968Z" fill="white"/>
<path d="M23.2927 70.6477C23.0248 69.7959 22.1168 69.3216 21.265 69.5895C20.4125 69.8574 19.9388 70.7654 20.2067 71.618L21.7312 76.4675C21.9429 77.141 22.5667 77.5991 23.272 77.5998C23.4363 77.5991 23.5999 77.5739 23.7567 77.5251C24.166 77.3963 24.5072 77.1106 24.7055 76.7302C24.9038 76.3506 24.943 75.9066 24.8143 75.498L23.2927 70.6477Z" fill="#4F4F4F"/>
<path d="M30.7033 61.4332H33.9366C34.8298 61.4332 35.5536 60.7095 35.5536 59.817C35.5536 58.9237 34.8298 58.2 33.9366 58.2H30.7033C29.8108 58.2 29.087 58.9237 29.087 59.817C29.087 60.7095 29.8108 61.4332 30.7033 61.4332Z" fill="#4F4F4F"/>
<path d="M18.1756 65.152C18.388 65.8254 19.0119 66.2835 19.7179 66.2835C19.8829 66.2828 20.0465 66.2584 20.2034 66.2088C20.6119 66.0808 20.9538 65.7944 21.1514 65.4147C21.3497 65.0343 21.3889 64.591 21.2602 64.1818L20.3973 61.4332H24.2366C25.1299 61.4332 25.8536 60.7095 25.8536 59.817C25.8536 58.9237 25.1299 58.2 24.2366 58.2H18.1956C17.6805 58.2 17.1965 58.4449 16.8916 58.8601C16.5875 59.2752 16.4987 59.8103 16.6526 60.3017L18.1756 65.152Z" fill="#4F4F4F"/>
<path d="M32.3203 69.5168C32.3203 72.1329 34.7062 73.3244 36.4476 74.205C37.8167 74.8807 38.7869 75.4113 38.7869 75.9834C38.7321 76.8529 38.0394 77.5456 37.1699 77.6004C36.2774 77.6004 35.5536 76.8766 35.5536 75.9834C35.5536 75.0909 34.8298 74.3671 33.9366 74.3671C33.0441 74.3671 32.3203 75.0909 32.3203 75.9834C32.3203 78.6624 34.4916 80.8337 37.1699 80.8337C39.8207 80.7663 41.9528 78.6335 42.0202 75.9834C42.0202 73.3673 39.6342 72.1758 37.8929 71.2951C36.5238 70.6195 35.5536 70.0889 35.5536 69.5168C35.6084 68.6472 36.301 67.9546 37.1699 67.8998C38.0631 67.8998 38.7869 68.6236 38.7869 69.5168C38.7869 70.4093 39.5107 71.1331 40.4032 71.1331C41.2964 71.1331 42.0202 70.4093 42.0202 69.5168C42.0202 66.8378 39.8489 64.6665 37.1699 64.6665C34.5197 64.7338 32.3877 66.8667 32.3203 69.5168Z" fill="#4F4F4F"/>
<path d="M48.4867 80.8337H51.72C52.6132 80.8337 53.337 80.1099 53.337 79.2167C53.337 78.3242 52.6132 77.6004 51.72 77.6004H48.4867V74.3671H51.72C52.6132 74.3671 53.337 73.6426 53.337 72.7501C53.337 71.8576 52.6132 71.1331 51.72 71.1331H48.4867V67.8998H51.72C52.6132 67.8998 53.337 67.176 53.337 66.2835C53.337 65.3903 52.6132 64.6665 51.72 64.6665H48.4867C46.701 64.6665 45.2534 66.114 45.2534 67.8998V77.6004C45.2534 79.3861 46.701 80.8337 48.4867 80.8337Z" fill="#4F4F4F"/>
<path d="M62.2287 80.8337C65.3532 80.8337 67.8872 78.2997 67.8872 75.1752V70.3249C67.8872 67.2004 65.3532 64.6665 62.2287 64.6665C59.1035 64.6665 56.5703 67.2004 56.5703 70.3249V75.1752C56.5703 76.6761 57.1661 78.1147 58.2273 79.1759C59.2885 80.2372 60.7279 80.8337 62.2287 80.8337ZM59.8036 70.3249C59.8036 68.9854 60.8893 67.8998 62.2287 67.8998C63.5675 67.8998 64.6532 68.9854 64.6532 70.3249V75.1752C64.6532 76.5147 63.5675 77.6004 62.2287 77.6004C60.8893 77.6004 59.8036 76.5147 59.8036 75.1752V70.3249Z" fill="#4F4F4F"/>
<path d="M6.24153 71.6688C5.91813 72.1187 5.61841 72.5835 5.34311 73.0623C5.04487 73.5863 4.77549 74.1258 4.53424 74.6786C4.33812 75.0841 4.32776 75.5548 4.50537 75.9692C4.68299 76.3829 5.03155 76.6997 5.46078 76.8373C6.263 77.0852 7.12664 76.7152 7.5011 75.964C7.69426 75.5252 7.90961 75.0967 8.14791 74.6801C8.36918 74.2989 8.6097 73.9267 8.86576 73.5648L12.4676 68.5546L18.5619 87.9551C18.5249 87.9773 18.4975 88.0113 18.4605 88.0343C18.143 88.2252 17.8485 88.4524 17.5828 88.7114C17.3216 88.9793 17.0922 89.2761 16.899 89.5958C16.8405 89.6876 16.7954 89.7845 16.7369 89.8814C16.6082 90.1301 16.4994 90.3884 16.4135 90.6548C16.3795 90.7628 16.341 90.8665 16.3136 90.9782C16.2115 91.3608 16.1582 91.7545 16.153 92.1497C16.1553 92.4553 16.1863 92.7602 16.2455 93.06C16.2633 93.1569 16.2959 93.2479 16.3196 93.3412C16.3558 93.484 16.381 93.6305 16.4298 93.7667H12.6193C11.991 93.7645 11.4197 93.3997 11.1533 92.8306L8.42543 86.9767C8.04874 86.1671 7.08667 85.8156 6.27706 86.1923C5.46744 86.5697 5.11666 87.531 5.49334 88.3414L8.23153 94.1967C9.02931 95.9003 10.7381 96.9919 12.6193 97H84.3539C86.2389 96.9948 87.9513 95.9032 88.7513 94.1967L93.3641 84.2881C93.4203 84.1646 93.4618 84.0343 93.4869 83.9004C94.2684 79.6192 93.276 75.204 90.7384 71.6688L85.7267 64.7019L86.9826 60.7027C87.6346 58.6446 87.2572 56.3986 85.9695 54.6661C84.5819 52.8101 82.3965 51.7214 80.0794 51.7333H76.0491C73.9459 49.4695 71.4008 47.6608 68.5709 46.4197C65.2725 44.9899 62.5728 43.7244 60.5435 42.6654L60.5258 42.6529C59.6236 42.1807 58.9354 41.7907 58.3989 41.4673C59.8124 39.6482 60.8862 37.5894 61.5685 35.3885C62.145 35.2161 62.6875 34.9467 63.1744 34.5937C63.4297 35.1828 64.0107 35.5654 64.653 35.5669H69.5033C71.2891 35.5669 72.7366 34.1193 72.7366 32.3336V25.867C72.7366 24.0813 71.2891 22.633 69.5033 22.633H69.1059C70.1146 17.4201 68.8854 12.0229 65.7187 7.76018C61.9296 2.75669 55.8087 0 48.4866 0C41.1646 0 35.0443 2.75669 31.2545 7.76018C28.0849 12.0214 26.8534 17.4186 27.8599 22.633H27.4699C25.6842 22.633 24.2366 24.0813 24.2366 25.867V32.3336C24.2366 34.1193 25.6842 35.5669 27.4699 35.5669H31.7415C33.1209 36.5267 34.658 37.2379 36.2824 37.6686C36.8678 39.034 37.6397 40.3128 38.5751 41.4673C38.0386 41.7907 37.3496 42.1807 36.4475 42.6529L36.4297 42.6654C34.4005 43.7244 31.7008 44.9899 28.4031 46.4197C25.5732 47.6608 23.0274 49.4695 20.9242 51.7333H16.8938C14.5804 51.7244 12.3988 52.8123 11.0141 54.6661C9.7257 56.3986 9.34901 58.6446 10.0003 60.7027L11.2569 64.7019L6.24449 71.6688H6.24153ZM19.3871 92.1497C19.3871 91.2572 20.1108 90.5334 21.0033 90.5334H75.9699C76.8631 90.5334 77.5869 91.2572 77.5869 92.1497C77.5869 93.0429 76.8631 93.7667 75.9699 93.7667H21.0033C20.1108 93.7667 19.3871 93.0429 19.3871 92.1497ZM88.1082 73.5581C90.0938 76.3207 90.8975 79.7598 90.3424 83.1159L85.8155 92.832C85.5484 93.4011 84.9778 93.766 84.3495 93.7682H80.5434C80.5923 93.6328 80.6182 93.4855 80.6537 93.3449C80.6781 93.2494 80.7099 93.1591 80.7277 93.0614C80.7876 92.7617 80.818 92.4561 80.8202 92.1497C80.8143 91.7567 80.7603 91.366 80.6581 90.9863C80.6307 90.8746 80.5923 90.771 80.5582 90.6629C80.4731 90.3958 80.3651 90.1368 80.2348 89.8881C80.183 89.7912 80.1379 89.6942 80.0735 89.6024C79.8796 89.2827 79.6502 88.986 79.3889 88.7181C79.124 88.4591 78.8287 88.2319 78.5112 88.0402C78.4742 88.018 78.4469 87.984 78.4099 87.961L84.5042 68.5613L88.1082 73.5581ZM71.2817 51.7333H57.5404C59.1707 50.3612 60.3704 48.5466 60.9935 46.5085C62.7718 47.3751 64.8573 48.332 67.298 49.3873C68.7167 50.0045 70.0547 50.7919 71.2817 51.7333ZM38.9326 44.9899L38.9503 44.9803C39.3544 44.7576 39.7311 44.5422 40.0819 44.3335L40.2661 44.2255C40.6295 44.0057 40.9677 43.7925 41.2585 43.5935L41.915 43.9021C42.0312 43.9568 42.1673 44.0234 42.2768 44.0738C42.5033 44.1788 42.7053 44.2662 42.9044 44.355L43.2485 44.5067C43.4269 44.5814 43.5897 44.6414 43.7518 44.7028C43.8502 44.7398 43.9582 44.7835 44.0522 44.8175C44.2136 44.8693 44.3579 44.9078 44.5066 44.95C44.5954 44.9744 44.6909 45.0062 44.7797 45.0277C44.9314 45.0632 45.0898 45.0869 45.2452 45.1113C45.3325 45.1261 45.4184 45.1468 45.5087 45.1587C45.6803 45.1809 45.8691 45.1942 46.057 45.2068C46.1458 45.2068 46.2184 45.2245 46.3205 45.2297C46.5351 45.2408 46.7845 45.246 47.0332 45.2504H47.2922H48.4948H49.6996H49.9467C50.2006 45.2504 50.4529 45.2408 50.6705 45.2297C50.7601 45.2297 50.8326 45.2149 50.9184 45.2083C51.1123 45.1942 51.3062 45.1809 51.4809 45.1587C51.5667 45.1468 51.6422 45.1291 51.7295 45.115C51.8916 45.0891 52.0529 45.0632 52.215 45.0277C52.2986 45.0062 52.3874 44.9774 52.4733 44.9529C52.6272 44.9108 52.7804 44.8708 52.9425 44.8153C53.0313 44.7849 53.1349 44.7428 53.2281 44.7072C53.3902 44.6443 53.5634 44.5829 53.7454 44.5052C53.8475 44.463 53.9689 44.4068 54.0688 44.3594C54.2709 44.2706 54.4781 44.1803 54.7156 44.0723L55.062 43.9102L55.731 43.5868C56.0218 43.7859 56.36 43.999 56.7234 44.2188L56.9077 44.3276C57.2518 44.5318 57.6292 44.7479 58.0399 44.9744L58.0577 44.984C57.2747 48.8426 53.2851 51.7333 48.4866 51.7333C43.6881 51.7333 39.6985 48.8426 38.9326 44.9899ZM36.7353 17.7509C36.7516 17.6635 36.7723 17.5762 36.7901 17.4889C36.8271 17.3061 36.8663 17.124 36.9144 16.9413C36.9418 16.8391 36.9744 16.737 37.0055 16.6356C37.055 16.4735 37.1083 16.3026 37.1668 16.1361C37.2053 16.031 37.2475 15.9259 37.2896 15.8127C37.3562 15.6506 37.4258 15.4893 37.5013 15.3353C37.5509 15.228 37.6049 15.1244 37.6634 15.0253C37.7455 14.8639 37.8358 14.7019 37.9298 14.5568C37.9897 14.4576 38.0482 14.3607 38.1111 14.2637C38.2177 14.1024 38.3339 13.9403 38.4523 13.7901C38.5166 13.7057 38.5766 13.6206 38.6447 13.5378C38.7979 13.3505 38.9681 13.1692 39.1294 12.9901C39.1731 12.945 39.2116 12.8976 39.2574 12.8525C39.4846 12.6268 39.7244 12.4136 39.9753 12.2138C40.0367 12.1657 40.1041 12.122 40.1677 12.0732C40.366 11.923 40.5695 11.7742 40.7879 11.6351C40.8885 11.5692 41.0003 11.5093 41.1113 11.4456C41.3037 11.3331 41.4998 11.2214 41.7063 11.123C41.8306 11.0593 41.9638 11.0001 42.0941 10.9402C42.2983 10.8462 42.507 10.7574 42.7231 10.673C42.8674 10.6168 43.0139 10.5635 43.1649 10.5117C43.3862 10.4355 43.6156 10.3644 43.8517 10.2978C44.0137 10.2527 44.1751 10.209 44.3364 10.169C44.5843 10.1091 44.8441 10.0558 45.1061 10.007C45.2681 9.97515 45.4295 9.94259 45.6108 9.91521C45.9068 9.87006 46.2184 9.83602 46.5321 9.80494C46.6935 9.78866 46.8348 9.76794 46.9932 9.75684C47.4779 9.72131 47.9627 9.69985 48.4903 9.69985C49.0172 9.69985 49.5071 9.72131 49.9867 9.75684C50.1488 9.76794 50.2923 9.78866 50.4478 9.80494C50.7615 9.83602 51.0731 9.87006 51.3691 9.91521C51.5423 9.94259 51.7073 9.97515 51.8738 10.007C52.1358 10.0558 52.3956 10.1091 52.6435 10.169C52.8048 10.209 52.9661 10.2527 53.1282 10.2978C53.3643 10.3644 53.5937 10.4355 53.815 10.5117C53.966 10.5635 54.1125 10.6168 54.2568 10.673C54.4729 10.7574 54.6816 10.8462 54.8858 10.9402C55.0161 11.0001 55.1493 11.0593 55.2736 11.123C55.4801 11.2281 55.6762 11.3391 55.8686 11.4456C55.9737 11.5093 56.0847 11.5692 56.192 11.6351C56.4103 11.7742 56.6139 11.923 56.8122 12.0732C56.8758 12.122 56.9432 12.1657 57.0046 12.2138C57.2555 12.4136 57.4953 12.6268 57.7225 12.8525C57.7683 12.8976 57.8068 12.945 57.8505 12.9901C58.0237 13.1692 58.1902 13.3505 58.3434 13.5378C58.4114 13.6206 58.4714 13.6998 58.5358 13.7901C58.6542 13.9522 58.7704 14.1039 58.8769 14.2637C58.9398 14.3607 58.9983 14.4576 59.0583 14.5568C59.1522 14.7181 59.2425 14.8669 59.3247 15.0253C59.378 15.1274 59.4312 15.231 59.4867 15.3353C59.5622 15.4974 59.6318 15.6587 59.6984 15.8127C59.7406 15.9192 59.782 16.0243 59.8212 16.1361C59.8827 16.2974 59.936 16.4691 59.9826 16.6356C60.0137 16.737 60.0462 16.8391 60.0736 16.9413C60.1217 17.124 60.1609 17.3061 60.1979 17.4889C60.2157 17.5762 60.2364 17.6635 60.2527 17.7509L60.2608 17.8108C57.4235 15.7357 53.7299 15.2347 50.4426 16.4802C49.1971 16.976 47.8087 16.976 46.5632 16.4802C43.2759 15.2362 39.5823 15.7365 36.745 17.8108L36.7353 17.7509ZM69.5033 32.3336H66.2701V28.583C66.2701 28.5038 66.2701 28.4209 66.2701 28.3484V25.867H69.5033V32.3336ZM33.8336 9.71317C36.9973 5.5341 42.2014 3.23328 48.4866 3.23328C54.7726 3.23328 59.9767 5.5341 63.1404 9.71317C65.8704 13.4253 66.8414 18.1453 65.7979 22.633H64.653C64.0514 22.6382 63.5023 22.9793 63.2321 23.5173C63.3535 22.8513 63.4475 22.1209 63.5156 21.3349C63.5156 21.295 63.5378 21.2572 63.5415 21.2173C63.5881 20.6385 63.6155 20.0339 63.6155 19.3997C63.6155 12.9627 58.9369 6.46657 48.4866 6.46657C38.0364 6.46657 33.3577 12.9627 33.3577 19.3997C33.3577 20.0339 33.3851 20.6385 33.4325 21.2173C33.4325 21.2572 33.4517 21.295 33.4584 21.3349C33.5257 22.1209 33.6197 22.8513 33.7411 23.5173C33.471 22.9793 32.9219 22.6382 32.3202 22.633H31.1753C30.1319 18.1453 31.1028 13.4253 33.8336 9.71317ZM27.4699 25.867H30.7032V28.3484V28.583V32.3336H27.4699V25.867ZM45.2533 35.5669C43.0435 35.5898 40.8367 35.3767 38.6721 34.9312C38.4944 34.4331 38.3376 33.9536 38.2273 33.5391C38.0408 32.8287 37.3984 32.3336 36.6643 32.3336C35.7925 32.3336 34.8127 31.41 34.2813 30.086C33.7552 29.1247 33.8025 27.9517 34.4042 27.0356C34.5855 26.8861 34.8164 26.8113 35.0502 26.8254C35.1879 26.8261 35.3248 26.8402 35.4595 26.8676C36.0042 26.9749 36.5651 26.795 36.947 26.3917C37.3281 25.9884 37.4754 25.4178 37.3385 24.8805C37.0772 23.8652 36.8804 22.8343 36.7494 21.7945C40.1218 19.1126 42.6632 18.4251 45.354 19.4907C47.3647 20.2863 49.6026 20.2863 51.6133 19.4907C54.3034 18.4251 56.8448 19.1126 60.2172 21.7945C60.0862 22.8343 59.8901 23.8652 59.6288 24.8805C59.4912 25.4178 59.6392 25.9884 60.0203 26.3917C60.4014 26.795 60.9631 26.9749 61.5071 26.8676C61.8667 26.7603 62.2553 26.8195 62.5661 27.0289C63.1678 27.9451 63.2151 29.1181 62.6889 30.0794C62.1576 31.4041 61.1778 32.3269 60.306 32.3269C59.5704 32.3262 58.9273 32.8228 58.7415 33.5347C58.353 35.0251 56.7463 39.5165 54.538 40.5689C52.7449 41.7278 50.6113 42.2443 48.4866 42.0334C48.1099 42.0334 47.7806 42.0334 47.4875 42.0334C46.9636 42.0379 46.4404 42.0053 45.9209 41.9365C44.6953 41.6612 43.5179 41.2031 42.4293 40.577C41.5782 40.0782 40.8722 39.3655 40.3823 38.5093C41.9978 38.7099 43.6252 38.8068 45.2533 38.8001C46.1466 38.8001 46.8703 38.0764 46.8703 37.1831C46.8703 36.2906 46.1466 35.5669 45.2533 35.5669ZM29.6878 49.3873C32.1241 48.332 34.2147 47.3751 35.9931 46.5085C36.6147 48.5459 37.8121 50.3605 39.4417 51.7333H25.6916C26.923 50.7912 28.2655 50.0038 29.6878 49.3873ZM13.6213 56.5836C14.3888 55.549 15.6061 54.9473 16.8938 54.9666H80.0794C81.3671 54.9473 82.5845 55.549 83.3519 56.5836C84.0268 57.4864 84.2267 58.6602 83.8885 59.7362L75.2299 87.3001H21.7441L14.9408 65.6366L13.0818 59.7325C12.7451 58.6572 12.9464 57.4857 13.6213 56.5836Z" fill="#4F4F4F"/>
<path d="M3.23788 81.6855C3.26008 82.1502 3.46507 82.5876 3.80846 82.9014L4.07561 83.076C4.1733 83.1278 4.27839 83.1656 4.38718 83.187C4.48486 83.2218 4.58773 83.2396 4.69134 83.2403C4.79938 83.2433 4.90743 83.2374 5.01474 83.2248C5.42991 83.1478 5.80733 82.9339 6.08633 82.6179C6.21362 82.4655 6.31131 82.2908 6.37421 82.1029C6.56959 81.5441 6.42306 80.9232 5.99753 80.5118C5.84508 80.3697 5.67042 80.2527 5.48023 80.1676C5.2893 80.0766 5.08356 80.0218 4.87265 80.0056C4.44046 79.9782 4.01641 80.1321 3.70337 80.4311C3.38811 80.7708 3.22086 81.2222 3.23788 81.6855Z" fill="#4F4F4F"/>
</g>
<defs>
<clipPath id="clip0_301:2108">
<rect width="97" height="97" fill="white"/>
</clipPath>
</defs>
</svg>
