<svg width="95" height="95" viewBox="0 0 95 95" fill="none" xmlns="http://www.w3.org/2000/svg">
<path d="M30.0833 80.7499C33.5811 80.7499 36.4167 77.9144 36.4167 74.4166C36.4167 70.9188 33.5811 68.0833 30.0833 68.0833C26.5855 68.0833 23.75 70.9188 23.75 74.4166C23.75 77.9144 26.5855 80.7499 30.0833 80.7499Z" fill="#EAECF3"/>
<path d="M30.0835 68.0833C29.2686 68.0866 28.462 68.248 27.7085 68.5583C28.8777 69.0299 29.8792 69.8402 30.5845 70.8852C31.2898 71.9302 31.6666 73.1622 31.6666 74.4229C31.6666 75.6837 31.2898 76.9156 30.5845 77.9606C29.8792 79.0056 28.8777 79.8159 27.7085 80.2876C28.5746 80.638 29.5075 80.7925 30.4403 80.7399C31.3731 80.6873 32.2827 80.429 33.1039 79.9835C33.9252 79.538 34.6376 78.9163 35.1903 78.163C35.743 77.4097 36.1221 76.5435 36.3006 75.6264C36.4791 74.7093 36.4524 73.7641 36.2226 72.8585C35.9927 71.9529 35.5654 71.1094 34.9712 70.3885C34.3769 69.6675 33.6306 69.0869 32.7855 68.6884C31.9405 68.2898 31.0178 68.0832 30.0835 68.0833Z" fill="#F8A23D"/>
<path d="M93.4169 68.0828C93.4075 73.2442 91.819 78.2791 88.8647 82.5113C85.9103 86.7435 81.7317 89.9703 76.89 91.7584C72.0482 93.5465 66.7753 93.8102 61.7793 92.5141C56.7834 91.218 52.3037 88.4241 48.9418 84.5078C45.58 80.5914 43.4971 75.7401 42.9728 70.6055C42.4486 65.4708 43.5081 60.2987 46.0091 55.7838C48.51 51.2688 52.3327 47.6273 56.9636 45.3482C61.5946 43.0692 66.812 42.2618 71.9152 43.0345C77.9014 43.9505 83.3615 46.9806 87.306 51.5757C91.2505 56.1708 93.4184 62.0269 93.4169 68.0828Z" fill="white"/>
<path d="M71.9152 43.0345C70.6469 42.8434 69.3661 42.7482 68.0835 42.7495C67.2918 42.7495 66.5002 42.8002 65.7212 42.8714C66.2057 42.9174 66.6886 42.9617 67.1652 43.0298C73.2732 43.9667 78.8283 47.1039 82.7846 51.8509C86.741 56.5978 88.8259 62.6272 88.6469 68.8041C88.4678 74.9811 86.0373 80.8796 81.8126 85.3894C77.588 89.8993 71.8606 92.7095 65.7085 93.2911C66.4907 93.364 67.2823 93.4114 68.0835 93.4114C74.4771 93.4222 80.6383 91.015 85.3312 86.6728C90.0242 82.3306 92.9016 76.3745 93.3865 69.9993C93.8713 63.6241 91.9277 57.3013 87.9454 52.2993C83.9632 47.2973 78.2369 43.9861 71.9152 43.0298V43.0345Z" fill="#F8A23D"/>
<path d="M43.5418 61.75C43.012 63.8193 42.746 65.9473 42.7502 68.0833H26.4577C24.9469 68.0889 23.4843 67.5516 22.3364 66.5693C21.1885 65.587 20.4316 64.2251 20.2035 62.7316L11.5427 7.91663H4.75016C3.91031 7.91663 3.10486 7.583 2.51099 6.98913C1.91713 6.39527 1.5835 5.58981 1.5835 4.74996C1.5835 3.91011 1.91713 3.10466 2.51099 2.51079C3.10486 1.91692 3.91031 1.58329 4.75016 1.58329H11.5427C13.0535 1.57775 14.516 2.11503 15.6639 3.0973C16.8118 4.07956 17.5688 5.44146 17.7968 6.93496L26.4577 61.75H43.5418Z" fill="white"/>
<path d="M46.1385 55.4165C44.9898 57.4001 44.1162 59.5307 43.5419 61.7498H26.4577L25.4602 55.4165H46.1385Z" fill="#EAECF3"/>
<path d="M41.3884 55.4165C40.2396 57.4001 39.3661 59.5307 38.7917 61.7498H43.5417C44.1161 59.5307 44.9896 57.4001 46.1384 55.4165H41.3884Z" fill="#F8A23D"/>
<path d="M74.8916 24.2882L67.9566 43.0348C62.9137 42.273 57.7582 43.0465 53.1609 45.2548C48.5636 47.4631 44.7373 51.0039 42.18 55.4165H26.7794L20.7786 17.4165H37.2083V26.9165H35.625C35.339 26.9057 35.0559 26.9762 34.8084 27.1198C34.5609 27.2634 34.3592 27.4742 34.2266 27.7277C34.094 27.9813 34.036 28.2673 34.0593 28.5524C34.0826 28.8376 34.1863 29.1103 34.3583 29.339L40.6916 37.3982C40.8421 37.5904 41.0344 37.7458 41.2538 37.8527C41.4733 37.9596 41.7142 38.0152 41.9583 38.0152C42.2024 38.0152 42.4433 37.9596 42.6628 37.8527C42.8822 37.7458 43.0745 37.5904 43.225 37.3982L49.5583 29.339C49.7303 29.1103 49.834 28.8376 49.8573 28.5524C49.8806 28.2673 49.8226 27.9813 49.69 27.7277C49.5574 27.4742 49.3557 27.2634 49.1082 27.1198C48.8607 26.9762 48.5776 26.9057 48.2916 26.9165H46.7083V17.4165H70.0941C70.9174 17.4152 71.7287 17.6129 72.459 17.993C73.1893 18.373 73.8168 18.924 74.2881 19.599C74.7593 20.274 75.0604 21.053 75.1654 21.8695C75.2705 22.686 75.1766 23.5158 74.8916 24.2882Z" fill="white"/>
<path d="M78.85 24.2882L71.915 43.0348C66.8721 42.273 61.7166 43.0465 57.1193 45.2548C52.522 47.4631 48.6957 51.0039 46.1383 55.4165H32.0572L26.0564 17.4165H41.1667V26.9165H39.5833C39.2974 26.9057 39.0143 26.9762 38.7668 27.1198C38.5193 27.2634 38.3175 27.4742 38.185 27.7277C38.0524 27.9813 37.9944 28.2673 38.0177 28.5524C38.041 28.8376 38.1447 29.1103 38.3167 29.339L44.65 37.3982C44.8005 37.5904 44.9927 37.7458 45.2122 37.8527C45.4317 37.9596 45.6726 38.0152 45.9167 38.0152C46.1608 38.0152 46.4017 37.9596 46.6212 37.8527C46.8406 37.7458 47.0329 37.5904 47.1833 37.3982L53.5167 29.339C53.6887 29.1103 53.7923 28.8376 53.8157 28.5524C53.839 28.2673 53.781 27.9813 53.6484 27.7277C53.5158 27.4742 53.3141 27.2634 53.0666 27.1198C52.8191 26.9762 52.5359 26.9057 52.25 26.9165H50.6667V17.4165H74.0525C74.8757 17.4152 75.6871 17.6129 76.4174 17.993C77.1477 18.373 77.7752 18.924 78.2464 19.599C78.7177 20.274 79.0187 21.053 79.1238 21.8695C79.2289 22.686 79.135 23.5158 78.85 24.2882Z" fill="#EAECF3"/>
<path d="M74.0528 17.4168H69.3028C70.126 17.4154 70.9374 17.6132 71.6676 17.9932C72.3979 18.3732 73.0254 18.9243 73.4967 19.5993C73.968 20.2743 74.269 21.0532 74.3741 21.8698C74.4792 22.6863 74.3852 23.5161 74.1002 24.2884L67.2603 42.7786C67.5342 42.7691 67.8065 42.7501 68.0836 42.7501C69.3662 42.7487 70.647 42.844 71.9152 43.0351L78.8502 24.2884C79.1352 23.5161 79.2292 22.6863 79.1241 21.8698C79.019 21.0532 78.718 20.2743 78.2467 19.5993C77.7754 18.9243 77.1479 18.3732 76.4176 17.9932C75.6873 17.6132 74.876 17.4154 74.0528 17.4168Z" fill="#F8A23D"/>
<path d="M63.3336 42.7495C58.8855 42.7476 54.5153 43.9172 50.6629 46.1408C46.8105 48.3644 43.6118 51.5635 41.3885 55.4162H46.1386C48.1637 51.9133 50.9983 48.9465 54.4053 46.7639C57.8123 44.5814 61.6925 43.2466 65.7212 42.8714C64.9327 42.7986 64.1379 42.7495 63.3336 42.7495Z" fill="#F8A23D"/>
<path d="M53.5167 29.3393L47.1834 37.3985C47.0329 37.5907 46.8406 37.7462 46.6212 37.8531C46.4017 37.96 46.1608 38.0155 45.9167 38.0155C45.6726 38.0155 45.4317 37.96 45.2122 37.8531C44.9928 37.7462 44.8005 37.5907 44.65 37.3985L38.3167 29.3393C38.1447 29.1107 38.041 28.8379 38.0177 28.5527C37.9944 28.2676 38.0524 27.9816 38.185 27.7281C38.3176 27.4745 38.5193 27.2637 38.7668 27.1201C39.0143 26.9765 39.2974 26.906 39.5834 26.9168H41.1667V4.75016C41.1692 3.91108 41.5037 3.10708 42.097 2.51376C42.6903 1.92044 43.4943 1.586 44.3334 1.5835H47.5C48.3391 1.586 49.1431 1.92044 49.7364 2.51376C50.3298 3.10708 50.6642 3.91108 50.6667 4.75016V26.9168H52.25C52.536 26.906 52.8191 26.9765 53.0666 27.1201C53.3141 27.2637 53.5158 27.4745 53.6484 27.7281C53.781 27.9816 53.839 28.2676 53.8157 28.5527C53.7924 28.8379 53.6887 29.1107 53.5167 29.3393Z" fill="#EAECF3"/>
<path d="M52.2502 26.9168H50.6669V4.75016C50.6644 3.91108 50.3299 3.10708 49.7366 2.51376C49.1433 1.92044 48.3393 1.586 47.5002 1.5835H44.3335C44.0658 1.58652 43.7996 1.62485 43.5419 1.6975C44.2194 1.87242 44.8199 2.26683 45.2496 2.81911C45.6792 3.37139 45.9139 4.05043 45.9169 4.75016V26.9168H47.5002C47.7861 26.906 48.0693 26.9765 48.3168 27.1201C48.5643 27.2637 48.766 27.4745 48.8986 27.7281C49.0312 27.9816 49.0892 28.2676 49.0658 28.5527C49.0425 28.8379 48.9389 29.1107 48.7669 29.3393L43.5419 35.9893L44.6502 37.4001C44.8007 37.5923 44.9929 37.7477 45.2124 37.8546C45.4318 37.9615 45.6728 38.0171 45.9169 38.0171C46.161 38.0171 46.4019 37.9615 46.6213 37.8546C46.8408 37.7477 47.0331 37.5923 47.1835 37.4001L53.5169 29.3409C53.6893 29.1123 53.7934 28.8394 53.817 28.5539C53.8405 28.2685 53.7826 27.9822 53.65 27.7284C53.5173 27.4745 53.3154 27.2635 53.0676 27.1199C52.8198 26.9762 52.5364 26.9058 52.2502 26.9168Z" fill="#F8A23D"/>
<path d="M23.75 74.4174C23.7521 75.4534 24.0083 76.4731 24.4962 77.387C24.984 78.3009 25.6886 79.0812 26.5482 79.6595C27.4078 80.2378 28.3961 80.5963 29.4265 80.7038C30.4569 80.8112 31.4979 80.6643 32.4583 80.2758C31.2928 79.8006 30.2954 78.9889 29.5932 77.9444C28.891 76.8998 28.516 75.6697 28.516 74.4111C28.516 73.1524 28.891 71.9223 29.5932 70.8778C30.2954 69.8332 31.2928 69.0216 32.4583 68.5464C31.497 68.1575 30.4548 68.0106 29.4234 68.1187C28.3919 68.2268 27.4029 68.5865 26.543 69.1662C25.6831 69.7459 24.9787 70.5279 24.4917 71.4435C24.0047 72.3592 23.75 73.3803 23.75 74.4174Z" fill="white"/>
<path d="M4.75016 7.91683H9.50016C8.66031 7.91683 7.85486 7.5832 7.26099 6.98933C6.66713 6.39547 6.3335 5.59001 6.3335 4.75016C6.3335 3.91031 6.66713 3.10486 7.26099 2.51099C7.85486 1.91713 8.66031 1.5835 9.50016 1.5835H4.75016C3.91031 1.5835 3.10486 1.91713 2.51099 2.51099C1.91713 3.10486 1.5835 3.91031 1.5835 4.75016C1.5835 5.59001 1.91713 6.39547 2.51099 6.98933C3.10486 7.5832 3.91031 7.91683 4.75016 7.91683Z" fill="white"/>
<path d="M16.6642 50.4807L19.7928 49.9867L21.7688 62.5014L18.6402 62.9954L16.6642 50.4807Z" fill="white"/>
<path d="M74.0398 41.8539L80.3336 24.8394C80.7074 23.8277 80.831 22.7405 80.6938 21.6707C80.5566 20.6009 80.1628 19.5802 79.5458 18.6955C78.9288 17.8109 78.107 17.0885 77.1505 16.5902C76.1939 16.0918 75.1311 15.8321 74.0525 15.8334H52.25V4.75004C52.25 3.49027 51.7496 2.28208 50.8588 1.39129C49.968 0.500489 48.7598 4.37061e-05 47.5 4.37061e-05H44.3333C43.0736 4.37061e-05 41.8654 0.500489 40.9746 1.39129C40.0838 2.28208 39.5833 3.49027 39.5833 4.75004V15.8334H20.8066L19.361 6.68804C19.0747 4.82171 18.128 3.12012 16.6932 1.89275C15.2584 0.665376 13.4307 -0.00624069 11.5425 4.37061e-05H4.75C3.49022 4.37061e-05 2.28204 0.500489 1.39124 1.39129C0.500445 2.28208 0 3.49027 0 4.75004C0 6.00982 0.500445 7.218 1.39124 8.1088C2.28204 8.9996 3.49022 9.50004 4.75 9.50004H10.1903L16.663 50.4672C16.6912 50.6762 16.7609 50.8775 16.868 51.0593C16.9751 51.241 17.1174 51.3995 17.2866 51.5255C17.4558 51.6514 17.6484 51.7423 17.8532 51.7928C18.058 51.8433 18.2708 51.8523 18.4792 51.8194C18.6875 51.7865 18.8872 51.7123 19.0665 51.6011C19.2457 51.49 19.401 51.3441 19.5231 51.1721C19.6452 51.0001 19.7317 50.8055 19.7776 50.5996C19.8234 50.3937 19.8277 50.1808 19.7901 49.9732L13.1068 7.66971H13.0768C13.023 7.30033 12.8387 6.96244 12.5572 6.71728C12.2758 6.47212 11.9158 6.33592 11.5425 6.33338H4.75C4.33007 6.33338 3.92735 6.16656 3.63041 5.86963C3.33348 5.5727 3.16667 5.16997 3.16667 4.75004C3.16667 4.33012 3.33348 3.92739 3.63041 3.63046C3.92735 3.33353 4.33007 3.16671 4.75 3.16671H11.5425C12.6756 3.1632 13.7723 3.56662 14.633 4.30355C15.4937 5.04048 16.0613 6.06194 16.2323 7.18204L24.8932 61.997C24.952 62.3696 25.1419 62.7089 25.4287 62.9539C25.7155 63.1989 26.0803 63.3335 26.4575 63.3334H41.6116C41.4272 64.3807 41.3056 65.4382 41.2474 66.5H26.4575C25.3244 66.5035 24.2277 66.1001 23.367 65.3632C22.5063 64.6263 21.9387 63.6048 21.7677 62.4847C21.7022 62.0698 21.4745 61.698 21.1348 61.4509C20.9666 61.3286 20.776 61.2406 20.5738 61.1919C20.3716 61.1433 20.1618 61.1349 19.9563 61.1674C19.7509 61.1998 19.5539 61.2724 19.3765 61.381C19.1991 61.4896 19.0449 61.632 18.9225 61.8002C18.6755 62.1399 18.5735 62.5638 18.639 62.9787C18.8661 64.4372 19.4992 65.8023 20.4658 66.9178C21.4323 68.0333 22.6934 68.8543 24.1047 69.2867C22.8625 70.7078 22.1744 72.5292 22.1667 74.4167C22.1667 76.5163 23.0007 78.53 24.4854 80.0146C25.9701 81.4993 27.9837 82.3334 30.0833 82.3334C32.183 82.3334 34.1966 81.4993 35.6813 80.0146C37.1659 78.53 38 76.5163 38 74.4167C37.9942 72.6981 37.4234 71.029 36.3755 69.6667H41.2474C41.5406 74.6564 43.2181 79.4658 46.092 83.5554C48.9659 87.6449 52.9224 90.8528 57.5176 92.8193C62.1129 94.7857 67.1652 95.4329 72.1078 94.6883C77.0503 93.9436 81.6877 91.8366 85.4996 88.6035C89.3115 85.3705 92.1472 81.1393 93.6886 76.3845C95.23 71.6298 95.4162 66.5396 94.2262 61.685C93.0361 56.8304 90.5171 52.4034 86.9515 48.9005C83.3859 45.3976 78.9148 42.9575 74.0398 41.8539ZM30.0833 79.1667C29.1439 79.1667 28.2255 78.8881 27.4444 78.3662C26.6632 77.8443 26.0544 77.1024 25.6949 76.2345C25.3354 75.3665 25.2413 74.4114 25.4246 73.49C25.6079 72.5686 26.0603 71.7223 26.7246 71.058C27.3889 70.3937 28.2352 69.9413 29.1567 69.758C30.0781 69.5747 31.0331 69.6688 31.9011 70.0283C32.769 70.3878 33.5109 70.9966 34.0328 71.7778C34.5548 72.5589 34.8333 73.4772 34.8333 74.4167C34.8333 75.6765 34.3329 76.8847 33.4421 77.7755C32.5513 78.6663 31.3431 79.1667 30.0833 79.1667ZM41.1667 28.5C41.5866 28.5 41.9893 28.3332 42.2863 28.0363C42.5832 27.7394 42.75 27.3366 42.75 26.9167V4.75004C42.75 4.33012 42.9168 3.92739 43.2137 3.63046C43.5107 3.33353 43.9134 3.16671 44.3333 3.16671H47.5C47.9199 3.16671 48.3227 3.33353 48.6196 3.63046C48.9165 3.92739 49.0833 4.33012 49.0833 4.75004V26.9167C49.0833 27.3366 49.2502 27.7394 49.5471 28.0363C49.844 28.3332 50.2467 28.5 50.6667 28.5L52.2722 28.3607L45.8945 36.4167L39.5833 28.5H41.1667ZM21.3069 19H39.5833V25.3334C38.9906 25.3282 38.4085 25.4908 37.9042 25.8023C37.3999 26.1139 36.994 26.5617 36.7333 27.094C36.4797 27.6084 36.3771 28.1841 36.4374 28.7543C36.4976 29.3246 36.7183 29.8661 37.0738 30.3161L43.4071 38.3769C43.7061 38.7569 44.0875 39.0642 44.5224 39.2754C44.9574 39.4866 45.4347 39.5964 45.9183 39.5964C46.4018 39.5964 46.8791 39.4866 47.3141 39.2754C47.7491 39.0642 48.1304 38.7569 48.4294 38.3769L54.7628 30.3114C55.1161 29.8611 55.335 29.3202 55.3941 28.7509C55.4532 28.1817 55.3502 27.6073 55.0968 27.094C54.8364 26.5622 54.431 26.1147 53.9273 25.8032C53.4236 25.4917 52.8422 25.3288 52.25 25.3334V19H74.0525C74.6204 18.9991 75.18 19.1354 75.6838 19.3974C76.1876 19.6594 76.6206 20.0393 76.9459 20.5047C77.2712 20.9701 77.4792 21.5073 77.5522 22.0704C77.6251 22.6336 77.5608 23.206 77.3648 23.739L70.8637 41.314C69.94 41.2177 69.012 41.1685 68.0833 41.1667C63.5206 41.1709 59.0339 42.3357 55.0453 44.5516C51.0567 46.7674 47.6974 49.9615 45.2833 53.8334H26.809L21.3069 19ZM42.3653 60.1667H27.8097L27.3093 57H43.5828C43.1075 58.0283 42.6986 59.086 42.3589 60.1667H42.3653ZM68.0833 91.8334C63.386 91.8334 58.7942 90.4405 54.8885 87.8308C50.9829 85.2211 47.9388 81.5118 46.1412 77.1721C44.3436 72.8324 43.8733 68.057 44.7897 63.45C45.7061 58.8429 47.9681 54.6111 51.2896 51.2896C54.611 47.9681 58.8429 45.7061 63.4499 44.7897C68.057 43.8733 72.8323 44.3437 77.1721 46.1412C81.5118 47.9388 85.2211 50.9829 87.8307 54.8886C90.4404 58.7943 91.8333 63.3861 91.8333 68.0834C91.8262 74.3801 89.3217 80.4168 84.8693 84.8693C80.4168 89.3217 74.38 91.8263 68.0833 91.8334Z" fill="#4F4F4F"/>
<path d="M76.3167 57.6331L63.1624 75.1733L59.7028 71.7137C59.4042 71.4253 59.0043 71.2657 58.5891 71.2693C58.174 71.2729 57.7768 71.4394 57.4833 71.733C57.1897 72.0265 57.0232 72.4236 57.0196 72.8388C57.016 73.2539 57.1756 73.6539 57.464 73.9525L62.214 78.7025C62.5109 78.9995 62.9135 79.1663 63.3334 79.1664H63.4458C63.6724 79.1498 63.8927 79.0847 64.0919 78.9754C64.2911 78.8661 64.4644 78.7153 64.6001 78.5331L78.8501 59.5331C79.102 59.1972 79.2102 58.7749 79.1508 58.3592C79.0914 57.9435 78.8693 57.5684 78.5334 57.3164C78.1975 57.0645 77.7752 56.9563 77.3595 57.0157C76.9438 57.0751 76.5687 57.2972 76.3167 57.6331Z" fill="#4F4F4F"/>
<path d="M20.7781 56.2293C20.7291 55.92 20.5895 55.6321 20.3769 55.4022C20.1643 55.1722 19.8883 55.0104 19.5838 54.9373C19.2793 54.8642 18.9599 54.883 18.6661 54.9914C18.3723 55.0999 18.1172 55.293 17.9332 55.5464C17.7491 55.7997 17.6443 56.102 17.6321 56.415C17.6198 56.7279 17.7006 57.0374 17.8643 57.3044C18.028 57.5714 18.2672 57.7839 18.5516 57.9149C18.8361 58.046 19.153 58.0897 19.4623 58.0407C19.8769 57.9749 20.2485 57.7471 20.4952 57.4074C20.742 57.0678 20.8437 56.644 20.7781 56.2293Z" fill="#4F4F4F"/>
</svg>
