<svg width="99" height="99" viewBox="0 0 99 99" fill="none" xmlns="http://www.w3.org/2000/svg">
<path d="M66.6417 88.4581H32.3584L37.0334 79.1082H61.9667L66.6417 88.4581Z" fill="#F8A23D"/>
<path d="M61.9669 79.1082H57.2919L61.9669 88.4581H66.6419L61.9669 79.1082Z" fill="white"/>
<path d="M75.992 91.5757C75.9895 92.4015 75.6604 93.1928 75.0764 93.7767C74.4925 94.3607 73.7012 94.6899 72.8753 94.6923H26.1253C25.3006 94.6862 24.5114 94.3559 23.9283 93.7727C23.3451 93.1895 23.0148 92.4004 23.0087 91.5757C23.0111 90.7498 23.3403 89.9585 23.9242 89.3746C24.5082 88.7906 25.2995 88.4615 26.1253 88.459H72.8753C73.7 88.4651 74.4892 88.7954 75.0724 89.3786C75.6556 89.9618 75.9859 90.751 75.992 91.5757Z" fill="#EAECF3"/>
<path d="M75.0723 89.3777C74.7866 89.0847 74.4448 88.8523 74.0673 88.6944C73.6898 88.5364 73.2843 88.4561 72.8751 88.4583H68.2001C69.0248 88.4644 69.814 88.7947 70.3971 89.3779C70.9803 89.9611 71.3106 90.7503 71.3167 91.575C71.3143 92.4008 70.9851 93.1921 70.4012 93.7761C69.8172 94.36 69.0259 94.6892 68.2001 94.6916H72.8751C73.7009 94.6892 74.4922 94.36 75.0762 93.7761C75.6601 93.1921 75.9893 92.4008 75.9917 91.575C75.9939 91.1657 75.9136 90.7603 75.7557 90.3828C75.5977 90.0053 75.3653 89.6634 75.0723 89.3777Z" fill="white"/>
<path d="M94.6918 7.42526V69.7586H4.30847V7.42526C4.31094 6.59943 4.64009 5.80812 5.22405 5.22417C5.808 4.64021 6.59931 4.31106 7.42514 4.30859H91.5751C92.401 4.31106 93.1923 4.64021 93.7762 5.22417C94.3602 5.80812 94.6893 6.59943 94.6918 7.42526Z" fill="#EAECF3"/>
<path d="M91.5753 4.30859H86.9003C87.7261 4.31106 88.5174 4.64021 89.1014 5.22417C89.6853 5.80812 90.0145 6.59943 90.0169 7.42526V69.7586H94.692V7.42526C94.6895 6.59943 94.3603 5.80812 93.7764 5.22417C93.1924 4.64021 92.4011 4.31106 91.5753 4.30859Z" fill="#F8A23D"/>
<path d="M94.6918 69.7578V75.9911C94.6893 76.817 94.3602 77.6083 93.7762 78.1922C93.1923 78.7762 92.401 79.1053 91.5751 79.1078H7.42514C6.59931 79.1053 5.808 78.7762 5.22405 78.1922C4.64009 77.6083 4.31094 76.817 4.30847 75.9911V69.7578H94.6918Z" fill="#EAECF3"/>
<path d="M90.0169 69.7578V75.9911C90.0145 76.817 89.6853 77.6083 89.1014 78.1922C88.5174 78.7762 87.7261 79.1053 86.9003 79.1078H91.5753C92.4011 79.1053 93.1924 78.7762 93.7764 78.1922C94.3603 77.6083 94.6895 76.817 94.692 75.9911V69.7578H90.0169Z" fill="#EAECF3"/>
<path d="M49.4999 43.2667C52.9425 43.2667 55.7333 40.476 55.7333 37.0334C55.7333 33.5908 52.9425 30.8 49.4999 30.8C46.0574 30.8 43.2666 33.5908 43.2666 37.0334C43.2666 40.476 46.0574 43.2667 49.4999 43.2667Z" fill="#F8A23D"/>
<path d="M37.0334 88.4596L41.7084 79.1096H37.0334L32.3584 88.4596H37.0334Z" fill="white"/>
<path d="M30.8003 88.4592H26.1253C25.2987 88.4592 24.506 88.7876 23.9215 89.3721C23.337 89.9566 23.0087 90.7493 23.0087 91.5759C23.0087 92.4025 23.337 93.1952 23.9215 93.7797C24.506 94.3642 25.2987 94.6926 26.1253 94.6926H30.8003C30.3911 94.6947 29.9856 94.6145 29.6081 94.4565C29.2306 94.2985 28.8888 94.0661 28.6031 93.7732C28.1698 93.3373 27.8751 92.7832 27.7559 92.1803C27.6367 91.5775 27.6984 90.9528 27.9333 90.385C28.1681 89.8171 28.5655 89.3313 29.0757 88.9886C29.5858 88.646 30.1858 88.4618 30.8003 88.4592Z" fill="white"/>
<path d="M7.42514 79.1088H12.1001C11.2743 79.1064 10.483 78.7772 9.89905 78.1933C9.31509 77.6093 8.98594 76.818 8.98347 75.9922V7.4255C8.98594 6.59967 9.31509 5.80837 9.89905 5.22441C10.483 4.64046 11.2743 4.3113 12.1001 4.30884H7.42514C6.59931 4.3113 5.808 4.64046 5.22405 5.22441C4.64009 5.80837 4.31094 6.59967 4.30847 7.4255V75.9922C4.31094 76.818 4.64009 77.6093 5.22405 78.1933C5.808 78.7772 6.59931 79.1064 7.42514 79.1088Z" fill="white"/>
<path d="M2.75 7.42603H5.86667V19.8927H2.75V7.42603Z" fill="white"/>
<path d="M4.30833 15.2163C5.16898 15.2163 5.86667 14.5186 5.86667 13.6579C5.86667 12.7973 5.16898 12.0996 4.30833 12.0996C3.44769 12.0996 2.75 12.7973 2.75 13.6579C2.75 14.5186 3.44769 15.2163 4.30833 15.2163Z" fill="#4F4F4F"/>
<path d="M91.575 2.75H7.425C6.18511 2.75 4.99601 3.24254 4.11928 4.11928C3.24254 4.99601 2.75 6.18511 2.75 7.425C2.75 7.8383 2.91418 8.23466 3.20643 8.52691C3.49867 8.81915 3.89504 8.98333 4.30833 8.98333C4.72163 8.98333 5.118 8.81915 5.41024 8.52691C5.70249 8.23466 5.86667 7.8383 5.86667 7.425C5.86667 7.0117 6.03085 6.61534 6.32309 6.32309C6.61534 6.03085 7.0117 5.86667 7.425 5.86667H91.575C91.9883 5.86667 92.3847 6.03085 92.6769 6.32309C92.9691 6.61534 93.1333 7.0117 93.1333 7.425V68.2H5.86667V19.8917C5.86667 19.4784 5.70249 19.082 5.41024 18.7898C5.118 18.4975 4.72163 18.3333 4.30833 18.3333C3.89504 18.3333 3.49867 18.4975 3.20643 18.7898C2.91418 19.082 2.75 19.4784 2.75 19.8917V75.9917C2.75 77.2316 3.24254 78.4207 4.11928 79.2974C4.99601 80.1741 6.18511 80.6667 7.425 80.6667H34.5119L31.3953 86.9H26.125C24.8851 86.9 23.696 87.3925 22.8193 88.2693C21.9425 89.146 21.45 90.3351 21.45 91.575C21.45 92.8149 21.9425 94.004 22.8193 94.8807C23.696 95.7575 24.8851 96.25 26.125 96.25H72.875C74.1149 96.25 75.304 95.7575 76.1807 94.8807C77.0574 94.004 77.55 92.8149 77.55 91.575C77.55 90.3351 77.0574 89.146 76.1807 88.2693C75.304 87.3925 74.1149 86.9 72.875 86.9H67.6047L64.488 80.6667H91.575C92.8149 80.6667 94.004 80.1741 94.8807 79.2974C95.7575 78.4207 96.25 77.2316 96.25 75.9917V7.425C96.25 6.18511 95.7575 4.99601 94.8807 4.11928C94.004 3.24254 92.8149 2.75 91.575 2.75V2.75ZM74.4333 91.575C74.4333 91.9883 74.2691 92.3847 73.9769 92.6769C73.6847 92.9691 73.2883 93.1333 72.875 93.1333H26.125C25.7117 93.1333 25.3153 92.9691 25.0231 92.6769C24.7308 92.3847 24.5667 91.9883 24.5667 91.575C24.5667 91.1617 24.7308 90.7653 25.0231 90.4731C25.3153 90.1808 25.7117 90.0167 26.125 90.0167H72.875C73.2883 90.0167 73.6847 90.1808 73.9769 90.4731C74.2691 90.7653 74.4333 91.1617 74.4333 91.575ZM64.1203 86.9H34.8797L37.9964 80.6667H61.0036L64.1203 86.9ZM91.575 77.55H7.425C7.0117 77.55 6.61534 77.3858 6.32309 77.0936C6.03085 76.8013 5.86667 76.405 5.86667 75.9917V71.3167H93.1333V75.9917C93.1333 76.405 92.9691 76.8013 92.6769 77.0936C92.3847 77.3858 91.9883 77.55 91.575 77.55Z" fill="#4F4F4F"/>
<path d="M24.3268 51.0815C26.5303 54.753 31.1227 56.5793 36.8886 56.5793C37.3202 56.5793 37.7706 56.545 38.2147 56.5248C41.0322 61.8184 45.0122 65.0832 49.5002 65.0832C53.9882 65.0832 57.9681 61.8184 60.7856 56.5248C61.2297 56.545 61.6801 56.5793 62.1118 56.5793C67.8776 56.5793 72.4716 54.753 74.6735 51.0815C75.373 49.8321 75.8093 48.4527 75.9556 47.0283C76.102 45.6038 75.9552 44.1645 75.5243 42.799C74.9351 40.7497 74.0309 38.8046 72.844 37.0332C74.0309 35.2617 74.9351 33.3166 75.5243 31.2673C75.9543 29.902 76.1003 28.4632 75.9535 27.0393C75.8066 25.6155 75.3699 24.2367 74.6704 22.9879C72.3033 19.0422 67.1592 17.2501 60.7825 17.5431C57.9681 12.2557 53.9882 8.98315 49.5002 8.98315C45.0122 8.98315 41.0337 12.2557 38.2163 17.5384C31.838 17.2454 26.6939 19.0391 24.3268 22.9848C23.6273 24.2342 23.191 25.6136 23.0447 27.038C22.8983 28.4625 23.0451 29.9018 23.476 31.2673C24.0652 33.3166 24.9694 35.2617 26.1563 37.0332C24.9694 38.8046 24.0652 40.7497 23.476 42.799C23.0451 44.1645 22.8983 45.6038 23.0447 47.0283C23.191 48.4527 23.6273 49.8321 24.3268 51.0815ZM49.5002 61.9665C46.5471 61.9665 43.7951 59.7848 41.6321 56.2007C44.3125 55.7809 46.947 55.1078 49.5002 54.1904C52.0533 55.108 54.6878 55.7811 57.3682 56.2007C55.2052 59.7848 52.461 61.9665 49.5002 61.9665ZM37.0335 37.0332C37.0311 34.5805 37.2223 32.1315 37.6054 29.709C39.3165 28.44 41.1087 27.2844 42.9707 26.2495C45.071 25.0873 47.2532 24.08 49.5002 23.2357C51.7471 24.08 53.9293 25.0873 56.0296 26.2495C57.8918 27.284 59.6841 28.4397 61.3949 29.709C62.1581 34.5619 62.1581 39.5044 61.3949 44.3573C59.6841 45.6266 57.8918 46.7823 56.0296 47.8168C53.9292 48.9818 51.747 49.9927 49.5002 50.8415C47.2533 49.9927 45.0711 48.9818 42.9707 47.8168C41.1087 46.7819 39.3165 45.6263 37.6054 44.3573C37.2223 41.9348 37.0311 39.4858 37.0335 37.0332ZM34.1241 41.4978C32.6136 40.1326 31.2246 38.6388 29.9727 37.0332C31.2246 35.4275 32.6136 33.9337 34.1241 32.5685C33.9994 34.0225 33.9168 35.506 33.9168 37.0332C33.9168 38.5603 33.9994 40.0439 34.1241 41.4978ZM38.5638 25.2631C38.9792 23.7593 39.4999 22.2867 40.1221 20.8561C41.7423 21.0548 43.3474 21.362 44.9265 21.7755C43.7733 22.3147 42.6186 22.885 41.4654 23.5255C40.4618 24.0787 39.5003 24.6615 38.5638 25.2631ZM54.0817 21.7755C55.6608 21.3621 57.2658 21.0549 58.886 20.8561C59.5056 22.2869 60.0237 23.7595 60.4366 25.2631C59.5015 24.6615 58.5385 24.0787 57.5427 23.5255C56.3896 22.885 55.2348 22.3147 54.0817 21.7755ZM64.8762 32.5685C66.3867 33.9337 67.7757 35.4275 69.0276 37.0332C67.7757 38.6388 66.3867 40.1326 64.8762 41.4978C65.0009 40.0439 65.0835 38.5603 65.0835 37.0332C65.0835 35.506 65.0009 34.0225 64.8762 32.5685ZM60.4366 48.8032C60.0223 50.3119 59.5016 51.7893 58.8782 53.2242C57.2556 53.0244 55.648 52.7173 54.0661 52.3048C55.2255 51.7641 56.3849 51.1906 57.5427 50.547C58.5385 49.9876 59.5 49.4048 60.4366 48.8032ZM41.4576 50.5408C42.6154 51.1844 43.7748 51.7578 44.9327 52.2986C43.3509 52.7134 41.7433 53.0226 40.1206 53.2242C39.4972 51.7893 38.9765 50.3119 38.5622 48.8032C39.5003 49.4048 40.4618 49.9876 41.4576 50.5408ZM72.5183 43.6093C72.8398 44.5703 72.9599 45.5873 72.8708 46.5968C72.7818 47.6062 72.4857 48.5865 72.0009 49.4764C70.4036 52.1396 66.7977 53.4284 62.2068 53.4268C63.1278 51.0575 63.8177 48.6047 64.2669 46.1027C66.6885 44.2346 68.8961 42.1043 70.8493 39.7509C71.5702 40.9595 72.1312 42.2564 72.5183 43.6093ZM62.224 20.627C66.8101 20.627 70.4052 21.9282 72.0009 24.5899C72.4857 25.4798 72.7818 26.4601 72.8708 27.4695C72.9599 28.479 72.8398 29.496 72.5183 30.457C72.1312 31.8099 71.5702 33.1069 70.8493 34.3154C68.8944 31.9633 66.6852 29.8347 64.2623 27.9683C63.8129 25.4602 63.1214 23.0016 62.1975 20.627H62.224ZM49.5002 12.0998C52.461 12.0998 55.2115 14.2815 57.376 17.8734C54.693 18.2903 52.0558 18.9619 49.5002 19.879C46.9454 18.9589 44.3087 18.2847 41.6259 17.8657C43.7904 14.2815 46.5393 12.0998 49.5002 12.0998ZM26.482 30.457C26.1605 29.496 26.0405 28.479 26.1295 27.4695C26.2185 26.4601 26.5146 25.4798 26.9994 24.5899C28.5951 21.9282 32.1902 20.627 36.7764 20.627H36.7982C35.8742 23.0016 35.1827 25.4602 34.7334 27.9683C32.312 29.835 30.1045 31.9636 28.151 34.3154C27.4302 33.1069 26.8692 31.8099 26.482 30.457ZM26.482 43.6093C26.8692 42.2564 27.4302 40.9595 28.151 39.7509C30.106 42.103 32.3151 44.2316 34.7381 46.098C35.1873 48.6 35.8772 51.0528 36.7982 53.4221C32.2073 53.4221 28.5998 52.135 27.0041 49.4718C26.5192 48.5828 26.2226 47.6035 26.1328 46.5949C26.043 45.5863 26.1619 44.57 26.482 43.6093Z" fill="#4F4F4F"/>
<path d="M49.4998 44.8255C51.0408 44.8255 52.5473 44.3686 53.8286 43.5124C55.11 42.6562 56.1086 41.4393 56.6984 40.0156C57.2881 38.5919 57.4424 37.0252 57.1418 35.5138C56.8411 34.0023 56.099 32.614 55.0093 31.5243C53.9197 30.4346 52.5313 29.6925 51.0199 29.3919C49.5084 29.0913 47.9418 29.2456 46.5181 29.8353C45.0943 30.425 43.8774 31.4237 43.0213 32.705C42.1651 33.9864 41.7081 35.4928 41.7081 37.0339C41.7106 39.0996 42.5323 41.08 43.993 42.5407C45.4537 44.0014 47.4341 44.8231 49.4998 44.8255ZM49.4998 32.3589C50.4244 32.3589 51.3283 32.633 52.0971 33.1467C52.8659 33.6604 53.4651 34.3906 53.8189 35.2448C54.1728 36.0991 54.2654 37.039 54.085 37.9459C53.9046 38.8528 53.4593 39.6858 52.8055 40.3396C52.1517 40.9934 51.3187 41.4386 50.4118 41.619C49.505 41.7994 48.565 41.7068 47.7108 41.353C46.8565 40.9992 46.1264 40.3999 45.6127 39.6311C45.099 38.8623 44.8248 37.9585 44.8248 37.0339C44.8248 35.794 45.3173 34.6049 46.1941 33.7281C47.0708 32.8514 48.2599 32.3589 49.4998 32.3589Z" fill="#4F4F4F"/>
</svg>
