<svg width="92" height="92" viewBox="0 0 92 92" fill="none" xmlns="http://www.w3.org/2000/svg">
<path d="M90.4446 62.8513V65.9172C90.4421 66.7296 90.1183 67.508 89.5439 68.0825C88.9694 68.6569 88.191 68.9807 87.3786 68.9831H44.4558C43.6427 68.9831 42.8629 68.6601 42.2879 68.0852C41.7129 67.5102 41.3899 66.7304 41.3899 65.9172V62.8513C41.3923 62.0389 41.7161 61.2605 42.2906 60.6861C42.865 60.1116 43.6434 59.7878 44.4558 59.7854H87.3786C88.191 59.7878 88.9694 60.1116 89.5439 60.6861C90.1183 61.2605 90.4421 62.0389 90.4446 62.8513Z" fill="#EAECF3"/>
<path d="M87.3789 59.7854H82.78C83.5924 59.7878 84.3708 60.1116 84.9452 60.6861C85.5197 61.2605 85.8435 62.0389 85.8459 62.8513V65.9172C85.8435 66.7296 85.5197 67.508 84.9452 68.0825C84.3708 68.6569 83.5924 68.9807 82.78 68.9831H87.3789C88.1912 68.9807 88.9697 68.6569 89.5441 68.0825C90.1186 67.508 90.4424 66.7296 90.4448 65.9172V62.8513C90.4424 62.0389 90.1186 61.2605 89.5441 60.6861C88.9697 60.1116 88.1912 59.7878 87.3789 59.7854Z" fill="white"/>
<path d="M85.8457 68.9825L80.3423 88.2212C80.1612 88.8619 79.7755 89.4258 79.2442 89.8271C78.7129 90.2284 78.0649 90.445 77.3991 90.444H54.4354C53.7695 90.445 53.1216 90.2284 52.5902 89.8271C52.0589 89.4258 51.6733 88.8619 51.4921 88.2212L47.7363 75.1144L45.9888 68.9825H85.8457Z" fill="#F8A23D"/>
<path d="M65.9171 56.7198V59.7858H58.2523C56.2195 59.7858 54.2699 58.9782 52.8325 57.5408C51.3951 56.1034 50.5875 54.1538 50.5875 52.121V50.588C50.5875 50.1814 50.749 49.7915 51.0365 49.504C51.324 49.2166 51.7139 49.0551 52.1205 49.0551H58.2523C60.2851 49.0551 62.2347 49.8626 63.6721 51.3C65.1096 52.7374 65.9171 54.687 65.9171 56.7198Z" fill="#EAECF3"/>
<path d="M81.2472 50.588V52.121C81.2472 54.1538 80.4396 56.1034 79.0022 57.5408C77.5648 58.9782 75.6152 59.7858 73.5824 59.7858H65.9176V56.7198C65.9176 54.687 66.7251 52.7374 68.1626 51.3C69.6 49.8626 71.5496 49.0551 73.5824 49.0551H79.7142C80.1208 49.0551 80.5107 49.2166 80.7982 49.504C81.0857 49.7915 81.2472 50.1814 81.2472 50.588Z" fill="#EAECF3"/>
<path d="M79.7139 49.0551H75.115C75.5216 49.0551 75.9115 49.2166 76.199 49.504C76.4864 49.7915 76.6479 50.1814 76.6479 50.588V52.121C76.6479 54.1538 75.8404 56.1034 74.403 57.5408C72.9656 58.9782 71.016 59.7858 68.9832 59.7858H73.582C75.6149 59.7858 77.5644 58.9782 79.0019 57.5408C80.4393 56.1034 81.2468 54.1538 81.2468 52.121V50.588C81.2468 50.1814 81.0853 49.7915 80.7978 49.504C80.5103 49.2166 80.1204 49.0551 79.7139 49.0551Z" fill="white"/>
<path d="M79.7139 30.6591C79.7234 33.9253 78.577 37.0896 76.4777 39.592C74.3784 42.0943 71.4616 43.7733 68.2434 44.3318C65.0252 44.8903 61.7132 44.2923 58.8935 42.6436C56.0738 40.9949 53.9283 38.4019 52.8367 35.3235C51.745 32.245 51.7776 28.8796 52.9287 25.8229C54.0798 22.7661 56.2752 20.2152 59.1262 18.6214C61.9773 17.0277 65.3003 16.494 68.507 17.1147C71.7138 17.7355 74.5976 19.4707 76.648 22.0132C78.6334 24.4571 79.7161 27.5104 79.7139 30.6591Z" fill="#EAECF3"/>
<path d="M76.6481 22.0134C75.1202 20.0895 73.1006 18.6147 70.803 17.7449C68.5054 16.8751 66.0153 16.6429 63.5965 17.0726C66.8115 17.6101 69.7317 19.2703 71.8381 21.758C73.9444 24.2456 75.1003 27.3996 75.1003 30.6593C75.1003 33.9189 73.9444 37.0729 71.8381 39.5606C69.7317 42.0482 66.8115 43.7084 63.5965 44.2459C66.3569 44.7235 69.1974 44.3479 71.7388 43.169C74.2801 41.9902 76.4015 40.0643 77.8198 37.6484C79.238 35.2325 79.8857 32.4415 79.6764 29.6479C79.467 26.8542 78.4106 24.1909 76.6481 22.0134Z" fill="white"/>
<path d="M47.7365 75.1148H3.0661C2.65953 75.1148 2.26962 74.9533 1.98214 74.6658C1.69465 74.3783 1.53314 73.9884 1.53314 73.5818V68.9829C1.53314 68.5763 1.69465 68.1864 1.98214 67.8989C2.26962 67.6115 2.65953 67.45 3.0661 67.45H41.804C42.0728 67.9156 42.4593 68.3023 42.9248 68.5714C43.3903 68.8404 43.9183 68.9824 44.456 68.9829H45.9889L47.7365 75.1148Z" fill="#F8A23D"/>
<path d="M45.9887 68.9829H44.4558C43.9181 68.9824 43.3901 68.8404 42.9246 68.5714C42.4591 68.3023 42.0726 67.9156 41.8038 67.45H37.2049C37.4737 67.9156 37.8603 68.3023 38.3257 68.5714C38.7912 68.8404 39.3193 68.9824 39.8569 68.9829H41.3899L43.1374 75.1148H47.7363L45.9887 68.9829Z" fill="#F8A23D"/>
<path d="M52.1205 30.6592C52.1177 33.5139 53.0014 36.299 54.6495 38.6298C56.2977 40.9607 58.6289 42.7223 61.3212 43.6713C64.0135 44.6204 66.9341 44.71 69.6795 43.9279C72.425 43.1458 74.8598 41.5304 76.6478 39.3051V49.0547H73.5819C71.549 49.0547 69.5995 49.8622 68.1621 51.2996C66.7246 52.7371 65.9171 54.6866 65.9171 56.7195C65.9171 54.6866 65.1096 52.7371 63.6721 51.2996C62.2347 49.8622 60.2851 49.0547 58.2523 49.0547H52.1205C51.7139 49.0547 51.324 49.2162 51.0365 49.5037C50.749 49.7911 50.5875 50.1811 50.5875 50.5876V52.1206C50.5875 54.1534 51.395 56.103 52.8325 57.5404C54.2699 58.9778 56.2195 59.7854 58.2523 59.7854H44.4557C43.6433 59.7878 42.8649 60.1116 42.2904 60.6861C41.716 61.2605 41.3922 62.0389 41.3898 62.8513V65.9172C41.3907 66.4557 41.5335 66.9844 41.8037 67.4502H4.59875V4.59888C4.60118 3.78649 4.92498 3.00807 5.49942 2.43363C6.07387 1.85918 6.85229 1.53539 7.66467 1.53296H73.5819C74.3943 1.53539 75.1727 1.85918 75.7471 2.43363C76.3216 3.00807 76.6454 3.78649 76.6478 4.59888V22.0133C74.8598 19.7879 72.425 18.1726 69.6795 17.3905C66.9341 16.6083 64.0135 16.698 61.3212 17.647C58.6289 18.5961 56.2977 20.3577 54.6495 22.6885C53.0014 25.0194 52.1177 27.8045 52.1205 30.6592Z" fill="#EAECF3"/>
<path d="M52.121 30.6595C52.1241 27.4052 53.2776 24.2567 55.3776 21.7705C57.4775 19.2842 60.3887 17.6204 63.5967 17.0729C61.6125 16.7227 59.5758 16.8113 57.6295 17.3326C55.6833 17.8538 53.8748 18.795 52.3312 20.0899C50.7876 21.3849 49.5465 23.0023 48.6949 24.8283C47.8433 26.6543 47.402 28.6447 47.402 30.6595C47.402 32.6744 47.8433 34.6648 48.6949 36.4908C49.5465 38.3168 50.7876 39.9342 52.3312 41.2291C53.8748 42.5241 55.6833 43.4653 57.6295 43.9865C59.5758 44.5077 61.6125 44.5964 63.5967 44.2462C60.3887 43.6987 57.4775 42.0348 55.3776 39.5486C53.2776 37.0624 52.1241 33.9139 52.121 30.6595Z" fill="#F8A23D"/>
<path d="M50.5876 52.1207V50.5878C50.5876 50.1812 50.7492 49.7913 51.0366 49.5038C51.3241 49.2163 51.714 49.0548 52.1206 49.0548H47.5217C47.1152 49.0548 46.7252 49.2163 46.4378 49.5038C46.1503 49.7913 45.9888 50.1812 45.9888 50.5878V52.1207C45.9888 54.1536 46.7963 56.1031 48.2337 57.5406C49.6712 58.978 51.6207 59.7855 53.6536 59.7855H58.2524C56.2196 59.7855 54.27 58.978 52.8326 57.5406C51.3952 56.1031 50.5876 54.1536 50.5876 52.1207Z" fill="#F8A23D"/>
<path d="M36.7912 62.8511V65.917C36.7922 66.4555 36.9349 66.9842 37.2051 67.45H41.804C41.5338 66.9842 41.391 66.4555 41.3901 65.917V62.8511C41.3925 62.0387 41.7163 61.2603 42.2907 60.6858C42.8652 60.1114 43.6436 59.7876 44.456 59.7852H39.8571C39.0447 59.7876 38.2663 60.1114 37.6919 60.6858C37.1174 61.2603 36.7936 62.0387 36.7912 62.8511Z" fill="#F8A23D"/>
<path d="M72.0491 43.0129V49.0543H68.9832C66.9748 49.0538 65.0471 49.8447 63.6178 51.2556C64.3458 51.9671 64.9243 52.8169 65.3192 53.7552C65.7141 54.6934 65.9174 55.7012 65.9172 56.7191C65.9172 54.6863 66.7248 52.7367 68.1622 51.2993C69.5996 49.8619 71.5492 49.0543 73.582 49.0543H76.648V39.3047C75.4017 40.8593 73.8325 42.1245 72.0491 43.0129Z" fill="white"/>
<path d="M73.582 1.53271H68.9832C69.7955 1.53514 70.574 1.85894 71.1484 2.43338C71.7229 3.00783 72.0466 3.78625 72.0491 4.59863V18.3048C73.8325 19.1932 75.4017 20.4585 76.648 22.013V4.59863C76.6455 3.78625 76.3217 3.00783 75.7473 2.43338C75.1728 1.85894 74.3944 1.53514 73.582 1.53271Z" fill="white"/>
<path d="M3.0661 75.1153H7.66498C7.25841 75.1153 6.8685 74.9538 6.58101 74.6663C6.29353 74.3789 6.13202 73.9889 6.13202 73.5824V68.9835C6.13202 68.5769 6.29353 68.187 6.58101 67.8995C6.8685 67.6121 7.25841 67.4505 7.66498 67.4505H9.19794V4.59924C9.20036 3.78686 9.52416 3.00844 10.0986 2.43399C10.673 1.85955 11.4515 1.53575 12.2639 1.53333H7.66498C6.85259 1.53575 6.07417 1.85955 5.49973 2.43399C4.92528 3.00844 4.60149 3.78686 4.59906 4.59924V67.4505H3.0661C2.65953 67.4505 2.26962 67.6121 1.98214 67.8995C1.69465 68.187 1.53314 68.5769 1.53314 68.9835V73.5824C1.53314 73.9889 1.69465 74.3789 1.98214 74.6663C2.26962 74.9538 2.65953 75.1153 3.0661 75.1153Z" fill="white"/>
<path d="M3.06561 4.59924H6.13153V16.8629H3.06561V4.59924Z" fill="white"/>
<path d="M87.3786 58.2524H80.419C81.938 56.5712 82.7791 54.3863 82.7798 52.1206V50.5876C82.7798 49.7745 82.4567 48.9947 81.8818 48.4197C81.3068 47.8447 80.527 47.5217 79.7138 47.5217H78.1809V39.8171C80.1706 37.1786 81.2469 33.9638 81.2469 30.6592C81.2469 27.3545 80.1706 24.1398 78.1809 21.5013V4.59888C78.1809 3.37918 77.6964 2.20944 76.8339 1.34698C75.9714 0.484523 74.8017 0 73.582 0L7.66479 0C6.4451 0 5.27535 0.484523 4.4129 1.34698C3.55044 2.20944 3.06592 3.37918 3.06592 4.59888C3.06592 5.00544 3.22742 5.39536 3.51491 5.68284C3.8024 5.97033 4.19231 6.13183 4.59888 6.13183C5.00544 6.13183 5.39536 5.97033 5.68284 5.68284C5.97033 5.39536 6.13183 5.00544 6.13183 4.59888C6.13183 4.19231 6.29334 3.8024 6.58083 3.51491C6.86831 3.22742 7.25823 3.06592 7.66479 3.06592H73.582C73.9886 3.06592 74.3785 3.22742 74.666 3.51491C74.9535 3.8024 75.115 4.19231 75.115 4.59888V18.4246C73.2259 17.0039 71.0336 16.0397 68.7098 15.6073C66.386 15.1749 63.9937 15.2861 61.72 15.9323C59.4463 16.5784 57.353 17.742 55.6039 19.3318C53.8548 20.9217 52.4973 22.8947 51.6377 25.0966C50.7781 27.2984 50.4396 29.6693 50.6489 32.0237C50.8581 34.3782 51.6094 36.6522 52.8438 38.668C54.0783 40.6837 55.7624 42.3864 57.7645 43.6429C59.7666 44.8994 62.0323 45.6755 64.3843 45.9106V49.8825C62.7031 48.3635 60.5182 47.5223 58.2524 47.5217H52.1206C51.3075 47.5217 50.5276 47.8447 49.9527 48.4197C49.3777 48.9947 49.0547 49.7745 49.0547 50.5876V52.1206C49.0553 54.3863 49.8965 56.5712 51.4154 58.2524H44.4558C43.2361 58.2524 42.0664 58.7369 41.2039 59.5994C40.3414 60.4619 39.8569 61.6316 39.8569 62.8513V65.9172H6.13183V16.8625C6.13183 16.456 5.97033 16.0661 5.68284 15.7786C5.39536 15.4911 5.00544 15.3296 4.59888 15.3296C4.19231 15.3296 3.8024 15.4911 3.51491 15.7786C3.22742 16.0661 3.06592 16.456 3.06592 16.8625V65.9172C2.25279 65.9172 1.47296 66.2402 0.897986 66.8152C0.323015 67.3902 0 68.17 0 68.9831L0 73.582C0 74.3951 0.323015 75.175 0.897986 75.7499C1.47296 76.3249 2.25279 76.6479 3.06592 76.6479H18.0199L6.52274 89.419C6.38337 89.5678 6.27506 89.7428 6.20418 89.934C6.13329 90.1251 6.10124 90.3285 6.10989 90.5322C6.11855 90.7358 6.16775 90.9357 6.2546 91.1202C6.34146 91.3046 6.46422 91.4698 6.61572 91.6063C6.76722 91.7427 6.9444 91.8475 7.1369 91.9146C7.3294 91.9817 7.53335 92.0097 7.73681 91.997C7.94028 91.9844 8.13917 91.9312 8.32185 91.8407C8.50453 91.7503 8.66733 91.6243 8.80072 91.4701L22.1436 76.6479H46.5835L50.0112 88.6418C50.2887 89.6012 50.8696 90.4448 51.667 91.0462C52.4643 91.6476 53.4351 91.9744 54.4338 91.9775H77.4006C78.3993 91.9744 79.3701 91.6476 80.1675 91.0462C80.9648 90.4448 81.5458 89.6012 81.8232 88.6418L87.0031 70.5161H87.3786C88.5983 70.5161 89.7681 70.0316 90.6305 69.1691C91.493 68.3066 91.9775 67.1369 91.9775 65.9172V62.8513C91.9775 61.6316 91.493 60.4619 90.6305 59.5994C89.7681 58.7369 88.5983 58.2524 87.3786 58.2524ZM79.7138 52.1206C79.7138 53.7468 79.0678 55.3065 77.9179 56.4564C76.7679 57.6064 75.2083 58.2524 73.582 58.2524H67.4502V56.7195C67.4502 55.0932 68.0962 53.5335 69.2461 52.3836C70.3961 51.2337 71.9557 50.5876 73.582 50.5876H79.7138V52.1206ZM73.582 47.5217C71.3163 47.5223 69.1313 48.3635 67.4502 49.8825V45.9106C70.2337 45.6282 72.8857 44.5843 75.115 42.8937V47.5217H73.582ZM53.6535 30.6592C53.6535 28.2336 54.3728 25.8626 55.7203 23.8458C57.0679 21.8291 58.9832 20.2572 61.2241 19.329C63.465 18.4008 65.9308 18.1579 68.3097 18.6311C70.6887 19.1043 72.8738 20.2723 74.5889 21.9874C76.304 23.7025 77.472 25.8877 77.9452 28.2666C78.4184 30.6456 78.1756 33.1114 77.2474 35.3523C76.3192 37.5932 74.7473 39.5085 72.7305 40.856C70.7138 42.2036 68.3427 42.9228 65.9172 42.9228C62.6658 42.9192 59.5486 41.6259 57.2495 39.3269C54.9504 37.0278 53.6572 33.9106 53.6535 30.6592ZM52.1206 52.1206V50.5876H58.2524C59.8787 50.5876 61.4383 51.2337 62.5883 52.3836C63.7382 53.5335 64.3843 55.0932 64.3843 56.7195V58.2524H58.2524C56.6262 58.2524 55.0665 57.6064 53.9166 56.4564C52.7666 55.3065 52.1206 53.7468 52.1206 52.1206ZM3.06592 73.582V68.9831H41.0526C41.4803 69.4635 42.0044 69.8482 42.5908 70.1124C43.1772 70.3765 43.8127 70.5141 44.4558 70.5161H44.8314L45.7082 73.582H3.06592ZM78.8738 87.8002C78.7822 88.1203 78.5889 88.4019 78.3232 88.6024C78.0574 88.8029 77.7335 88.9114 77.4006 88.9116H54.4338C54.1007 88.9113 53.7767 88.8026 53.5109 88.6018C53.2451 88.401 53.0519 88.119 52.9607 87.7987L48.0215 70.5161H52.4962L55.2448 80.1354C55.3364 80.4557 55.5299 80.7375 55.796 80.9381C56.0621 81.1386 56.3863 81.247 56.7195 81.2468C56.8621 81.2474 57.0041 81.2272 57.141 81.187C57.3347 81.1319 57.5156 81.0392 57.6735 80.9141C57.8313 80.789 57.963 80.6341 58.0609 80.4582C58.1589 80.2822 58.2212 80.0887 58.2443 79.8886C58.2674 79.6886 58.2509 79.4859 58.1957 79.2923L55.6863 70.5161H83.813L78.8738 87.8002ZM88.9116 65.9172C88.9116 66.3238 88.7501 66.7137 88.4626 67.0012C88.1751 67.2887 87.7852 67.4502 87.3786 67.4502H44.4558C44.0492 67.4502 43.6593 67.2887 43.3718 67.0012C43.0843 66.7137 42.9228 66.3238 42.9228 65.9172V62.8513C42.9228 62.4447 43.0843 62.0548 43.3718 61.7673C43.6593 61.4798 44.0492 61.3183 44.4558 61.3183H87.3786C87.7852 61.3183 88.1751 61.4798 88.4626 61.7673C88.7501 62.0548 88.9116 62.4447 88.9116 62.8513V65.9172Z" fill="#4F4F4F"/>
<path d="M67.45 38.324V38.0419C68.472 37.6819 69.3336 36.9719 69.8823 36.0375C70.4309 35.1031 70.6311 34.0047 70.4475 32.9369C70.2639 31.869 69.7083 30.9006 68.8791 30.2031C68.0499 29.5057 67.0006 29.1242 65.917 29.1262C65.648 29.126 65.3838 29.0549 65.1509 28.9202C64.9181 28.7855 64.7247 28.5919 64.5904 28.3588C64.456 28.1257 64.3854 27.8614 64.3856 27.5923C64.3857 27.3233 64.4567 27.0591 64.5913 26.8261C64.726 26.5932 64.9195 26.3998 65.1525 26.2654C65.3856 26.131 65.6499 26.0602 65.9189 26.0603C66.1879 26.0604 66.4522 26.1312 66.6852 26.2658C66.9181 26.4003 67.1116 26.5938 67.2461 26.8268C67.4558 27.1657 67.7893 27.4097 68.1758 27.5069C68.5623 27.6041 68.9715 27.547 69.3166 27.3476C69.6617 27.1483 69.9156 26.8223 70.0244 26.4389C70.1333 26.0555 70.0885 25.6448 69.8997 25.2938C69.3446 24.3606 68.4766 23.6545 67.45 23.301V22.9944C67.45 22.5878 67.2885 22.1979 67.001 21.9104C66.7135 21.6229 66.3236 21.4614 65.917 21.4614C65.5105 21.4614 65.1206 21.6229 64.8331 21.9104C64.5456 22.1979 64.3841 22.5878 64.3841 22.9944V23.2764C63.3621 23.6364 62.5005 24.3465 61.9518 25.2808C61.4032 26.2152 61.2029 27.3136 61.3866 28.3815C61.5702 29.4493 62.1258 30.4178 62.955 31.1152C63.7842 31.8127 64.8335 32.1942 65.917 32.1921C66.1861 32.1924 66.4503 32.2635 66.6832 32.3982C66.916 32.5329 67.1093 32.7265 67.2437 32.9596C67.378 33.1927 67.4487 33.457 67.4485 33.726C67.4483 33.9951 67.3774 34.2593 67.2428 34.4922C67.1081 34.7251 66.9146 34.9185 66.6815 35.053C66.4485 35.1874 66.1842 35.2581 65.9152 35.2581C65.6461 35.258 65.3819 35.1871 65.1489 35.0526C64.9159 34.918 64.7225 34.7246 64.588 34.4916C64.4907 34.3109 64.3582 34.1515 64.1982 34.023C64.0383 33.8945 63.8541 33.7994 63.6567 33.7433C63.4593 33.6873 63.2527 33.6715 63.049 33.6968C62.8454 33.7221 62.6489 33.788 62.4712 33.8906C62.2935 33.9933 62.1383 34.1306 62.0146 34.2943C61.891 34.4581 61.8015 34.645 61.7514 34.844C61.7014 35.043 61.6918 35.2501 61.7232 35.4528C61.7546 35.6556 61.8265 35.85 61.9344 36.0245C62.4902 36.9583 63.3594 37.6645 64.3871 38.0174V38.324C64.3871 38.7305 64.5487 39.1205 64.8361 39.4079C65.1236 39.6954 65.5135 39.8569 65.9201 39.8569C66.3267 39.8569 66.7166 39.6954 67.0041 39.4079C67.2916 39.1205 67.4531 38.7305 67.4531 38.324H67.45Z" fill="#4F4F4F"/>
<path d="M4.62987 12.2631C4.22331 12.2651 3.83259 12.1055 3.54367 11.8195C3.25474 11.5334 3.09129 11.1443 3.08925 10.7378C3.08722 10.3312 3.24678 9.94048 3.53283 9.65156C3.81887 9.36263 4.20798 9.19918 4.61455 9.19714H4.62987C5.03644 9.19714 5.42635 9.35865 5.71384 9.64614C6.00133 9.93362 6.16283 10.3235 6.16283 10.7301C6.16283 11.1367 6.00133 11.5266 5.71384 11.8141C5.42635 12.1016 5.03644 12.2631 4.62987 12.2631Z" fill="#4F4F4F"/>
<path d="M15.3294 62.8514C16.6727 62.8555 17.9799 62.417 19.049 61.6038C20.1181 60.7906 20.8897 59.6479 21.2444 58.3523C21.5991 57.0567 21.5172 55.6803 21.0113 54.4359C20.5055 53.1915 19.6039 52.1484 18.4459 51.4677C24.7465 34.2214 37.5207 20.1098 54.0565 12.1289L53.7499 13.0226C53.6145 13.4058 53.6367 13.8271 53.8118 14.1939C53.9868 14.5607 54.3004 14.843 54.6835 14.9786C54.8448 15.0369 55.0149 15.067 55.1863 15.0676C55.5032 15.0673 55.8122 14.9688 56.0708 14.7857C56.3294 14.6026 56.5249 14.3438 56.6304 14.0451L58.1633 9.70833C58.2988 9.32514 58.2766 8.90383 58.1015 8.53702C57.9265 8.17022 57.6129 7.88795 57.2298 7.75228L52.8946 6.21932C52.5112 6.08393 52.0897 6.10639 51.7229 6.28176C51.356 6.45713 51.0739 6.77103 50.9385 7.15443C50.8031 7.53782 50.8256 7.95929 51.0009 8.32612C51.1763 8.69295 51.4902 8.97509 51.8736 9.11048L52.6738 9.39408C35.3809 17.7556 22.0406 32.5444 15.4996 50.6046C15.4413 50.6046 15.3877 50.5877 15.3294 50.5877C13.7031 50.5877 12.1435 51.2338 10.9935 52.3837C9.8436 53.5336 9.19757 55.0933 9.19757 56.7196C9.19757 58.3458 9.8436 59.9055 10.9935 61.0554C12.1435 62.2054 13.7031 62.8514 15.3294 62.8514ZM15.3294 53.6537C15.9358 53.6537 16.5285 53.8335 17.0327 54.1703C17.5369 54.5072 17.9299 54.9861 18.1619 55.5463C18.394 56.1065 18.4547 56.723 18.3364 57.3177C18.2181 57.9124 17.9261 58.4587 17.4973 58.8875C17.0686 59.3163 16.5223 59.6083 15.9275 59.7266C15.3328 59.8449 14.7164 59.7842 14.1561 59.5521C13.5959 59.3201 13.1171 58.9271 12.7802 58.4229C12.4433 57.9187 12.2635 57.326 12.2635 56.7196C12.2635 55.9064 12.5865 55.1266 13.1615 54.5516C13.7364 53.9767 14.5163 53.6537 15.3294 53.6537Z" fill="#4F4F4F"/>
<path d="M34.8088 47.9709C34.5213 47.6835 34.1314 47.5221 33.725 47.5221C33.3185 47.5221 32.9286 47.6835 32.6412 47.9709L30.659 49.953L28.6769 47.9709C28.3878 47.6917 28.0006 47.5372 27.5986 47.5407C27.1967 47.5442 26.8122 47.7054 26.528 47.9896C26.2438 48.2738 26.0825 48.6583 26.0791 49.0602C26.0756 49.4622 26.2301 49.8494 26.5093 50.1385L28.4914 52.1206L26.5093 54.1027C26.3629 54.2442 26.2461 54.4133 26.1658 54.6003C26.0854 54.7874 26.0431 54.9885 26.0414 55.1921C26.0396 55.3956 26.0784 55.5975 26.1555 55.7859C26.2326 55.9743 26.3464 56.1454 26.4903 56.2894C26.6342 56.4333 26.8054 56.5471 26.9938 56.6242C27.1822 56.7013 27.3841 56.7401 27.5876 56.7383C27.7911 56.7365 27.9923 56.6942 28.1793 56.6139C28.3664 56.5336 28.5355 56.4168 28.6769 56.2704L30.659 54.2882L32.6412 56.2704C32.9303 56.5496 33.3175 56.7041 33.7194 56.7006C34.1214 56.6971 34.5059 56.5359 34.7901 56.2517C35.0743 55.9675 35.2355 55.583 35.239 55.181C35.2425 54.7791 35.088 54.3919 34.8088 54.1027L32.8266 52.1206L34.8088 50.1385C35.0961 49.8511 35.2576 49.4612 35.2576 49.0547C35.2576 48.6482 35.0961 48.2584 34.8088 47.9709Z" fill="#4F4F4F"/>
<path d="M42.4737 34.1739C42.1863 33.8865 41.7964 33.7251 41.3899 33.7251C40.9834 33.7251 40.5936 33.8865 40.3061 34.1739L38.324 36.156L36.3419 34.1739C36.0528 33.8947 35.6656 33.7402 35.2636 33.7437C34.8617 33.7472 34.4772 33.9084 34.193 34.1926C33.9087 34.4768 33.7475 34.8613 33.744 35.2632C33.7405 35.6652 33.8951 36.0524 34.1743 36.3415L36.1564 38.3236L34.1743 40.3058C34.0279 40.4472 33.9111 40.6163 33.8308 40.8034C33.7504 40.9904 33.7081 41.1915 33.7064 41.3951C33.7046 41.5986 33.7434 41.8005 33.8205 41.9889C33.8975 42.1773 34.0114 42.3484 34.1553 42.4924C34.2992 42.6363 34.4704 42.7501 34.6588 42.8272C34.8472 42.9043 35.049 42.9431 35.2526 42.9413C35.4561 42.9395 35.6573 42.8972 35.8443 42.8169C36.0313 42.7366 36.2005 42.6198 36.3419 42.4734L38.324 40.4913L40.3061 42.4734C40.5952 42.7526 40.9825 42.9071 41.3844 42.9036C41.7864 42.9001 42.1708 42.7389 42.4551 42.4547C42.7393 42.1705 42.9005 41.786 42.904 41.384C42.9075 40.9821 42.753 40.5949 42.4737 40.3058L40.4916 38.3236L42.4737 36.3415C42.7611 36.0541 42.9226 35.6642 42.9226 35.2577C42.9226 34.8512 42.7611 34.4614 42.4737 34.1739Z" fill="#4F4F4F"/>
<path d="M11.1799 31.7423C11.4674 32.0297 11.8572 32.1911 12.2637 32.1911C12.6702 32.1911 13.06 32.0297 13.3475 31.7423L15.3296 29.7602L17.3117 31.7423C17.6009 32.0215 17.9881 32.176 18.39 32.1726C18.792 32.1691 19.1764 32.0078 19.4607 31.7236C19.7449 31.4394 19.9061 31.0549 19.9096 30.653C19.9131 30.251 19.7586 29.8638 19.4793 29.5747L17.4972 27.5926L19.4793 25.6105C19.7586 25.3213 19.9131 24.9341 19.9096 24.5322C19.9061 24.1302 19.7449 23.7457 19.4607 23.4615C19.1764 23.1773 18.792 23.0161 18.39 23.0126C17.9881 23.0091 17.6009 23.1636 17.3117 23.4428L15.3296 25.425L13.3475 23.4428C13.2061 23.2964 13.0369 23.1797 12.8499 23.0993C12.6629 23.019 12.4617 22.9767 12.2582 22.9749C12.0546 22.9731 11.8528 23.0119 11.6644 23.089C11.476 23.1661 11.3048 23.2799 11.1609 23.4238C11.017 23.5678 10.9031 23.7389 10.8261 23.9273C10.749 24.1157 10.7102 24.3176 10.712 24.5211C10.7137 24.7247 10.756 24.9258 10.8364 25.1129C10.9167 25.2999 11.0335 25.469 11.1799 25.6105L13.162 27.5926L11.1799 29.5747C10.8925 29.8622 10.7311 30.252 10.7311 30.6585C10.7311 31.065 10.8925 31.4548 11.1799 31.7423Z" fill="#4F4F4F"/>
<path d="M21.9107 16.4134C22.1982 16.7008 22.5881 16.8623 22.9945 16.8623C23.401 16.8623 23.7909 16.7008 24.0783 16.4134L26.0605 14.4313L28.0426 16.4134C28.3317 16.6927 28.7189 16.8472 29.1209 16.8437C29.5228 16.8402 29.9073 16.679 30.1915 16.3948C30.4757 16.1105 30.637 15.726 30.6404 15.3241C30.6439 14.9222 30.4894 14.5349 30.2102 14.2458L28.2281 12.2637L30.2102 10.2816C30.3566 10.1402 30.4734 9.97103 30.5537 9.784C30.6341 9.59697 30.6764 9.39582 30.6781 9.19228C30.6799 8.98873 30.6411 8.78687 30.564 8.59848C30.4869 8.41008 30.3731 8.23892 30.2292 8.09499C30.0853 7.95106 29.9141 7.83723 29.7257 7.76015C29.5373 7.68307 29.3354 7.64429 29.1319 7.64605C28.9284 7.64782 28.7272 7.69011 28.5402 7.77045C28.3531 7.85079 28.184 7.96758 28.0426 8.11399L26.0605 10.0961L24.0783 8.11399C23.7892 7.83475 23.402 7.68024 23.0001 7.68373C22.5981 7.68722 22.2136 7.84844 21.9294 8.13266C21.6452 8.41689 21.484 8.80137 21.4805 9.20331C21.477 9.60525 21.6315 9.99247 21.9107 10.2816L23.8929 12.2637L21.9107 14.2458C21.6234 14.5333 21.4619 14.9231 21.4619 15.3296C21.4619 15.7361 21.6234 16.126 21.9107 16.4134Z" fill="#4F4F4F"/>
</svg>
