<svg width="324" height="955" viewBox="0 0 324 955" fill="none" xmlns="http://www.w3.org/2000/svg">
<circle cx="111.5" cy="9.5" r="9.5" fill="#F8A441"/>
<circle cx="9.5" cy="203.5" r="9.5" fill="#F8A441"/>
<circle cx="299.5" cy="327.5" r="9.5" fill="#F8A441"/>
<circle cx="227.5" cy="517.5" r="9.5" fill="#F8A441"/>
<circle cx="179.5" cy="664.5" r="9.5" fill="#F8A441"/>
<circle cx="35.5" cy="795.5" r="9.5" fill="#F8A441"/>
<circle cx="169.5" cy="945.5" r="9.5" fill="#F8A441"/>
<path d="M108.581 19C70.5811 89 2.58091 63.5 27.081 132.5C51.5812 201.5 -22.4191 193.5 12.5811 249.5C27.7207 269.167 82.2 305.4 179 293C300 277.5 329.5 355.5 321 419.5C310.357 499.636 180.5 510 196 584.5C211.5 659 154.419 697 83.5 735C12.5811 773 24.4647 859.505 71.5 908.5C97.5901 935.677 132.2 939.7 161 944.5" stroke="#F8A441" stroke-width="3" stroke-dasharray="18 18"/>
</svg>
