<svg width="1920" height="103" viewBox="0 0 1920 103" fill="none" xmlns="http://www.w3.org/2000/svg">
<path d="M-3 83.5C139 77 302 72.5 344 37C386 1.50001 421 16 446 26.5C471 37 505 9.50004 548 8.00004C591 6.50004 674 58 774.5 53.5C825.314 51.2248 872.5 -0.335487 1012 34.6616C1151.5 69.6587 1218.62 33.3032 1317.5 60C1517.5 114 1509 74 1532.5 60C1556 46 1661 -16.5 1941.5 6.99999" stroke="#F8A441" stroke-width="3" stroke-dasharray="18 18"/>
<circle r="10.2815" transform="matrix(-0.684545 0.72897 0.72897 0.684545 375.533 17.5331)" fill="#F8A441"/>
<circle r="10.2815" transform="matrix(-0.684545 0.72897 0.72897 0.684545 697.533 46.5331)" fill="#F8A441"/>
<circle r="10.2815" transform="matrix(-0.684545 0.72897 0.72897 0.684545 1465.53 87.5331)" fill="#F8A441"/>
</svg>
