<svg width="38" height="37" viewBox="0 0 38 37" fill="none" xmlns="http://www.w3.org/2000/svg">
<path d="M19 37C29.4934 37 38 28.7173 38 18.5C38 8.28273 29.4934 0 19 0C8.50659 0 0 8.28273 0 18.5C0 28.7173 8.50659 37 19 37Z" fill="#0B69C7"/>
<path d="M14.7501 11.7743C14.7506 12.2742 14.5987 12.7631 14.3138 13.179C14.0288 13.5949 13.6236 13.9191 13.1493 14.1106C12.675 14.3022 12.153 14.3524 11.6494 14.255C11.1458 14.1576 10.6832 13.9169 10.3201 13.5634C9.95705 13.2099 9.70985 12.7594 9.6098 12.2691C9.50975 11.7787 9.56135 11.2705 9.75807 10.8087C9.95479 10.3469 10.2878 9.95227 10.7149 9.67481C11.142 9.39736 11.6441 9.24952 12.1576 9.25C12.8449 9.25065 13.504 9.5168 13.99 9.99006C14.4761 10.4633 14.7494 11.105 14.7501 11.7743Z" fill="white"/>
<path d="M13.5226 15.3525H10.7926C10.4377 15.3525 10.1501 15.6326 10.1501 15.9781V27.1244C10.1501 27.4699 10.4377 27.75 10.7926 27.75H13.5226C13.8774 27.75 14.1651 27.4699 14.1651 27.1244V15.9781C14.1651 15.6326 13.8774 15.3525 13.5226 15.3525Z" fill="white"/>
<path d="M28.4376 21.7788V27.1755C28.4376 27.3278 28.3755 27.4739 28.2648 27.5817C28.1542 27.6894 28.0041 27.7499 27.8476 27.7499H24.9176C24.7611 27.7499 24.6111 27.6894 24.5004 27.5817C24.3898 27.4739 24.3276 27.3278 24.3276 27.1755V21.9468C24.3276 21.1654 24.5601 18.5389 22.2326 18.5389C20.4276 18.5389 20.0601 20.3451 19.9826 21.1557V27.1876C19.9794 27.337 19.9165 27.4793 19.8072 27.5843C19.698 27.6893 19.5511 27.7487 19.3976 27.7499H16.5626C16.485 27.7503 16.4082 27.7356 16.3364 27.7069C16.2647 27.6781 16.1995 27.6358 16.1447 27.5824C16.0898 27.529 16.0464 27.4655 16.0168 27.3957C15.9873 27.3258 15.9723 27.251 15.9726 27.1755V15.9294C15.9723 15.8538 15.9873 15.7788 16.0168 15.7088C16.0463 15.6388 16.0897 15.5752 16.1445 15.5216C16.1993 15.468 16.2645 15.4255 16.3362 15.3964C16.408 15.3674 16.4849 15.3525 16.5626 15.3525H19.3976C19.4762 15.3512 19.5544 15.3652 19.6274 15.3936C19.7005 15.422 19.767 15.4643 19.823 15.518C19.8791 15.5717 19.9237 15.6357 19.9541 15.7064C19.9845 15.777 20.0001 15.8528 20.0001 15.9294V16.9031C20.6701 15.9294 21.6651 15.1699 23.7826 15.1699C28.4651 15.1675 28.4376 19.4347 28.4376 21.7788Z" fill="white"/>
</svg>
