<svg width="38" height="38" viewBox="0 0 38 38" fill="none" xmlns="http://www.w3.org/2000/svg">
<path fill-rule="evenodd" clip-rule="evenodd" d="M26.5549 15.1252C26.562 15.2926 26.5667 15.4601 26.5667 15.6299C26.5667 20.7801 22.6456 26.7199 15.4755 26.7199C13.2739 26.7199 11.2254 26.0751 9.5 24.9696C9.80519 25.0052 10.1151 25.023 10.4298 25.023C12.2562 25.023 13.9365 24.4007 15.2712 23.3546C13.5648 23.3237 12.1256 22.1968 11.6292 20.6483C11.8679 20.6934 12.1113 20.7171 12.3631 20.7171C12.7181 20.7171 13.0625 20.6696 13.3903 20.5806C11.6066 20.2231 10.2636 18.6473 10.2636 16.7592V16.7093C10.7884 17.0014 11.3905 17.1772 12.0294 17.1974C10.9832 16.4979 10.2944 15.3045 10.2944 13.9531C10.2944 13.2382 10.4868 12.5685 10.8229 11.9926C12.7454 14.3509 15.618 15.903 18.8575 16.0657C18.791 15.7807 18.7566 15.4826 18.7566 15.1774C18.7566 13.0245 20.5022 11.2789 22.6539 11.2789C23.7761 11.2789 24.7891 11.7527 25.4992 12.5103C26.3874 12.3357 27.2222 12.0116 27.9751 11.5651C27.6842 12.4747 27.0655 13.2383 26.2616 13.7216C27.0501 13.6266 27.8006 13.4176 28.5 13.1076C27.9775 13.889 27.3161 14.5754 26.5549 15.1252ZM19 0C8.50606 0 0 8.50606 0 19C0 29.4928 8.50606 38 19 38C29.4939 38 38 29.4928 38 19C38 8.50606 29.4939 0 19 0" fill="#41A1F2"/>
</svg>
